CooperHewittInterpol1-SemiboldItalic.ufo
<glyph name="exclam" format="1">
  <advance width="250"/>
  <unicode hex="0021"/>
  <outline>
    <contour>
      <point x="166" y="141" type="line" smooth="yes"/>
      <point x="24" y="141" type="line" smooth="yes"/>
      <point x="5" y="0" type="line" smooth="yes"/>
      <point x="147" y="0" type="line" smooth="yes"/>
    </contour>
    <contour>
      <point x="97" y="780" type="line" smooth="yes"/>
      <point x="59" y="216" type="line" smooth="yes"/>
      <point x="149" y="216" type="line" smooth="yes"/>
      <point x="259" y="780" type="line" smooth="yes"/>
    </contour>
  </outline>
</glyph>
<glyph name="dollar" format="1">
  <advance width="597"/>
  <unicode hex="0024"/>
  <outline>
    <contour>
      <point x="209" y="528" type="line" smooth="yes"/>
      <point x="241" y="597" type="line" smooth="yes"/>
      <point x="320" y="621" type="line" smooth="yes"/>
      <point x="337" y="621" type="line" smooth="yes"/>
      <point x="277" y="458" type="line" smooth="yes"/>
      <point x="224" y="486" type="line" smooth="yes"/>
    </contour>
    <contour>
      <point x="401" y="255" type="line" smooth="yes"/>
      <point x="369" y="182" type="line" smooth="yes"/>
      <point x="284" y="160" type="line" smooth="yes"/>
      <point x="268" y="160" type="line" smooth="yes"/>
      <point x="330" y="328" type="line" smooth="yes"/>
      <point x="385" y="299" type="line" smooth="yes"/>
    </contour>
    <contour>
      <point x="520" y="840" type="line" smooth="yes"/>
      <point x="418" y="840" type="line" smooth="yes"/>
      <point x="376" y="727" type="line" smooth="yes"/>
      <point x="353" y="729" type="line" smooth="yes"/>
      <point x="329" y="730" type="line" smooth="yes"/>
      <point x="160" y="684" type="line" smooth="yes"/>
      <point x="81" y="551" type="line" smooth="yes"/>
      <point x="78" y="529" type="line" smooth="yes"/>
      <point x="105" y="421" type="line" smooth="yes"/>
      <point x="236" y="350" type="line" smooth="yes"/>
      <point x="181" y="200" type="line" smooth="yes"/>
      <point x="168" y="233" type="line" smooth="yes"/>
      <point x="170" y="275" type="line" smooth="yes"/>
      <point x="39" y="275" type="line" smooth="yes"/>
      <point x="38" y="266" type="line" smooth="yes"/>
      <point x="52" y="156" type="line" smooth="yes"/>
      <point x="135" y="77" type="line" smooth="yes"/>
      <point x="85" y="-60" type="line" smooth="yes"/>
      <point x="187" y="-60" type="line" smooth="yes"/>
      <point x="229" y="54" type="line" smooth="yes"/>
      <point x="251" y="52" type="line" smooth="yes"/>
      <point x="275" y="52" type="line" smooth="yes"/>
      <point x="455" y="96" type="line" smooth="yes"/>
      <point x="532" y="234" type="line" smooth="yes"/>
      <point x="535" y="256" type="line" smooth="yes"/>
      <point x="503" y="370" type="line" smooth="yes"/>
      <point x="372" y="439" type="line" smooth="yes"/>
      <point x="423" y="578" type="line" smooth="yes"/>
      <point x="434" y="542" type="line" smooth="yes"/>
      <point x="433" y="493" type="line" smooth="yes"/>
      <point x="563" y="493" type="line" smooth="yes"/>
      <point x="564" y="502" type="line" smooth="yes"/>
      <point x="553" y="618" type="line" smooth="yes"/>
      <point x="470" y="704" type="line" smooth="yes"/>
    </contour>
  </outline>
</glyph>
<glyph name="ampersand" format="1">
  <advance width="681"/>
  <unicode hex="0026"/>
  <outline>
    <contour>
      <point x="227" y="615" type="line" smooth="yes"/>
      <point x="250" y="662" type="line" smooth="yes"/>
      <point x="305" y="680" type="line" smooth="yes"/>
      <point x="315" y="680" type="line" smooth="yes"/>
      <point x="365" y="662" type="line" smooth="yes"/>
      <point x="376" y="615" type="line" smooth="yes"/>
      <point x="375" y="607" type="line" smooth="yes"/>
      <point x="339" y="544" type="line" smooth="yes"/>
      <point x="259" y="491" type="line" smooth="yes"/>
      <point x="232" y="543" type="line" smooth="yes"/>
      <point x="226" y="606" type="line" smooth="yes"/>
    </contour>
    <contour>
      <point x="238" y="101" type="line" smooth="yes"/>
      <point x="157" y="134" type="line" smooth="yes"/>
      <point x="138" y="216" type="line" smooth="yes"/>
      <point x="139" y="224" type="line" smooth="yes"/>
      <point x="164" y="292" type="line" smooth="yes"/>
      <point x="213" y="337" type="line" smooth="yes"/>
      <point x="361" y="136" type="line" smooth="yes"/>
      <point x="307" y="110" type="line" smooth="yes"/>
      <point x="243" y="101" type="line" smooth="yes"/>
    </contour>
    <contour>
      <point x="225" y="-13" type="line" smooth="yes"/>
      <point x="341" y="4" type="line" smooth="yes"/>
      <point x="426" y="48" type="line" smooth="yes"/>
      <point x="461" y="0" type="line" smooth="yes"/>
      <point x="621" y="0" type="line" smooth="yes"/>
      <point x="525" y="130" type="line" smooth="yes"/>
      <point x="604" y="249" type="line" smooth="yes"/>
      <point x="644" y="395" type="line" smooth="yes"/>
      <point x="507" y="395" type="line" smooth="yes"/>
      <point x="506" y="388" type="line" smooth="yes"/>
      <point x="486" y="302" type="line" smooth="yes"/>
      <point x="452" y="230" type="line" smooth="yes"/>
      <point x="325" y="402" type="line" smooth="yes"/>
      <point x="448" y="488" type="line" smooth="yes"/>
      <point x="507" y="607" type="line" smooth="yes"/>
      <point x="508" y="616" type="line" smooth="yes"/>
      <point x="471" y="741" type="line" smooth="yes"/>
      <point x="312" y="793" type="line" smooth="yes"/>
      <point x="157" y="742" type="line" smooth="yes"/>
      <point x="96" y="619" type="line" smooth="yes"/>
      <point x="95" y="610" type="line" smooth="yes"/>
      <point x="103" y="510" type="line" smooth="yes"/>
      <point x="147" y="426" type="line" smooth="yes"/>
      <point x="54" y="346" type="line" smooth="yes"/>
      <point x="5" y="218" type="line" smooth="yes"/>
      <point x="4" y="209" type="line" smooth="yes"/>
      <point x="51" y="47" type="line" smooth="yes"/>
    </contour>
  </outline>
</glyph>
<glyph name="parenleft" format="1">
  <advance width="350"/>
  <unicode hex="0028"/>
  <outline>
    <contour>
      <point x="39" y="349" type="line" smooth="yes"/>
      <point x="47" y="71" type="line" smooth="yes"/>
      <point x="129" y="-120" type="line" smooth="yes"/>
      <point x="265" y="-120" type="line" smooth="yes"/>
      <point x="186" y="69" type="line" smooth="yes"/>
      <point x="170" y="349" type="line" smooth="yes"/>
      <point x="173" y="371" type="line" smooth="yes"/>
      <point x="256" y="643" type="line" smooth="yes"/>
      <point x="395" y="840" type="line" smooth="yes"/>
      <point x="250" y="840" type="line" smooth="yes"/>
      <point x="125" y="658" type="line" smooth="yes"/>
      <point x="42" y="371" type="line" smooth="yes"/>
    </contour>
  </outline>
</glyph>
<glyph name="parenright" format="1">
  <advance width="341"/>
  <unicode hex="0029"/>
  <outline>
    <contour>
      <point x="307" y="371" type="line" smooth="yes"/>
      <point x="299" y="649" type="line" smooth="yes"/>
      <point x="217" y="840" type="line" smooth="yes"/>
      <point x="81" y="840" type="line" smooth="yes"/>
      <point x="160" y="651" type="line" smooth="yes"/>
      <point x="176" y="371" type="line" smooth="yes"/>
      <point x="173" y="349" type="line" smooth="yes"/>
      <point x="90" y="77" type="line" smooth="yes"/>
      <point x="-49" y="-120" type="line" smooth="yes"/>
      <point x="96" y="-120" type="line" smooth="yes"/>
      <point x="221" y="62" type="line" smooth="yes"/>
      <point x="304" y="349" type="line" smooth="yes"/>
    </contour>
  </outline>
</glyph>
<glyph name="plus" format="1">
  <advance width="600"/>
  <unicode hex="002B"/>
  <outline>
    <contour>
      <point x="276" y="646" type="line" smooth="yes"/>
      <point x="249" y="449" type="line" smooth="yes"/>
      <point x="53" y="449" type="line" smooth="yes"/>
      <point x="37" y="331" type="line" smooth="yes"/>
      <point x="234" y="331" type="line" smooth="yes"/>
      <point x="208" y="134" type="line" smooth="yes"/>
      <point x="326" y="134" type="line" smooth="yes"/>
      <point x="353" y="331" type="line" smooth="yes"/>
      <point x="549" y="331" type="line" smooth="yes"/>
      <point x="565" y="449" type="line" smooth="yes"/>
      <point x="368" y="449" type="line" smooth="yes"/>
      <point x="394" y="646" type="line" smooth="yes"/>
    </contour>
  </outline>
</glyph>
<glyph name="zero" format="1">
  <advance width="597"/>
  <unicode hex="0030"/>
  <outline>
    <contour>
      <point x="206" y="557" type="line" smooth="yes"/>
      <point x="245" y="648" type="line" smooth="yes"/>
      <point x="334" y="676" type="line" smooth="yes"/>
      <point x="340" y="676" type="line" smooth="yes"/>
      <point x="425" y="646" type="line" smooth="yes"/>
      <point x="442" y="558" type="line" smooth="yes"/>
      <point x="398" y="223" type="line" smooth="yes"/>
      <point x="360" y="132" type="line" smooth="yes"/>
      <point x="270" y="104" type="line" smooth="yes"/>
      <point x="264" y="104" type="line" smooth="yes"/>
      <point x="179" y="135" type="line" smooth="yes"/>
      <point x="162" y="222" type="line" smooth="yes"/>
    </contour>
    <contour>
      <point x="574" y="558" type="line" smooth="yes"/>
      <point x="529" y="727" type="line" smooth="yes"/>
      <point x="340" y="793" type="line" smooth="yes"/>
      <point x="150" y="731" type="line" smooth="yes"/>
      <point x="74" y="558" type="line" smooth="yes"/>
      <point x="30" y="222" type="line" smooth="yes"/>
      <point x="75" y="54" type="line" smooth="yes"/>
      <point x="264" y="-13" type="line" smooth="yes"/>
      <point x="454" y="49" type="line" smooth="yes"/>
      <point x="530" y="222" type="line" smooth="yes"/>
    </contour>
  </outline>
</glyph>
<glyph name="two" format="1">
  <advance width="598"/>
  <unicode hex="0032"/>
  <outline>
    <contour>
      <point x="276" y="117" type="line" smooth="yes"/>
      <point x="204" y="116" type="line" smooth="yes"/>
      <point x="463" y="361" type="line" smooth="yes"/>
      <point x="541" y="452" type="line" smooth="yes"/>
      <point x="575" y="552" type="line" smooth="yes"/>
      <point x="578" y="574" type="line" smooth="yes"/>
      <point x="532" y="724" type="line" smooth="yes"/>
      <point x="340" y="793" type="line" smooth="yes"/>
      <point x="148" y="727" type="line" smooth="yes"/>
      <point x="69" y="542" type="line" smooth="yes"/>
      <point x="66" y="520" type="line" smooth="yes"/>
      <point x="198" y="520" type="line" smooth="yes"/>
      <point x="242" y="640" type="line" smooth="yes"/>
      <point x="331" y="676" type="line" smooth="yes"/>
      <point x="339" y="676" type="line" smooth="yes"/>
      <point x="421" y="648" type="line" smooth="yes"/>
      <point x="444" y="561" type="line" smooth="yes"/>
      <point x="443" y="553" type="line" smooth="yes"/>
      <point x="418" y="484" type="line" smooth="yes"/>
      <point x="365" y="423" type="line" smooth="yes"/>
      <point x="9" y="83" type="line" smooth="yes"/>
      <point x="-2" y="0" type="line" smooth="yes"/>
      <point x="504" y="0" type="line" smooth="yes"/>
      <point x="519" y="117" type="line" smooth="yes"/>
    </contour>
  </outline>
</glyph>
<glyph name="three" format="1">
  <advance width="598"/>
  <unicode hex="0033"/>
  <outline>
    <contour>
      <point x="157" y="250" type="line" smooth="yes"/>
      <point x="25" y="250" type="line" smooth="yes"/>
      <point x="22" y="226" type="line" smooth="yes"/>
      <point x="69" y="53" type="line" smooth="yes"/>
      <point x="264" y="-13" type="line" smooth="yes"/>
      <point x="457" y="53" type="line" smooth="yes"/>
      <point x="534" y="199" type="line" smooth="yes"/>
      <point x="537" y="221" type="line" smooth="yes"/>
      <point x="520" y="334" type="line" smooth="yes"/>
      <point x="440" y="397" type="line" smooth="yes"/>
      <point x="530" y="451" type="line" smooth="yes"/>
      <point x="575" y="552" type="line" smooth="yes"/>
      <point x="578" y="574" type="line" smooth="yes"/>
      <point x="533" y="726" type="line" smooth="yes"/>
      <point x="342" y="793" type="line" smooth="yes"/>
      <point x="149" y="726" type="line" smooth="yes"/>
      <point x="69" y="542" type="line" smooth="yes"/>
      <point x="66" y="520" type="line" smooth="yes"/>
      <point x="198" y="520" type="line" smooth="yes"/>
      <point x="242" y="640" type="line" smooth="yes"/>
      <point x="333" y="676" type="line" smooth="yes"/>
      <point x="341" y="676" type="line" smooth="yes"/>
      <point x="422" y="648" type="line" smooth="yes"/>
      <point x="444" y="561" type="line" smooth="yes"/>
      <point x="443" y="553" type="line" smooth="yes"/>
      <point x="402" y="478" type="line" smooth="yes"/>
      <point x="315" y="456" type="line" smooth="yes"/>
      <point x="211" y="456" type="line" smooth="yes"/>
      <point x="195" y="340" type="line" smooth="yes"/>
      <point x="303" y="340" type="line" smooth="yes"/>
      <point x="384" y="313" type="line" smooth="yes"/>
      <point x="404" y="229" type="line" smooth="yes"/>
      <point x="403" y="221" type="line" smooth="yes"/>
      <point x="358" y="132" type="line" smooth="yes"/>
      <point x="274" y="104" type="line" smooth="yes"/>
      <point x="266" y="104" type="line" smooth="yes"/>
      <point x="179" y="137" type="line" smooth="yes"/>
    </contour>
  </outline>
</glyph>
<glyph name="four" format="1">
  <advance width="600"/>
  <unicode hex="0034"/>
  <outline>
    <contour>
      <point x="366" y="556" type="line" smooth="yes"/>
      <point x="355" y="488" type="line" smooth="yes"/>
      <point x="330" y="298" type="line" smooth="yes"/>
      <point x="232" y="298" type="line" smooth="yes"/>
      <point x="168" y="297" type="line" smooth="yes"/>
    </contour>
    <contour>
      <point x="423" y="0" type="line" smooth="yes"/>
      <point x="447" y="182" type="line" smooth="yes"/>
      <point x="545" y="182" type="line" smooth="yes"/>
      <point x="561" y="298" type="line" smooth="yes"/>
      <point x="462" y="298" type="line" smooth="yes"/>
      <point x="525" y="780" type="line" smooth="yes"/>
      <point x="400" y="780" type="line" smooth="yes"/>
      <point x="15" y="276" type="line" smooth="yes"/>
      <point x="3" y="182" type="line" smooth="yes"/>
      <point x="315" y="182" type="line" smooth="yes"/>
      <point x="291" y="0" type="line" smooth="yes"/>
    </contour>
  </outline>
</glyph>
<glyph name="five" format="1">
  <advance width="600"/>
  <unicode hex="0035"/>
  <outline>
    <contour>
      <point x="25" y="250" type="line" smooth="yes"/>
      <point x="22" y="226" type="line" smooth="yes"/>
      <point x="69" y="53" type="line" smooth="yes"/>
      <point x="264" y="-13" type="line" smooth="yes"/>
      <point x="453" y="52" type="line" smooth="yes"/>
      <point x="539" y="233" type="line" smooth="yes"/>
      <point x="542" y="255" type="line" smooth="yes"/>
      <point x="494" y="437" type="line" smooth="yes"/>
      <point x="320" y="503" type="line" smooth="yes"/>
      <point x="237" y="490" type="line" smooth="yes"/>
      <point x="180" y="456" type="line" smooth="yes"/>
      <point x="216" y="663" type="line" smooth="yes"/>
      <point x="586" y="663" type="line" smooth="yes"/>
      <point x="601" y="780" type="line" smooth="yes"/>
      <point x="120" y="780" type="line" smooth="yes"/>
      <point x="45" y="351" type="line" smooth="yes"/>
      <point x="153" y="313" type="line" smooth="yes"/>
      <point x="212" y="369" type="line" smooth="yes"/>
      <point x="287" y="386" type="line" smooth="yes"/>
      <point x="295" y="386" type="line" smooth="yes"/>
      <point x="383" y="353" type="line" smooth="yes"/>
      <point x="408" y="248" type="line" smooth="yes"/>
      <point x="407" y="240" type="line" smooth="yes"/>
      <point x="360" y="136" type="line" smooth="yes"/>
      <point x="274" y="104" type="line" smooth="yes"/>
      <point x="266" y="104" type="line" smooth="yes"/>
      <point x="179" y="137" type="line" smooth="yes"/>
      <point x="157" y="250" type="line" smooth="yes"/>
    </contour>
  </outline>
</glyph>
<glyph name="six" format="1">
  <advance width="600"/>
  <unicode hex="0036"/>
  <outline>
    <contour>
      <point x="305" y="375" type="line" smooth="yes"/>
      <point x="388" y="342" type="line" smooth="yes"/>
      <point x="410" y="244" type="line" smooth="yes"/>
      <point x="409" y="236" type="line" smooth="yes"/>
      <point x="365" y="139" type="line" smooth="yes"/>
      <point x="274" y="104" type="line" smooth="yes"/>
      <point x="268" y="104" type="line" smooth="yes"/>
      <point x="190" y="134" type="line" smooth="yes"/>
      <point x="159" y="234" type="line" smooth="yes"/>
      <point x="161" y="270" type="line" smooth="yes"/>
      <point x="167" y="300" type="line" smooth="yes"/>
      <point x="226" y="356" type="line" smooth="yes"/>
      <point x="300" y="375" type="line" smooth="yes"/>
    </contour>
    <contour>
      <point x="576" y="793" type="line" smooth="yes"/>
      <point x="365" y="762" type="line" smooth="yes"/>
      <point x="188" y="645" type="line" smooth="yes"/>
      <point x="78" y="476" type="line" smooth="yes"/>
      <point x="33" y="311" type="line" smooth="yes"/>
      <point x="30" y="289" type="line" smooth="yes"/>
      <point x="71" y="69" type="line" smooth="yes"/>
      <point x="265" y="-13" type="line" smooth="yes"/>
      <point x="454" y="49" type="line" smooth="yes"/>
      <point x="541" y="229" type="line" smooth="yes"/>
      <point x="544" y="251" type="line" smooth="yes"/>
      <point x="501" y="430" type="line" smooth="yes"/>
      <point x="345" y="491" type="line" smooth="yes"/>
      <point x="262" y="476" type="line" smooth="yes"/>
      <point x="200" y="434" type="line" smooth="yes"/>
      <point x="234" y="507" type="line" smooth="yes"/>
      <point x="282" y="568" type="line" smooth="yes"/>
      <point x="411" y="649" type="line" smooth="yes"/>
      <point x="561" y="674" type="line" smooth="yes"/>
    </contour>
  </outline>
</glyph>
<glyph name="eight" format="1">
  <advance width="598"/>
  <unicode hex="0038"/>
  <outline>
    <contour>
      <point x="341" y="676" type="line" smooth="yes"/>
      <point x="422" y="648" type="line" smooth="yes"/>
      <point x="444" y="561" type="line" smooth="yes"/>
      <point x="443" y="553" type="line" smooth="yes"/>
      <point x="402" y="478" type="line" smooth="yes"/>
      <point x="319" y="456" type="line" smooth="yes"/>
      <point x="305" y="456" type="line" smooth="yes"/>
      <point x="228" y="483" type="line" smooth="yes"/>
      <point x="205" y="562" type="line" smooth="yes"/>
      <point x="206" y="570" type="line" smooth="yes"/>
      <point x="246" y="650" type="line" smooth="yes"/>
      <point x="333" y="676" type="line" smooth="yes"/>
    </contour>
    <contour>
      <point x="300" y="340" type="line" smooth="yes"/>
      <point x="382" y="310" type="line" smooth="yes"/>
      <point x="404" y="229" type="line" smooth="yes"/>
      <point x="403" y="221" type="line" smooth="yes"/>
      <point x="359" y="133" type="line" smooth="yes"/>
      <point x="275" y="104" type="line" smooth="yes"/>
      <point x="265" y="104" type="line" smooth="yes"/>
      <point x="180" y="132" type="line" smooth="yes"/>
      <point x="154" y="215" type="line" smooth="yes"/>
      <point x="155" y="223" type="line" smooth="yes"/>
      <point x="199" y="311" type="line" smooth="yes"/>
      <point x="285" y="340" type="line" smooth="yes"/>
    </contour>
    <contour>
      <point x="256" y="-13" type="line" smooth="yes"/>
      <point x="454" y="50" type="line" smooth="yes"/>
      <point x="534" y="194" type="line" smooth="yes"/>
      <point x="537" y="216" type="line" smooth="yes"/>
      <point x="520" y="332" type="line" smooth="yes"/>
      <point x="440" y="397" type="line" smooth="yes"/>
      <point x="531" y="451" type="line" smooth="yes"/>
      <point x="575" y="552" type="line" smooth="yes"/>
      <point x="578" y="574" type="line" smooth="yes"/>
      <point x="533" y="726" type="line" smooth="yes"/>
      <point x="343" y="793" type="line" smooth="yes"/>
      <point x="147" y="732" type="line" smooth="yes"/>
      <point x="76" y="592" type="line" smooth="yes"/>
      <point x="73" y="570" type="line" smooth="yes"/>
      <point x="93" y="458" type="line" smooth="yes"/>
      <point x="162" y="397" type="line" smooth="yes"/>
      <point x="66" y="334" type="line" smooth="yes"/>
      <point x="23" y="227" type="line" smooth="yes"/>
      <point x="20" y="205" type="line" smooth="yes"/>
      <point x="66" y="53" type="line" smooth="yes"/>
    </contour>
  </outline>
</glyph>
<glyph name="nine" format="1">
  <advance width="595"/>
  <unicode hex="0039"/>
  <outline>
    <contour>
      <point x="298" y="405" type="line" smooth="yes"/>
      <point x="215" y="438" type="line" smooth="yes"/>
      <point x="193" y="536" type="line" smooth="yes"/>
      <point x="194" y="544" type="line" smooth="yes"/>
      <point x="238" y="641" type="line" smooth="yes"/>
      <point x="329" y="676" type="line" smooth="yes"/>
      <point x="335" y="676" type="line" smooth="yes"/>
      <point x="413" y="646" type="line" smooth="yes"/>
      <point x="444" y="546" type="line" smooth="yes"/>
      <point x="442" y="510" type="line" smooth="yes"/>
      <point x="436" y="480" type="line" smooth="yes"/>
      <point x="377" y="425" type="line" smooth="yes"/>
      <point x="303" y="405" type="line" smooth="yes"/>
    </contour>
    <contour>
      <point x="27" y="-13" type="line" smooth="yes"/>
      <point x="238" y="18" type="line" smooth="yes"/>
      <point x="415" y="135" type="line" smooth="yes"/>
      <point x="525" y="304" type="line" smooth="yes"/>
      <point x="570" y="469" type="line" smooth="yes"/>
      <point x="573" y="491" type="line" smooth="yes"/>
      <point x="532" y="711" type="line" smooth="yes"/>
      <point x="338" y="793" type="line" smooth="yes"/>
      <point x="149" y="732" type="line" smooth="yes"/>
      <point x="62" y="553" type="line" smooth="yes"/>
      <point x="59" y="531" type="line" smooth="yes"/>
      <point x="102" y="351" type="line" smooth="yes"/>
      <point x="258" y="289" type="line" smooth="yes"/>
      <point x="341" y="304" type="line" smooth="yes"/>
      <point x="403" y="346" type="line" smooth="yes"/>
      <point x="369" y="273" type="line" smooth="yes"/>
      <point x="321" y="212" type="line" smooth="yes"/>
      <point x="192" y="131" type="line" smooth="yes"/>
      <point x="42" y="106" type="line" smooth="yes"/>
    </contour>
  </outline>
</glyph>
<glyph name="question" format="1">
  <advance width="484"/>
  <unicode hex="003F"/>
  <outline>
    <contour>
      <point x="280" y="141" type="line" smooth="yes"/>
      <point x="138" y="141" type="line" smooth="yes"/>
      <point x="119" y="0" type="line" smooth="yes"/>
      <point x="261" y="0" type="line" smooth="yes"/>
    </contour>
    <contour>
      <point x="290" y="677" type="line" smooth="yes"/>
      <point x="345" y="655" type="line" smooth="yes"/>
      <point x="359" y="595" type="line" smooth="yes"/>
      <point x="266" y="433" type="line" smooth="yes"/>
      <point x="173" y="216" type="line" smooth="yes"/>
      <point x="263" y="216" type="line" smooth="yes"/>
      <point x="386" y="406" type="line" smooth="yes"/>
      <point x="493" y="609" type="line" smooth="yes"/>
      <point x="443" y="746" type="line" smooth="yes"/>
      <point x="288" y="793" type="line" smooth="yes"/>
      <point x="112" y="722" type="line" smooth="yes"/>
      <point x="43" y="528" type="line" smooth="yes"/>
      <point x="41" y="513" type="line" smooth="yes"/>
      <point x="172" y="513" type="line" smooth="yes"/>
      <point x="209" y="636" type="line" smooth="yes"/>
    </contour>
  </outline>
</glyph>
<glyph name="at" format="1">
  <advance width="976"/>
  <unicode hex="0040"/>
  <outline>
    <contour>
      <point x="552" y="208" type="line" smooth="yes"/>
      <point x="511" y="170" type="line" smooth="yes"/>
      <point x="445" y="150" type="line" smooth="yes"/>
      <point x="373" y="189" type="line" smooth="yes"/>
      <point x="361" y="286" type="line" smooth="yes"/>
      <point x="364" y="308" type="line" smooth="yes"/>
      <point x="399" y="403" type="line" smooth="yes"/>
      <point x="479" y="440" type="line" smooth="yes"/>
      <point x="542" y="420" type="line" smooth="yes"/>
      <point x="575" y="382" type="line" smooth="yes"/>
    </contour>
    <contour>
      <point x="440" y="-124" type="line" smooth="yes"/>
      <point x="179" y="-24" type="line" smooth="yes"/>
      <point x="108" y="273" type="line" smooth="yes"/>
      <point x="113" y="311" type="line" smooth="yes"/>
      <point x="257" y="604" type="line" smooth="yes"/>
      <point x="544" y="704" type="line" smooth="yes"/>
      <point x="554" y="704" type="line" smooth="yes"/>
      <point x="786" y="639" type="line" smooth="yes"/>
      <point x="864" y="395" type="line" smooth="yes"/>
      <point x="859" y="357" type="line" smooth="yes"/>
      <point x="791" y="188" type="line" smooth="yes"/>
      <point x="659" y="147" type="line" smooth="yes"/>
      <point x="691" y="390" type="line" smooth="yes"/>
      <point x="717" y="530" type="line" smooth="yes"/>
      <point x="615" y="530" type="line" smooth="yes"/>
      <point x="596" y="462" type="line" smooth="yes"/>
      <point x="549" y="519" type="line" smooth="yes"/>
      <point x="463" y="543" type="line" smooth="yes"/>
      <point x="310" y="474" type="line" smooth="yes"/>
      <point x="243" y="307" type="line" smooth="yes"/>
      <point x="240" y="285" type="line" smooth="yes"/>
      <point x="265" y="117" type="line" smooth="yes"/>
      <point x="405" y="47" type="line" smooth="yes"/>
      <point x="493" y="70" type="line" smooth="yes"/>
      <point x="551" y="123" type="line" smooth="yes"/>
      <point x="553" y="60" type="line" smooth="yes"/>
      <point x="634" y="60" type="line" smooth="yes"/>
      <point x="839" y="119" type="line" smooth="yes"/>
      <point x="952" y="357" type="line" smooth="yes"/>
      <point x="957" y="395" type="line" smooth="yes"/>
      <point x="862" y="698" type="line" smooth="yes"/>
      <point x="553" y="793" type="line" smooth="yes"/>
      <point x="201" y="668" type="line" smooth="yes"/>
      <point x="20" y="311" type="line" smooth="yes"/>
      <point x="15" y="273" type="line" smooth="yes"/>
      <point x="111" y="-86" type="line" smooth="yes"/>
      <point x="441" y="-213" type="line" smooth="yes"/>
      <point x="630" y="-188" type="line" smooth="yes"/>
      <point x="835" y="-86" type="line" smooth="yes"/>
      <point x="790" y="-14" type="line" smooth="yes"/>
      <point x="634" y="-94" type="line" smooth="yes"/>
      <point x="450" y="-124" type="line" smooth="yes"/>
    </contour>
  </outline>
</glyph>
<glyph name="C" format="1">
  <advance width="635"/>
  <unicode hex="0043"/>
  <outline>
    <contour>
      <point x="184" y="408" type="line" smooth="yes"/>
      <point x="241" y="608" type="line" smooth="yes"/>
      <point x="363" y="676" type="line" smooth="yes"/>
      <point x="373" y="676" type="line" smooth="yes"/>
      <point x="468" y="629" type="line" smooth="yes"/>
      <point x="478" y="487" type="line" smooth="yes"/>
      <point x="612" y="487" type="line" smooth="yes"/>
      <point x="615" y="509" type="line" smooth="yes"/>
      <point x="576" y="722" type="line" smooth="yes"/>
      <point x="372" y="793" type="line" smooth="yes"/>
      <point x="154" y="702" type="line" smooth="yes"/>
      <point x="48" y="408" type="line" smooth="yes"/>
      <point x="43" y="370" type="line" smooth="yes"/>
      <point x="75" y="76" type="line" smooth="yes"/>
      <point x="290" y="-13" type="line" smooth="yes"/>
      <point x="498" y="52" type="line" smooth="yes"/>
      <point x="582" y="254" type="line" smooth="yes"/>
      <point x="583" y="263" type="line" smooth="yes"/>
      <point x="448" y="263" type="line" smooth="yes"/>
      <point x="410" y="147" type="line" smooth="yes"/>
      <point x="299" y="104" type="line" smooth="yes"/>
      <point x="289" y="104" type="line" smooth="yes"/>
      <point x="184" y="170" type="line" smooth="yes"/>
      <point x="179" y="370" type="line" smooth="yes"/>
    </contour>
  </outline>
</glyph>
<glyph name="Q" format="1">
  <advance width="656"/>
  <unicode hex="0051"/>
  <outline>
    <contour>
      <point x="484" y="372" type="line" smooth="yes"/>
      <point x="449" y="221" type="line" smooth="yes"/>
      <point x="388" y="131" type="line" smooth="yes"/>
      <point x="357" y="251" type="line" smooth="yes"/>
      <point x="254" y="251" type="line" smooth="yes"/>
      <point x="290" y="104" type="line" smooth="yes"/>
      <point x="185" y="170" type="line" smooth="yes"/>
      <point x="179" y="370" type="line" smooth="yes"/>
      <point x="184" y="408" type="line" smooth="yes"/>
      <point x="243" y="608" type="line" smooth="yes"/>
      <point x="368" y="676" type="line" smooth="yes"/>
      <point x="378" y="676" type="line" smooth="yes"/>
      <point x="483" y="611" type="line" smooth="yes"/>
      <point x="489" y="410" type="line" smooth="yes"/>
    </contour>
    <contour>
      <point x="448" y="-100" type="line" smooth="yes"/>
      <point x="419" y="10" type="line" smooth="yes"/>
      <point x="550" y="133" type="line" smooth="yes"/>
      <point x="620" y="372" type="line" smooth="yes"/>
      <point x="625" y="410" type="line" smooth="yes"/>
      <point x="592" y="704" type="line" smooth="yes"/>
      <point x="377" y="793" type="line" smooth="yes"/>
      <point x="156" y="702" type="line" smooth="yes"/>
      <point x="48" y="408" type="line" smooth="yes"/>
      <point x="43" y="370" type="line" smooth="yes"/>
      <point x="76" y="76" type="line" smooth="yes"/>
      <point x="291" y="-13" type="line" smooth="yes"/>
      <point x="305" y="-13" type="line" smooth="yes"/>
      <point x="319" y="-12" type="line" smooth="yes"/>
      <point x="341" y="-100" type="line" smooth="yes"/>
    </contour>
  </outline>
</glyph>
<glyph name="W" format="1">
  <advance width="924"/>
  <unicode hex="0057"/>
  <outline>
    <contour>
      <point x="541" y="-4" type="line" smooth="yes"/>
      <point x="714" y="-4" type="line" smooth="yes"/>
      <point x="951" y="780" type="line" smooth="yes"/>
      <point x="813" y="780" type="line" smooth="yes"/>
      <point x="644" y="176" type="line" smooth="yes"/>
      <point x="601" y="780" type="line" smooth="yes"/>
      <point x="429" y="780" type="line" smooth="yes"/>
      <point x="227" y="176" type="line" smooth="yes"/>
      <point x="218" y="780" type="line" smooth="yes"/>
      <point x="79" y="780" type="line" smooth="yes"/>
      <point x="110" y="-4" type="line" smooth="yes"/>
      <point x="285" y="-4" type="line" smooth="yes"/>
      <point x="496" y="628" type="line" smooth="yes"/>
    </contour>
  </outline>
</glyph>
<glyph name="c" format="1">
  <advance width="523"/>
  <unicode hex="0063"/>
  <outline>
    <contour>
      <point x="153" y="278" type="line" smooth="yes"/>
      <point x="195" y="392" type="line" smooth="yes"/>
      <point x="275" y="430" type="line" smooth="yes"/>
      <point x="346" y="401" type="line" smooth="yes"/>
      <point x="361" y="328" type="line" smooth="yes"/>
      <point x="484" y="328" type="line" smooth="yes"/>
      <point x="487" y="350" type="line" smooth="yes"/>
      <point x="445" y="488" type="line" smooth="yes"/>
      <point x="278" y="543" type="line" smooth="yes"/>
      <point x="98" y="467" type="line" smooth="yes"/>
      <point x="24" y="277" type="line" smooth="yes"/>
      <point x="21" y="255" type="line" smooth="yes"/>
      <point x="59" y="65" type="line" smooth="yes"/>
      <point x="233" y="-13" type="line" smooth="yes"/>
      <point x="401" y="45" type="line" smooth="yes"/>
      <point x="465" y="184" type="line" smooth="yes"/>
      <point x="466" y="193" type="line" smooth="yes"/>
      <point x="343" y="193" type="line" smooth="yes"/>
      <point x="312" y="126" type="line" smooth="yes"/>
      <point x="236" y="100" type="line" smooth="yes"/>
      <point x="162" y="142" type="line" smooth="yes"/>
      <point x="150" y="256" type="line" smooth="yes"/>
    </contour>
  </outline>
</glyph>
<glyph name="f" format="1">
  <advance width="401"/>
  <unicode hex="0066"/>
  <outline>
    <contour>
      <point x="266" y="621" type="line" smooth="yes"/>
      <point x="296" y="685" type="line" smooth="yes"/>
      <point x="354" y="700" type="line" smooth="yes"/>
      <point x="389" y="697" type="line" smooth="yes"/>
      <point x="412" y="692" type="line" smooth="yes"/>
      <point x="426" y="800" type="line" smooth="yes"/>
      <point x="397" y="808" type="line" smooth="yes"/>
      <point x="346" y="813" type="line" smooth="yes"/>
      <point x="207" y="775" type="line" smooth="yes"/>
      <point x="138" y="638" type="line" smooth="yes"/>
      <point x="124" y="530" type="line" smooth="yes"/>
      <point x="43" y="530" type="line" smooth="yes"/>
      <point x="28" y="416" type="line" smooth="yes"/>
      <point x="109" y="416" type="line" smooth="yes"/>
      <point x="55" y="0" type="line" smooth="yes"/>
      <point x="185" y="0" type="line" smooth="yes"/>
      <point x="239" y="416" type="line" smooth="yes"/>
      <point x="366" y="416" type="line" smooth="yes"/>
      <point x="381" y="530" type="line" smooth="yes"/>
      <point x="254" y="530" type="line" smooth="yes"/>
    </contour>
  </outline>
</glyph>
<glyph name="g" format="1">
  <advance width="563"/>
  <unicode hex="0067"/>
  <outline>
    <contour>
      <point x="354" y="193" type="line" smooth="yes"/>
      <point x="313" y="155" type="line" smooth="yes"/>
      <point x="246" y="134" type="line" smooth="yes"/>
      <point x="167" y="171" type="line" smooth="yes"/>
      <point x="153" y="273" type="line" smooth="yes"/>
      <point x="156" y="295" type="line" smooth="yes"/>
      <point x="196" y="395" type="line" smooth="yes"/>
      <point x="282" y="430" type="line" smooth="yes"/>
      <point x="345" y="408" type="line" smooth="yes"/>
      <point x="377" y="367" type="line" smooth="yes"/>
    </contour>
    <contour>
      <point x="329" y="5" type="line" smooth="yes"/>
      <point x="296" y="-79" type="line" smooth="yes"/>
      <point x="212" y="-106" type="line" smooth="yes"/>
      <point x="136" y="-78" type="line" smooth="yes"/>
      <point x="120" y="0" type="line" smooth="yes"/>
      <point x="-2" y="0" type="line" smooth="yes"/>
      <point x="-5" y="-22" type="line" smooth="yes"/>
      <point x="33" y="-155" type="line" smooth="yes"/>
      <point x="212" y="-213" type="line" smooth="yes"/>
      <point x="386" y="-160" type="line" smooth="yes"/>
      <point x="458" y="-3" type="line" smooth="yes"/>
      <point x="508" y="380" type="line" smooth="yes"/>
      <point x="536" y="530" type="line" smooth="yes"/>
      <point x="421" y="530" type="line" smooth="yes"/>
      <point x="402" y="461" type="line" smooth="yes"/>
      <point x="348" y="519" type="line" smooth="yes"/>
      <point x="252" y="543" type="line" smooth="yes"/>
      <point x="98" y="474" type="line" smooth="yes"/>
      <point x="27" y="294" type="line" smooth="yes"/>
      <point x="24" y="272" type="line" smooth="yes"/>
      <point x="55" y="93" type="line" smooth="yes"/>
      <point x="196" y="21" type="line" smooth="yes"/>
      <point x="283" y="41" type="line" smooth="yes"/>
      <point x="339" y="81" type="line" smooth="yes"/>
    </contour>
  </outline>
</glyph>
<glyph name="j" format="1">
  <advance width="252"/>
  <unicode hex="006A"/>
  <outline>
    <contour>
      <point x="247" y="763" type="line" smooth="yes"/>
      <point x="105" y="763" type="line" smooth="yes"/>
      <point x="86" y="622" type="line" smooth="yes"/>
      <point x="228" y="622" type="line" smooth="yes"/>
    </contour>
    <contour>
      <point x="8" y="-21" type="line" smooth="yes"/>
      <point x="-22" y="-85" type="line" smooth="yes"/>
      <point x="-80" y="-100" type="line" smooth="yes"/>
      <point x="-115" y="-97" type="line" smooth="yes"/>
      <point x="-138" y="-92" type="line" smooth="yes"/>
      <point x="-152" y="-200" type="line" smooth="yes"/>
      <point x="-123" y="-208" type="line" smooth="yes"/>
      <point x="-72" y="-213" type="line" smooth="yes"/>
      <point x="67" y="-175" type="line" smooth="yes"/>
      <point x="136" y="-38" type="line" smooth="yes"/>
      <point x="210" y="530" type="line" smooth="yes"/>
      <point x="80" y="530" type="line" smooth="yes"/>
    </contour>
  </outline>
</glyph>
<glyph name="l" format="1">
  <advance width="250"/>
  <unicode hex="006C"/>
  <outline>
    <contour>
      <point x="11" y="0" type="line" smooth="yes"/>
      <point x="141" y="0" type="line" smooth="yes"/>
      <point x="246" y="800" type="line" smooth="yes"/>
      <point x="116" y="800" type="line" smooth="yes"/>
    </contour>
  </outline>
</glyph>
<glyph name="m" format="1">
  <advance width="841"/>
  <unicode hex="006D"/>
  <outline>
    <contour>
      <point x="743" y="0" type="line" smooth="yes"/>
      <point x="791" y="367" type="line" smooth="yes"/>
      <point x="770" y="493" type="line" smooth="yes"/>
      <point x="649" y="543" type="line" smooth="yes"/>
      <point x="548" y="518" type="line" smooth="yes"/>
      <point x="482" y="465" type="line" smooth="yes"/>
      <point x="440" y="521" type="line" smooth="yes"/>
      <point x="347" y="543" type="line" smooth="yes"/>
      <point x="248" y="518" type="line" smooth="yes"/>
      <point x="184" y="469" type="line" smooth="yes"/>
      <point x="184" y="530" type="line" smooth="yes"/>
      <point x="69" y="530" type="line" smooth="yes"/>
      <point x="59" y="380" type="line" smooth="yes"/>
      <point x="9" y="0" type="line" smooth="yes"/>
      <point x="139" y="0" type="line" smooth="yes"/>
      <point x="188" y="375" type="line" smooth="yes"/>
      <point x="226" y="412" type="line" smooth="yes"/>
      <point x="289" y="430" type="line" smooth="yes"/>
      <point x="348" y="409" type="line" smooth="yes"/>
      <point x="357" y="350" type="line" smooth="yes"/>
      <point x="311" y="0" type="line" smooth="yes"/>
      <point x="441" y="0" type="line" smooth="yes"/>
      <point x="490" y="375" type="line" smooth="yes"/>
      <point x="529" y="412" type="line" smooth="yes"/>
      <point x="591" y="430" type="line" smooth="yes"/>
      <point x="650" y="409" type="line" smooth="yes"/>
      <point x="659" y="350" type="line" smooth="yes"/>
      <point x="613" y="0" type="line" smooth="yes"/>
    </contour>
  </outline>
</glyph>
<glyph name="q" format="1">
  <advance width="568"/>
  <unicode hex="0071"/>
  <outline>
    <contour>
      <point x="350" y="159" type="line" smooth="yes"/>
      <point x="309" y="121" type="line" smooth="yes"/>
      <point x="242" y="100" type="line" smooth="yes"/>
      <point x="164" y="143" type="line" smooth="yes"/>
      <point x="151" y="256" type="line" smooth="yes"/>
      <point x="154" y="278" type="line" smooth="yes"/>
      <point x="196" y="389" type="line" smooth="yes"/>
      <point x="282" y="430" type="line" smooth="yes"/>
      <point x="345" y="408" type="line" smooth="yes"/>
      <point x="377" y="367" type="line" smooth="yes"/>
    </contour>
    <contour>
      <point x="302" y="-200" type="line" smooth="yes"/>
      <point x="432" y="-200" type="line" smooth="yes"/>
      <point x="508" y="380" type="line" smooth="yes"/>
      <point x="536" y="530" type="line" smooth="yes"/>
      <point x="421" y="530" type="line" smooth="yes"/>
      <point x="402" y="461" type="line" smooth="yes"/>
      <point x="348" y="519" type="line" smooth="yes"/>
      <point x="252" y="543" type="line" smooth="yes"/>
      <point x="94" y="467" type="line" smooth="yes"/>
      <point x="25" y="277" type="line" smooth="yes"/>
      <point x="22" y="255" type="line" smooth="yes"/>
      <point x="49" y="63" type="line" smooth="yes"/>
      <point x="192" y="-13" type="line" smooth="yes"/>
      <point x="279" y="7" type="line" smooth="yes"/>
      <point x="335" y="47" type="line" smooth="yes"/>
    </contour>
  </outline>
</glyph>
<glyph name="t" format="1">
  <advance width="421"/>
  <unicode hex="0074"/>
  <outline>
    <contour>
      <point x="254" y="530" type="line" smooth="yes"/>
      <point x="274" y="680" type="line" smooth="yes"/>
      <point x="144" y="680" type="line" smooth="yes"/>
      <point x="124" y="530" type="line" smooth="yes"/>
      <point x="43" y="530" type="line" smooth="yes"/>
      <point x="28" y="416" type="line" smooth="yes"/>
      <point x="109" y="416" type="line" smooth="yes"/>
      <point x="77" y="171" type="line" smooth="yes"/>
      <point x="113" y="28" type="line" smooth="yes"/>
      <point x="245" y="-13" type="line" smooth="yes"/>
      <point x="297" y="-8" type="line" smooth="yes"/>
      <point x="322" y="0" type="line" smooth="yes"/>
      <point x="336" y="108" type="line" smooth="yes"/>
      <point x="315" y="103" type="line" smooth="yes"/>
      <point x="284" y="100" type="line" smooth="yes"/>
      <point x="226" y="117" type="line" smooth="yes"/>
      <point x="209" y="188" type="line" smooth="yes"/>
      <point x="239" y="416" type="line" smooth="yes"/>
      <point x="386" y="416" type="line" smooth="yes"/>
      <point x="401" y="530" type="line" smooth="yes"/>
    </contour>
  </outline>
</glyph>
<glyph name="braceleft" format="1">
  <advance width="350"/>
  <unicode hex="007B"/>
  <outline>
    <contour>
      <point x="376" y="840" type="line" smooth="yes"/>
      <point x="351" y="840" type="line" smooth="yes"/>
      <point x="212" y="803" type="line" smooth="yes"/>
      <point x="142" y="670" type="line" smooth="yes"/>
      <point x="119" y="498" type="line" smooth="yes"/>
      <point x="91" y="434" type="line" smooth="yes"/>
      <point x="30" y="418" type="line" smooth="yes"/>
      <point x="15" y="302" type="line" smooth="yes"/>
      <point x="71" y="285" type="line" smooth="yes"/>
      <point x="83" y="225" type="line" smooth="yes"/>
      <point x="59" y="46" type="line" smooth="yes"/>
      <point x="97" y="-81" type="line" smooth="yes"/>
      <point x="225" y="-120" type="line" smooth="yes"/>
      <point x="250" y="-120" type="line" smooth="yes"/>
      <point x="265" y="-5" type="line" smooth="yes"/>
      <point x="206" y="13" type="line" smooth="yes"/>
      <point x="195" y="86" type="line" smooth="yes"/>
      <point x="216" y="248" type="line" smooth="yes"/>
      <point x="210" y="319" type="line" smooth="yes"/>
      <point x="170" y="360" type="line" smooth="yes"/>
      <point x="223" y="400" type="line" smooth="yes"/>
      <point x="246" y="472" type="line" smooth="yes"/>
      <point x="267" y="634" type="line" smooth="yes"/>
      <point x="297" y="705" type="line" smooth="yes"/>
      <point x="361" y="725" type="line" smooth="yes"/>
    </contour>
  </outline>
</glyph>
<glyph name="braceright" format="1">
  <advance width="350"/>
  <unicode hex="007D"/>
  <outline>
    <contour>
      <point x="-29" y="-120" type="line" smooth="yes"/>
      <point x="-4" y="-120" type="line" smooth="yes"/>
      <point x="135" y="-83" type="line" smooth="yes"/>
      <point x="205" y="50" type="line" smooth="yes"/>
      <point x="228" y="222" type="line" smooth="yes"/>
      <point x="256" y="286" type="line" smooth="yes"/>
      <point x="317" y="302" type="line" smooth="yes"/>
      <point x="332" y="418" type="line" smooth="yes"/>
      <point x="276" y="435" type="line" smooth="yes"/>
      <point x="264" y="495" type="line" smooth="yes"/>
      <point x="288" y="674" type="line" smooth="yes"/>
      <point x="250" y="801" type="line" smooth="yes"/>
      <point x="122" y="840" type="line" smooth="yes"/>
      <point x="97" y="840" type="line" smooth="yes"/>
      <point x="82" y="725" type="line" smooth="yes"/>
      <point x="141" y="707" type="line" smooth="yes"/>
      <point x="152" y="634" type="line" smooth="yes"/>
      <point x="131" y="472" type="line" smooth="yes"/>
      <point x="137" y="401" type="line" smooth="yes"/>
      <point x="177" y="360" type="line" smooth="yes"/>
      <point x="124" y="320" type="line" smooth="yes"/>
      <point x="101" y="248" type="line" smooth="yes"/>
      <point x="80" y="86" type="line" smooth="yes"/>
      <point x="50" y="15" type="line" smooth="yes"/>
      <point x="-14" y="-5" type="line" smooth="yes"/>
    </contour>
  </outline>
</glyph>
<glyph name="asciitilde" format="1">
  <advance width="600"/>
  <unicode hex="007E"/>
  <outline>
    <contour>
      <point x="183" y="474" type="line" smooth="yes"/>
      <point x="91" y="443" type="line" smooth="yes"/>
      <point x="32" y="384" type="line" smooth="yes"/>
      <point x="87" y="320" type="line" smooth="yes"/>
      <point x="129" y="354" type="line" smooth="yes"/>
      <point x="190" y="371" type="line" smooth="yes"/>
      <point x="289" y="337" type="line" smooth="yes"/>
      <point x="421" y="303" type="line" smooth="yes"/>
      <point x="513" y="335" type="line" smooth="yes"/>
      <point x="572" y="393" type="line" smooth="yes"/>
      <point x="517" y="457" type="line" smooth="yes"/>
      <point x="475" y="423" type="line" smooth="yes"/>
      <point x="414" y="406" type="line" smooth="yes"/>
      <point x="315" y="440" type="line" smooth="yes"/>
    </contour>
  </outline>
</glyph>
<glyph name="cent" format="1">
  <advance width="596"/>
  <unicode hex="00A2"/>
  <outline>
    <contour>
      <point x="182" y="408" type="line" smooth="yes"/>
      <point x="240" y="572" type="line" smooth="yes"/>
      <point x="329" y="615" type="line" smooth="yes"/>
      <point x="186" y="228" type="line" smooth="yes"/>
      <point x="174" y="292" type="line" smooth="yes"/>
      <point x="179" y="386" type="line" smooth="yes"/>
    </contour>
    <contour>
      <point x="515" y="840" type="line" smooth="yes"/>
      <point x="413" y="840" type="line" smooth="yes"/>
      <point x="371" y="728" type="line" smooth="yes"/>
      <point x="355" y="729" type="line" smooth="yes"/>
      <point x="339" y="730" type="line" smooth="yes"/>
      <point x="145" y="655" type="line" smooth="yes"/>
      <point x="50" y="407" type="line" smooth="yes"/>
      <point x="47" y="385" type="line" smooth="yes"/>
      <point x="54" y="199" type="line" smooth="yes"/>
      <point x="135" y="88" type="line" smooth="yes"/>
      <point x="80" y="-60" type="line" smooth="yes"/>
      <point x="182" y="-60" type="line" smooth="yes"/>
      <point x="225" y="56" type="line" smooth="yes"/>
      <point x="255" y="53" type="line" smooth="yes"/>
      <point x="287" y="52" type="line" smooth="yes"/>
      <point x="466" y="119" type="line" smooth="yes"/>
      <point x="542" y="282" type="line" smooth="yes"/>
      <point x="543" y="291" type="line" smooth="yes"/>
      <point x="416" y="291" type="line" smooth="yes"/>
      <point x="374" y="192" type="line" smooth="yes"/>
      <point x="290" y="167" type="line" smooth="yes"/>
      <point x="278" y="167" type="line" smooth="yes"/>
      <point x="266" y="168" type="line" smooth="yes"/>
      <point x="419" y="582" type="line" smooth="yes"/>
      <point x="438" y="538" type="line" smooth="yes"/>
      <point x="439" y="470" type="line" smooth="yes"/>
      <point x="566" y="470" type="line" smooth="yes"/>
      <point x="569" y="492" type="line" smooth="yes"/>
      <point x="552" y="627" type="line" smooth="yes"/>
      <point x="465" y="706" type="line" smooth="yes"/>
    </contour>
  </outline>
</glyph>
<glyph name="sterling" format="1">
  <advance width="595"/>
  <unicode hex="00A3"/>
  <outline>
    <contour>
      <point x="365" y="677" type="line" smooth="yes"/>
      <point x="434" y="630" type="line" smooth="yes"/>
      <point x="439" y="500" type="line" smooth="yes"/>
      <point x="570" y="500" type="line" smooth="yes"/>
      <point x="574" y="529" type="line" smooth="yes"/>
      <point x="542" y="725" type="line" smooth="yes"/>
      <point x="365" y="793" type="line" smooth="yes"/>
      <point x="175" y="703" type="line" smooth="yes"/>
      <point x="122" y="504" type="line" smooth="yes"/>
      <point x="123" y="466" type="line" smooth="yes"/>
      <point x="127" y="429" type="line" smooth="yes"/>
      <point x="54" y="429" type="line" smooth="yes"/>
      <point x="39" y="314" type="line" smooth="yes"/>
      <point x="147" y="314" type="line" smooth="yes"/>
      <point x="164" y="219" type="line" smooth="yes"/>
      <point x="170" y="116" type="line" smooth="yes"/>
      <point x="13" y="116" type="line" smooth="yes"/>
      <point x="-2" y="0" type="line" smooth="yes"/>
      <point x="504" y="0" type="line" smooth="yes"/>
      <point x="519" y="116" type="line" smooth="yes"/>
      <point x="285" y="116" type="line" smooth="yes"/>
      <point x="286" y="220" type="line" smooth="yes"/>
      <point x="278" y="314" type="line" smooth="yes"/>
      <point x="430" y="314" type="line" smooth="yes"/>
      <point x="445" y="429" type="line" smooth="yes"/>
      <point x="262" y="429" type="line" smooth="yes"/>
      <point x="257" y="477" type="line" smooth="yes"/>
      <point x="255" y="523" type="line" smooth="yes"/>
      <point x="281" y="634" type="line" smooth="yes"/>
    </contour>
  </outline>
</glyph>
<glyph name="yen" format="1">
  <advance width="600"/>
  <unicode hex="00A5"/>
  <outline>
    <contour>
      <point x="41" y="366" type="line" smooth="yes"/>
      <point x="189" y="366" type="line" smooth="yes"/>
      <point x="215" y="279" type="line" smooth="yes"/>
      <point x="29" y="279" type="line" smooth="yes"/>
      <point x="14" y="165" type="line" smooth="yes"/>
      <point x="205" y="165" type="line" smooth="yes"/>
      <point x="184" y="0" type="line" smooth="yes"/>
      <point x="318" y="0" type="line" smooth="yes"/>
      <point x="340" y="165" type="line" smooth="yes"/>
      <point x="530" y="165" type="line" smooth="yes"/>
      <point x="545" y="279" type="line" smooth="yes"/>
      <point x="359" y="279" type="line" smooth="yes"/>
      <point x="408" y="366" type="line" smooth="yes"/>
      <point x="557" y="366" type="line" smooth="yes"/>
      <point x="572" y="480" type="line" smooth="yes"/>
      <point x="473" y="480" type="line" smooth="yes"/>
      <point x="643" y="780" type="line" smooth="yes"/>
      <point x="496" y="780" type="line" smooth="yes"/>
      <point x="305" y="411" type="line" smooth="yes"/>
      <point x="210" y="780" type="line" smooth="yes"/>
      <point x="63" y="780" type="line" smooth="yes"/>
      <point x="154" y="480" type="line" smooth="yes"/>
      <point x="56" y="480" type="line" smooth="yes"/>
    </contour>
  </outline>
</glyph>
<glyph name="section" format="1">
  <advance width="536"/>
  <unicode hex="00A7"/>
  <outline>
    <contour>
      <point x="281" y="466" type="line" smooth="yes"/>
      <point x="351" y="449" type="line" smooth="yes"/>
      <point x="375" y="399" type="line" smooth="yes"/>
      <point x="349" y="339" type="line" smooth="yes"/>
      <point x="269" y="314" type="line" smooth="yes"/>
      <point x="260" y="314" type="line" smooth="yes"/>
      <point x="191" y="331" type="line" smooth="yes"/>
      <point x="166" y="381" type="line" smooth="yes"/>
      <point x="192" y="442" type="line" smooth="yes"/>
      <point x="272" y="466" type="line" smooth="yes"/>
    </contour>
    <contour>
      <point x="130" y="515" type="line" smooth="yes"/>
      <point x="66" y="466" type="line" smooth="yes"/>
      <point x="37" y="392" type="line" smooth="yes"/>
      <point x="36" y="383" type="line" smooth="yes"/>
      <point x="70" y="274" type="line" smooth="yes"/>
      <point x="218" y="223" type="line" smooth="yes"/>
      <point x="291" y="203" type="line" smooth="yes"/>
      <point x="313" y="155" type="line" smooth="yes"/>
      <point x="290" y="108" type="line" smooth="yes"/>
      <point x="227" y="88" type="line" smooth="yes"/>
      <point x="154" y="111" type="line" smooth="yes"/>
      <point x="141" y="173" type="line" smooth="yes"/>
      <point x="14" y="173" type="line" smooth="yes"/>
      <point x="13" y="164" type="line" smooth="yes"/>
      <point x="49" y="34" type="line" smooth="yes"/>
      <point x="219" y="-13" type="line" smooth="yes"/>
      <point x="367" y="27" type="line" smooth="yes"/>
      <point x="441" y="151" type="line" smooth="yes"/>
      <point x="442" y="160" type="line" smooth="yes"/>
      <point x="438" y="219" type="line" smooth="yes"/>
      <point x="411" y="265" type="line" smooth="yes"/>
      <point x="475" y="314" type="line" smooth="yes"/>
      <point x="504" y="388" type="line" smooth="yes"/>
      <point x="505" y="397" type="line" smooth="yes"/>
      <point x="471" y="506" type="line" smooth="yes"/>
      <point x="323" y="557" type="line" smooth="yes"/>
      <point x="250" y="577" type="line" smooth="yes"/>
      <point x="228" y="625" type="line" smooth="yes"/>
      <point x="252" y="672" type="line" smooth="yes"/>
      <point x="314" y="692" type="line" smooth="yes"/>
      <point x="387" y="669" type="line" smooth="yes"/>
      <point x="400" y="607" type="line" smooth="yes"/>
      <point x="527" y="607" type="line" smooth="yes"/>
      <point x="528" y="616" type="line" smooth="yes"/>
      <point x="492" y="746" type="line" smooth="yes"/>
      <point x="322" y="793" type="line" smooth="yes"/>
      <point x="174" y="753" type="line" smooth="yes"/>
      <point x="100" y="629" type="line" smooth="yes"/>
      <point x="99" y="620" type="line" smooth="yes"/>
      <point x="103" y="561" type="line" smooth="yes"/>
    </contour>
  </outline>
</glyph>
<glyph name="copyright" format="1">
  <advance width="920"/>
  <unicode hex="00A9"/>
  <outline>
    <contour>
      <point x="463" y="246" type="line" smooth="yes"/>
      <point x="387" y="284" type="line" smooth="yes"/>
      <point x="365" y="375" type="line" smooth="yes"/>
      <point x="365" y="405" type="line" smooth="yes"/>
      <point x="387" y="496" type="line" smooth="yes"/>
      <point x="463" y="534" type="line" smooth="yes"/>
      <point x="529" y="510" type="line" smooth="yes"/>
      <point x="549" y="449" type="line" smooth="yes"/>
      <point x="661" y="449" type="line" smooth="yes"/>
      <point x="661" y="468" type="line" smooth="yes"/>
      <point x="613" y="587" type="line" smooth="yes"/>
      <point x="460" y="638" type="line" smooth="yes"/>
      <point x="296" y="569" type="line" smooth="yes"/>
      <point x="246" y="405" type="line" smooth="yes"/>
      <point x="246" y="375" type="line" smooth="yes"/>
      <point x="296" y="211" type="line" smooth="yes"/>
      <point x="460" y="142" type="line" smooth="yes"/>
      <point x="613" y="192" type="line" smooth="yes"/>
      <point x="661" y="304" type="line" smooth="yes"/>
      <point x="661" y="322" type="line" smooth="yes"/>
      <point x="549" y="322" type="line" smooth="yes"/>
      <point x="530" y="270" type="line" smooth="yes"/>
    </contour>
    <contour>
      <point x="109" y="390" type="line" smooth="yes"/>
      <point x="212" y="638" type="line" smooth="yes"/>
      <point x="460" y="741" type="line" smooth="yes"/>
      <point x="708" y="638" type="line" smooth="yes"/>
      <point x="811" y="390" type="line" smooth="yes"/>
      <point x="708" y="142" type="line" smooth="yes"/>
      <point x="460" y="39" type="line" smooth="yes"/>
      <point x="212" y="142" type="line" smooth="yes"/>
    </contour>
    <contour>
      <point x="57" y="390" type="line" smooth="yes"/>
      <point x="175" y="105" type="line" smooth="yes"/>
      <point x="460" y="-13" type="line" smooth="yes"/>
      <point x="745" y="105" type="line" smooth="yes"/>
      <point x="863" y="390" type="line" smooth="yes"/>
      <point x="745" y="675" type="line" smooth="yes"/>
      <point x="460" y="793" type="line" smooth="yes"/>
      <point x="175" y="675" type="line" smooth="yes"/>
    </contour>
  </outline>
</glyph>
<glyph name="ordfeminine" format="1">
  <advance width="414"/>
  <unicode hex="00AA"/>
  <outline>
    <contour>
      <point x="200" y="470" type="line" smooth="yes"/>
      <point x="171" y="480" type="line" smooth="yes"/>
      <point x="163" y="507" type="line" smooth="yes"/>
      <point x="164" y="516" type="line" smooth="yes"/>
      <point x="181" y="547" type="line" smooth="yes"/>
      <point x="221" y="564" type="line" smooth="yes"/>
      <point x="293" y="575" type="line" smooth="yes"/>
      <point x="284" y="509" type="line" smooth="yes"/>
      <point x="252" y="484" type="line" smooth="yes"/>
    </contour>
    <contour>
      <point x="361" y="191" type="line" smooth="yes"/>
      <point x="374" y="290" type="line" smooth="yes"/>
      <point x="31" y="290" type="line" smooth="yes"/>
      <point x="18" y="191" type="line" smooth="yes"/>
    </contour>
    <contour>
      <point x="287" y="387" type="line" smooth="yes"/>
      <point x="389" y="387" type="line" smooth="yes"/>
      <point x="396" y="499" type="line" smooth="yes"/>
      <point x="415" y="642" type="line" smooth="yes"/>
      <point x="387" y="754" type="line" smooth="yes"/>
      <point x="250" y="793" type="line" smooth="yes"/>
      <point x="125" y="753" type="line" smooth="yes"/>
      <point x="83" y="661" type="line" smooth="yes"/>
      <point x="82" y="652" type="line" smooth="yes"/>
      <point x="190" y="652" type="line" smooth="yes"/>
      <point x="205" y="690" type="line" smooth="yes"/>
      <point x="250" y="706" type="line" smooth="yes"/>
      <point x="294" y="691" type="line" smooth="yes"/>
      <point x="303" y="647" type="line" smooth="yes"/>
      <point x="203" y="632" type="line" smooth="yes"/>
      <point x="98" y="595" type="line" smooth="yes"/>
      <point x="48" y="504" type="line" smooth="yes"/>
      <point x="47" y="495" type="line" smooth="yes"/>
      <point x="68" y="413" type="line" smooth="yes"/>
      <point x="160" y="378" type="line" smooth="yes"/>
      <point x="233" y="394" type="line" smooth="yes"/>
      <point x="287" y="433" type="line" smooth="yes"/>
    </contour>
  </outline>
</glyph>
<glyph name="guillemotleft" format="1">
  <advance width="550"/>
  <unicode hex="00AB"/>
  <outline>
    <contour>
      <point x="524" y="551" type="line" smooth="yes"/>
      <point x="291" y="402" type="line" smooth="yes"/>
      <point x="275" y="278" type="line" smooth="yes"/>
      <point x="468" y="129" type="line" smooth="yes"/>
      <point x="483" y="241" type="line" smooth="yes"/>
      <point x="373" y="335" type="line" smooth="yes"/>
      <point x="508" y="429" type="line" smooth="yes"/>
    </contour>
    <contour>
      <point x="286" y="551" type="line" smooth="yes"/>
      <point x="53" y="402" type="line" smooth="yes"/>
      <point x="37" y="278" type="line" smooth="yes"/>
      <point x="230" y="129" type="line" smooth="yes"/>
      <point x="245" y="241" type="line" smooth="yes"/>
      <point x="135" y="335" type="line" smooth="yes"/>
      <point x="270" y="429" type="line" smooth="yes"/>
    </contour>
  </outline>
</glyph>
<glyph name="registered" format="1">
  <advance width="330"/>
  <unicode hex="00AE"/>
  <outline>
    <contour>
      <point x="189" y="694" type="line" smooth="yes"/>
      <point x="189" y="692" type="line" smooth="yes"/>
      <point x="183" y="676" type="line" smooth="yes"/>
      <point x="167" y="672" type="line" smooth="yes"/>
      <point x="141" y="672" type="line" smooth="yes"/>
      <point x="141" y="714" type="line" smooth="yes"/>
      <point x="167" y="714" type="line" smooth="yes"/>
      <point x="183" y="710" type="line" smooth="yes"/>
    </contour>
    <contour>
      <point x="238" y="690" type="line" smooth="yes"/>
      <point x="238" y="696" type="line" smooth="yes"/>
      <point x="220" y="739" type="line" smooth="yes"/>
      <point x="178" y="751" type="line" smooth="yes"/>
      <point x="92" y="751" type="line" smooth="yes"/>
      <point x="92" y="579" type="line" smooth="yes"/>
      <point x="141" y="579" type="line" smooth="yes"/>
      <point x="141" y="635" type="line" smooth="yes"/>
      <point x="164" y="635" type="line" smooth="yes"/>
      <point x="187" y="579" type="line" smooth="yes"/>
      <point x="238" y="579" type="line" smooth="yes"/>
      <point x="209" y="640" type="line" smooth="yes"/>
      <point x="230" y="658" type="line" smooth="yes"/>
    </contour>
    <contour>
      <point x="41" y="665" type="line" smooth="yes"/>
      <point x="78" y="753" type="line" smooth="yes"/>
      <point x="165" y="789" type="line" smooth="yes"/>
      <point x="253" y="753" type="line" smooth="yes"/>
      <point x="289" y="665" type="line" smooth="yes"/>
      <point x="253" y="578" type="line" smooth="yes"/>
      <point x="165" y="541" type="line" smooth="yes"/>
      <point x="78" y="578" type="line" smooth="yes"/>
    </contour>
    <contour>
      <point x="17" y="665" type="line" smooth="yes"/>
      <point x="61" y="561" type="line" smooth="yes"/>
      <point x="165" y="517" type="line" smooth="yes"/>
      <point x="269" y="561" type="line" smooth="yes"/>
      <point x="313" y="665" type="line" smooth="yes"/>
      <point x="269" y="769" type="line" smooth="yes"/>
      <point x="165" y="813" type="line" smooth="yes"/>
      <point x="61" y="769" type="line" smooth="yes"/>
    </contour>
  </outline>
</glyph>
<glyph name="degree" format="1">
  <advance width="398"/>
  <unicode hex="00B0"/>
  <outline>
    <contour>
      <point x="247" y="710" type="line" smooth="yes"/>
      <point x="299" y="690" type="line" smooth="yes"/>
      <point x="312" y="637" type="line" smooth="yes"/>
      <point x="311" y="629" type="line" smooth="yes"/>
      <point x="282" y="575" type="line" smooth="yes"/>
      <point x="227" y="556" type="line" smooth="yes"/>
      <point x="221" y="556" type="line" smooth="yes"/>
      <point x="169" y="576" type="line" smooth="yes"/>
      <point x="156" y="629" type="line" smooth="yes"/>
      <point x="157" y="637" type="line" smooth="yes"/>
      <point x="186" y="692" type="line" smooth="yes"/>
      <point x="241" y="710" type="line" smooth="yes"/>
    </contour>
    <contour>
      <point x="246" y="793" type="line" smooth="yes"/>
      <point x="133" y="752" type="line" smooth="yes"/>
      <point x="75" y="637" type="line" smooth="yes"/>
      <point x="74" y="629" type="line" smooth="yes"/>
      <point x="106" y="517" type="line" smooth="yes"/>
      <point x="222" y="473" type="line" smooth="yes"/>
      <point x="335" y="514" type="line" smooth="yes"/>
      <point x="393" y="629" type="line" smooth="yes"/>
      <point x="394" y="637" type="line" smooth="yes"/>
      <point x="362" y="749" type="line" smooth="yes"/>
    </contour>
  </outline>
</glyph>
<glyph name="threesuperior" format="1">
  <advance width="300"/>
  <unicode hex="00B3"/>
  <outline>
    <contour>
      <point x="127" y="517" type="line" smooth="yes"/>
      <point x="34" y="517" type="line" smooth="yes"/>
      <point x="33" y="508" type="line" smooth="yes"/>
      <point x="58" y="416" type="line" smooth="yes"/>
      <point x="157" y="385" type="line" smooth="yes"/>
      <point x="261" y="422" type="line" smooth="yes"/>
      <point x="296" y="493" type="line" smooth="yes"/>
      <point x="297" y="502" type="line" smooth="yes"/>
      <point x="291" y="558" type="line" smooth="yes"/>
      <point x="264" y="591" type="line" smooth="yes"/>
      <point x="299" y="620" type="line" smooth="yes"/>
      <point x="317" y="669" type="line" smooth="yes"/>
      <point x="318" y="678" type="line" smooth="yes"/>
      <point x="298" y="750" type="line" smooth="yes"/>
      <point x="197" y="789" type="line" smooth="yes"/>
      <point x="97" y="757" type="line" smooth="yes"/>
      <point x="55" y="661" type="line" smooth="yes"/>
      <point x="54" y="652" type="line" smooth="yes"/>
      <point x="147" y="652" type="line" smooth="yes"/>
      <point x="161" y="695" type="line" smooth="yes"/>
      <point x="188" y="708" type="line" smooth="yes"/>
      <point x="193" y="708" type="line" smooth="yes"/>
      <point x="216" y="700" type="line" smooth="yes"/>
      <point x="224" y="674" type="line" smooth="yes"/>
      <point x="223" y="665" type="line" smooth="yes"/>
      <point x="210" y="639" type="line" smooth="yes"/>
      <point x="182" y="631" type="line" smooth="yes"/>
      <point x="132" y="631" type="line" smooth="yes"/>
      <point x="121" y="550" type="line" smooth="yes"/>
      <point x="172" y="550" type="line" smooth="yes"/>
      <point x="199" y="541" type="line" smooth="yes"/>
      <point x="205" y="513" type="line" smooth="yes"/>
      <point x="204" y="504" type="line" smooth="yes"/>
      <point x="190" y="475" type="line" smooth="yes"/>
      <point x="164" y="466" type="line" smooth="yes"/>
      <point x="159" y="466" type="line" smooth="yes"/>
      <point x="134" y="477" type="line" smooth="yes"/>
    </contour>
  </outline>
</glyph>
<glyph name="paragraph" format="1">
  <advance width="538"/>
  <unicode hex="00B6"/>
  <outline>
    <contour>
      <point x="184" y="539" type="line" smooth="yes"/>
      <point x="214" y="622" type="line" smooth="yes"/>
      <point x="273" y="658" type="line" smooth="yes"/>
      <point x="241" y="413" type="line" smooth="yes"/>
      <point x="193" y="448" type="line" smooth="yes"/>
      <point x="183" y="531" type="line" smooth="yes"/>
    </contour>
    <contour>
      <point x="187" y="0" type="line" smooth="yes"/>
      <point x="251" y="0" type="line" smooth="yes"/>
      <point x="338" y="663" type="line" smooth="yes"/>
      <point x="384" y="663" type="line" smooth="yes"/>
      <point x="297" y="0" type="line" smooth="yes"/>
      <point x="431" y="0" type="line" smooth="yes"/>
      <point x="533" y="780" type="line" smooth="yes"/>
      <point x="336" y="780" type="line" smooth="yes"/>
      <point x="156" y="735" type="line" smooth="yes"/>
      <point x="49" y="546" type="line" smooth="yes"/>
      <point x="46" y="524" type="line" smooth="yes"/>
      <point x="89" y="357" type="line" smooth="yes"/>
      <point x="226" y="295" type="line" smooth="yes"/>
    </contour>
  </outline>
</glyph>
<glyph name="cedilla" format="1">
  <advance width="602"/>
  <unicode hex="00B8"/>
  <outline>
    <contour>
      <point x="75" y="-190" type="line" smooth="yes"/>
      <point x="114" y="-207" type="line" smooth="yes"/>
      <point x="174" y="-214" type="line" smooth="yes"/>
      <point x="266" y="-189" type="line" smooth="yes"/>
      <point x="301" y="-120" type="line" smooth="yes"/>
      <point x="274" y="-65" type="line" smooth="yes"/>
      <point x="211" y="-45" type="line" smooth="yes"/>
      <point x="234" y="0" type="line" smooth="yes"/>
      <point x="168" y="0" type="line" smooth="yes"/>
      <point x="129" y="-75" type="line" smooth="yes"/>
      <point x="142" y="-101" type="line" smooth="yes"/>
      <point x="154" y="-99" type="line" smooth="yes"/>
      <point x="180" y="-97" type="line" smooth="yes"/>
      <point x="214" y="-103" type="line" smooth="yes"/>
      <point x="226" y="-121" type="line" smooth="yes"/>
      <point x="214" y="-140" type="line" smooth="yes"/>
      <point x="175" y="-147" type="line" smooth="yes"/>
      <point x="134" y="-143" type="line" smooth="yes"/>
      <point x="103" y="-131" type="line" smooth="yes"/>
    </contour>
  </outline>
</glyph>
<glyph name="ordmasculine" format="1">
  <advance width="432"/>
  <unicode hex="00BA"/>
  <outline>
    <contour>
      <point x="366" y="191" type="line" smooth="yes"/>
      <point x="379" y="290" type="line" smooth="yes"/>
      <point x="31" y="290" type="line" smooth="yes"/>
      <point x="18" y="191" type="line" smooth="yes"/>
    </contour>
    <contour>
      <point x="177" y="600" type="line" smooth="yes"/>
      <point x="201" y="670" type="line" smooth="yes"/>
      <point x="255" y="694" type="line" smooth="yes"/>
      <point x="306" y="666" type="line" smooth="yes"/>
      <point x="315" y="593" type="line" smooth="yes"/>
      <point x="312" y="571" type="line" smooth="yes"/>
      <point x="288" y="502" type="line" smooth="yes"/>
      <point x="234" y="477" type="line" smooth="yes"/>
      <point x="183" y="505" type="line" smooth="yes"/>
      <point x="174" y="578" type="line" smooth="yes"/>
    </contour>
    <contour>
      <point x="429" y="594" type="line" smooth="yes"/>
      <point x="398" y="736" type="line" smooth="yes"/>
      <point x="255" y="793" type="line" smooth="yes"/>
      <point x="120" y="739" type="line" smooth="yes"/>
      <point x="63" y="599" type="line" smooth="yes"/>
      <point x="60" y="577" type="line" smooth="yes"/>
      <point x="91" y="435" type="line" smooth="yes"/>
      <point x="234" y="378" type="line" smooth="yes"/>
      <point x="369" y="432" type="line" smooth="yes"/>
      <point x="426" y="572" type="line" smooth="yes"/>
    </contour>
  </outline>
</glyph>
<glyph name="questiondown" format="1">
  <advance width="484"/>
  <unicode hex="00BF"/>
  <outline>
    <contour>
      <point x="175" y="389" type="line" smooth="yes"/>
      <point x="317" y="389" type="line" smooth="yes"/>
      <point x="336" y="530" type="line" smooth="yes"/>
      <point x="194" y="530" type="line" smooth="yes"/>
    </contour>
    <contour>
      <point x="171" y="-98" type="line" smooth="yes"/>
      <point x="117" y="-79" type="line" smooth="yes"/>
      <point x="102" y="-30" type="line" smooth="yes"/>
      <point x="192" y="121" type="line" smooth="yes"/>
      <point x="282" y="314" type="line" smooth="yes"/>
      <point x="192" y="314" type="line" smooth="yes"/>
      <point x="74" y="151" type="line" smooth="yes"/>
      <point x="-32" y="-42" type="line" smooth="yes"/>
      <point x="17" y="-171" type="line" smooth="yes"/>
      <point x="173" y="-214" type="line" smooth="yes"/>
      <point x="345" y="-143" type="line" smooth="yes"/>
      <point x="417" y="45" type="line" smooth="yes"/>
      <point x="419" y="60" type="line" smooth="yes"/>
      <point x="288" y="60" type="line" smooth="yes"/>
      <point x="251" y="-60" type="line" smooth="yes"/>
    </contour>
  </outline>
</glyph>
<glyph name="Atilde" format="1">
  <advance width="631"/>
  <unicode hex="00C3"/>
  <outline>
    <contour>
      <point x="352" y="631" type="line" smooth="yes"/>
      <point x="393" y="295" type="line" smooth="yes"/>
      <point x="222" y="295" type="line" smooth="yes"/>
    </contour>
    <contour>
      <point x="277" y="784" type="line" smooth="yes"/>
      <point x="-31" y="0" type="line" smooth="yes"/>
      <point x="116" y="0" type="line" smooth="yes"/>
      <point x="182" y="178" type="line" smooth="yes"/>
      <point x="402" y="178" type="line" smooth="yes"/>
      <point x="423" y="0" type="line" smooth="yes"/>
      <point x="564" y="0" type="line" smooth="yes"/>
      <point x="462" y="784" type="line" smooth="yes"/>
    </contour>
    <contour>
      <point x="492" y="943" type="line" smooth="yes"/>
      <point x="481" y="916" type="line" smooth="yes"/>
      <point x="454" y="907" type="line" smooth="yes"/>
      <point x="394" y="932" type="line" smooth="yes"/>
      <point x="316" y="957" type="line" smooth="yes"/>
      <point x="242" y="932" type="line" smooth="yes"/>
      <point x="204" y="847" type="line" smooth="yes"/>
      <point x="277" y="847" type="line" smooth="yes"/>
      <point x="288" y="874" type="line" smooth="yes"/>
      <point x="315" y="883" type="line" smooth="yes"/>
      <point x="375" y="858" type="line" smooth="yes"/>
      <point x="453" y="833" type="line" smooth="yes"/>
      <point x="527" y="858" type="line" smooth="yes"/>
      <point x="565" y="943" type="line" smooth="yes"/>
    </contour>
  </outline>
</glyph>
<glyph name="Aring" format="1">
  <advance width="631"/>
  <unicode hex="00C5"/>
  <outline>
    <contour>
      <point x="432" y="868" type="line" smooth="yes"/>
      <point x="414" y="824" type="line" smooth="yes"/>
      <point x="373" y="809" type="line" smooth="yes"/>
      <point x="340" y="822" type="line" smooth="yes"/>
      <point x="328" y="855" type="line" smooth="yes"/>
      <point x="346" y="899" type="line" smooth="yes"/>
      <point x="387" y="914" type="line" smooth="yes"/>
      <point x="420" y="902" type="line" smooth="yes"/>
    </contour>
    <contour>
      <point x="352" y="631" type="line" smooth="yes"/>
      <point x="393" y="295" type="line" smooth="yes"/>
      <point x="222" y="295" type="line" smooth="yes"/>
    </contour>
    <contour>
      <point x="277" y="784" type="line" smooth="yes"/>
      <point x="-31" y="0" type="line" smooth="yes"/>
      <point x="116" y="0" type="line" smooth="yes"/>
      <point x="182" y="178" type="line" smooth="yes"/>
      <point x="402" y="178" type="line" smooth="yes"/>
      <point x="423" y="0" type="line" smooth="yes"/>
      <point x="564" y="0" type="line" smooth="yes"/>
      <point x="462" y="784" type="line" smooth="yes"/>
      <point x="443" y="784" type="line" smooth="yes"/>
      <point x="472" y="820" type="line" smooth="yes"/>
      <point x="483" y="868" type="line" smooth="yes"/>
      <point x="456" y="937" type="line" smooth="yes"/>
      <point x="387" y="964" type="line" smooth="yes"/>
      <point x="310" y="933" type="line" smooth="yes"/>
      <point x="277" y="855" type="line" smooth="yes"/>
      <point x="285" y="815" type="line" smooth="yes"/>
      <point x="306" y="784" type="line" smooth="yes"/>
    </contour>
  </outline>
</glyph>
<glyph name="AE" format="1">
  <advance width="870"/>
  <unicode hex="00C6"/>
  <outline>
    <contour>
      <point x="397" y="633" type="line" smooth="yes"/>
      <point x="393" y="298" type="line" smooth="yes"/>
      <point x="244" y="298" type="line" smooth="yes"/>
    </contour>
    <contour>
      <point x="342" y="780" type="line" smooth="yes"/>
      <point x="-38" y="0" type="line" smooth="yes"/>
      <point x="106" y="0" type="line" smooth="yes"/>
      <point x="190" y="182" type="line" smooth="yes"/>
      <point x="392" y="182" type="line" smooth="yes"/>
      <point x="391" y="0" type="line" smooth="yes"/>
      <point x="781" y="0" type="line" smooth="yes"/>
      <point x="796" y="117" type="line" smooth="yes"/>
      <point x="532" y="117" type="line" smooth="yes"/>
      <point x="531" y="340" type="line" smooth="yes"/>
      <point x="775" y="340" type="line" smooth="yes"/>
      <point x="790" y="456" type="line" smooth="yes"/>
      <point x="530" y="456" type="line" smooth="yes"/>
      <point x="528" y="663" type="line" smooth="yes"/>
      <point x="868" y="663" type="line" smooth="yes"/>
      <point x="883" y="780" type="line" smooth="yes"/>
    </contour>
  </outline>
</glyph>
<glyph name="Ccedilla" format="1">
  <advance width="635"/>
  <unicode hex="00C7"/>
  <outline>
    <contour>
      <point x="184" y="408" type="line" smooth="yes"/>
      <point x="241" y="608" type="line" smooth="yes"/>
      <point x="363" y="676" type="line" smooth="yes"/>
      <point x="373" y="676" type="line" smooth="yes"/>
      <point x="468" y="629" type="line" smooth="yes"/>
      <point x="478" y="487" type="line" smooth="yes"/>
      <point x="612" y="487" type="line" smooth="yes"/>
      <point x="615" y="509" type="line" smooth="yes"/>
      <point x="576" y="722" type="line" smooth="yes"/>
      <point x="372" y="793" type="line" smooth="yes"/>
      <point x="154" y="702" type="line" smooth="yes"/>
      <point x="48" y="408" type="line" smooth="yes"/>
      <point x="43" y="370" type="line" smooth="yes"/>
      <point x="67" y="90" type="line" smooth="yes"/>
      <point x="249" y="-11" type="line" smooth="yes"/>
      <point x="216" y="-75" type="line" smooth="yes"/>
      <point x="229" y="-101" type="line" smooth="yes"/>
      <point x="241" y="-99" type="line" smooth="yes"/>
      <point x="267" y="-97" type="line" smooth="yes"/>
      <point x="301" y="-103" type="line" smooth="yes"/>
      <point x="313" y="-121" type="line" smooth="yes"/>
      <point x="301" y="-140" type="line" smooth="yes"/>
      <point x="262" y="-147" type="line" smooth="yes"/>
      <point x="221" y="-143" type="line" smooth="yes"/>
      <point x="190" y="-131" type="line" smooth="yes"/>
      <point x="162" y="-190" type="line" smooth="yes"/>
      <point x="201" y="-207" type="line" smooth="yes"/>
      <point x="261" y="-214" type="line" smooth="yes"/>
      <point x="353" y="-189" type="line" smooth="yes"/>
      <point x="388" y="-120" type="line" smooth="yes"/>
      <point x="361" y="-65" type="line" smooth="yes"/>
      <point x="298" y="-45" type="line" smooth="yes"/>
      <point x="314" y="-12" type="line" smooth="yes"/>
      <point x="504" y="58" type="line" smooth="yes"/>
      <point x="582" y="254" type="line" smooth="yes"/>
      <point x="583" y="263" type="line" smooth="yes"/>
      <point x="448" y="263" type="line" smooth="yes"/>
      <point x="410" y="147" type="line" smooth="yes"/>
      <point x="299" y="104" type="line" smooth="yes"/>
      <point x="289" y="104" type="line" smooth="yes"/>
      <point x="184" y="170" type="line" smooth="yes"/>
      <point x="179" y="370" type="line" smooth="yes"/>
    </contour>
  </outline>
</glyph>
<glyph name="Igrave" format="1">
  <advance width="266"/>
  <unicode hex="00CC"/>
  <outline>
    <contour>
      <point x="253" y="780" type="line" smooth="yes"/>
      <point x="119" y="780" type="line" smooth="yes"/>
      <point x="17" y="0" type="line" smooth="yes"/>
      <point x="151" y="0" type="line" smooth="yes"/>
    </contour>
    <contour>
      <point x="81" y="950" type="line" smooth="yes"/>
      <point x="129" y="840" type="line" smooth="yes"/>
      <point x="259" y="840" type="line" smooth="yes"/>
      <point x="218" y="950" type="line" smooth="yes"/>
    </contour>
  </outline>
</glyph>
<glyph name="Ntilde" format="1">
  <advance width="675"/>
  <unicode hex="00D1"/>
  <outline>
    <contour>
      <point x="114" y="780" type="line" smooth="yes"/>
      <point x="12" y="0" type="line" smooth="yes"/>
      <point x="143" y="0" type="line" smooth="yes"/>
      <point x="191" y="373" type="line" smooth="yes"/>
      <point x="208" y="538" type="line" smooth="yes"/>
      <point x="426" y="0" type="line" smooth="yes"/>
      <point x="565" y="0" type="line" smooth="yes"/>
      <point x="667" y="780" type="line" smooth="yes"/>
      <point x="536" y="780" type="line" smooth="yes"/>
      <point x="488" y="407" type="line" smooth="yes"/>
      <point x="471" y="242" type="line" smooth="yes"/>
      <point x="253" y="780" type="line" smooth="yes"/>
    </contour>
    <contour>
      <point x="514" y="943" type="line" smooth="yes"/>
      <point x="503" y="916" type="line" smooth="yes"/>
      <point x="476" y="907" type="line" smooth="yes"/>
      <point x="416" y="932" type="line" smooth="yes"/>
      <point x="338" y="957" type="line" smooth="yes"/>
      <point x="264" y="932" type="line" smooth="yes"/>
      <point x="226" y="847" type="line" smooth="yes"/>
      <point x="299" y="847" type="line" smooth="yes"/>
      <point x="310" y="874" type="line" smooth="yes"/>
      <point x="337" y="883" type="line" smooth="yes"/>
      <point x="397" y="858" type="line" smooth="yes"/>
      <point x="475" y="833" type="line" smooth="yes"/>
      <point x="549" y="858" type="line" smooth="yes"/>
      <point x="587" y="943" type="line" smooth="yes"/>
    </contour>
  </outline>
</glyph>
<glyph name="Ocircumflex" format="1">
  <advance width="656"/>
  <unicode hex="00D4"/>
  <outline>
    <contour>
      <point x="484" y="372" type="line" smooth="yes"/>
      <point x="425" y="172" type="line" smooth="yes"/>
      <point x="300" y="104" type="line" smooth="yes"/>
      <point x="290" y="104" type="line" smooth="yes"/>
      <point x="185" y="170" type="line" smooth="yes"/>
      <point x="179" y="370" type="line" smooth="yes"/>
      <point x="184" y="408" type="line" smooth="yes"/>
      <point x="243" y="608" type="line" smooth="yes"/>
      <point x="368" y="676" type="line" smooth="yes"/>
      <point x="378" y="676" type="line" smooth="yes"/>
      <point x="483" y="611" type="line" smooth="yes"/>
      <point x="489" y="410" type="line" smooth="yes"/>
    </contour>
    <contour>
      <point x="625" y="410" type="line" smooth="yes"/>
      <point x="592" y="704" type="line" smooth="yes"/>
      <point x="377" y="793" type="line" smooth="yes"/>
      <point x="156" y="702" type="line" smooth="yes"/>
      <point x="48" y="408" type="line" smooth="yes"/>
      <point x="43" y="370" type="line" smooth="yes"/>
      <point x="76" y="76" type="line" smooth="yes"/>
      <point x="291" y="-13" type="line" smooth="yes"/>
      <point x="512" y="78" type="line" smooth="yes"/>
      <point x="620" y="372" type="line" smooth="yes"/>
    </contour>
    <contour>
      <point x="332" y="840" type="line" smooth="yes"/>
      <point x="403" y="892" type="line" smooth="yes"/>
      <point x="460" y="840" type="line" smooth="yes"/>
      <point x="578" y="840" type="line" smooth="yes"/>
      <point x="474" y="950" type="line" smooth="yes"/>
      <point x="344" y="950" type="line" smooth="yes"/>
      <point x="210" y="840" type="line" smooth="yes"/>
    </contour>
  </outline>
</glyph>
<glyph name="Otilde" format="1">
  <advance width="656"/>
  <unicode hex="00D5"/>
  <outline>
    <contour>
      <point x="484" y="372" type="line" smooth="yes"/>
      <point x="425" y="172" type="line" smooth="yes"/>
      <point x="300" y="104" type="line" smooth="yes"/>
      <point x="290" y="104" type="line" smooth="yes"/>
      <point x="185" y="170" type="line" smooth="yes"/>
      <point x="179" y="370" type="line" smooth="yes"/>
      <point x="184" y="408" type="line" smooth="yes"/>
      <point x="243" y="608" type="line" smooth="yes"/>
      <point x="368" y="676" type="line" smooth="yes"/>
      <point x="378" y="676" type="line" smooth="yes"/>
      <point x="483" y="611" type="line" smooth="yes"/>
      <point x="489" y="410" type="line" smooth="yes"/>
    </contour>
    <contour>
      <point x="625" y="410" type="line" smooth="yes"/>
      <point x="592" y="704" type="line" smooth="yes"/>
      <point x="377" y="793" type="line" smooth="yes"/>
      <point x="156" y="702" type="line" smooth="yes"/>
      <point x="48" y="408" type="line" smooth="yes"/>
      <point x="43" y="370" type="line" smooth="yes"/>
      <point x="76" y="76" type="line" smooth="yes"/>
      <point x="291" y="-13" type="line" smooth="yes"/>
      <point x="512" y="78" type="line" smooth="yes"/>
      <point x="620" y="372" type="line" smooth="yes"/>
    </contour>
    <contour>
      <point x="509" y="943" type="line" smooth="yes"/>
      <point x="498" y="916" type="line" smooth="yes"/>
      <point x="471" y="907" type="line" smooth="yes"/>
      <point x="411" y="932" type="line" smooth="yes"/>
      <point x="333" y="957" type="line" smooth="yes"/>
      <point x="259" y="932" type="line" smooth="yes"/>
      <point x="221" y="847" type="line" smooth="yes"/>
      <point x="294" y="847" type="line" smooth="yes"/>
      <point x="305" y="874" type="line" smooth="yes"/>
      <point x="332" y="883" type="line" smooth="yes"/>
      <point x="392" y="858" type="line" smooth="yes"/>
      <point x="470" y="833" type="line" smooth="yes"/>
      <point x="544" y="858" type="line" smooth="yes"/>
      <point x="582" y="943" type="line" smooth="yes"/>
    </contour>
  </outline>
</glyph>
<glyph name="Odieresis" format="1">
  <advance width="656"/>
  <unicode hex="00D6"/>
  <outline>
    <contour>
      <point x="484" y="372" type="line" smooth="yes"/>
      <point x="425" y="172" type="line" smooth="yes"/>
      <point x="300" y="104" type="line" smooth="yes"/>
      <point x="290" y="104" type="line" smooth="yes"/>
      <point x="185" y="170" type="line" smooth="yes"/>
      <point x="179" y="370" type="line" smooth="yes"/>
      <point x="184" y="408" type="line" smooth="yes"/>
      <point x="243" y="608" type="line" smooth="yes"/>
      <point x="368" y="676" type="line" smooth="yes"/>
      <point x="378" y="676" type="line" smooth="yes"/>
      <point x="483" y="611" type="line" smooth="yes"/>
      <point x="489" y="410" type="line" smooth="yes"/>
    </contour>
    <contour>
      <point x="625" y="410" type="line" smooth="yes"/>
      <point x="592" y="704" type="line" smooth="yes"/>
      <point x="377" y="793" type="line" smooth="yes"/>
      <point x="156" y="702" type="line" smooth="yes"/>
      <point x="48" y="408" type="line" smooth="yes"/>
      <point x="43" y="370" type="line" smooth="yes"/>
      <point x="76" y="76" type="line" smooth="yes"/>
      <point x="291" y="-13" type="line" smooth="yes"/>
      <point x="512" y="78" type="line" smooth="yes"/>
      <point x="620" y="372" type="line" smooth="yes"/>
    </contour>
    <contour>
      <point x="550" y="941" type="line" smooth="yes"/>
      <point x="434" y="941" type="line" smooth="yes"/>
      <point x="422" y="849" type="line" smooth="yes"/>
      <point x="538" y="849" type="line" smooth="yes"/>
    </contour>
    <contour>
      <point x="380" y="941" type="line" smooth="yes"/>
      <point x="264" y="941" type="line" smooth="yes"/>
      <point x="252" y="849" type="line" smooth="yes"/>
      <point x="368" y="849" type="line" smooth="yes"/>
    </contour>
  </outline>
</glyph>
<glyph name="Oslash" format="1">
  <advance width="660"/>
  <unicode hex="00D8"/>
  <outline>
    <contour>
      <point x="172" y="236" type="line" smooth="yes"/>
      <point x="172" y="296" type="line" smooth="yes"/>
      <point x="179" y="370" type="line" smooth="yes"/>
      <point x="184" y="408" type="line" smooth="yes"/>
      <point x="243" y="608" type="line" smooth="yes"/>
      <point x="368" y="676" type="line" smooth="yes"/>
      <point x="378" y="676" type="line" smooth="yes"/>
      <point x="434" y="665" type="line" smooth="yes"/>
      <point x="472" y="633" type="line" smooth="yes"/>
    </contour>
    <contour>
      <point x="496" y="544" type="line" smooth="yes"/>
      <point x="496" y="484" type="line" smooth="yes"/>
      <point x="489" y="410" type="line" smooth="yes"/>
      <point x="484" y="372" type="line" smooth="yes"/>
      <point x="425" y="172" type="line" smooth="yes"/>
      <point x="300" y="104" type="line" smooth="yes"/>
      <point x="290" y="104" type="line" smooth="yes"/>
      <point x="234" y="115" type="line" smooth="yes"/>
      <point x="196" y="147" type="line" smooth="yes"/>
    </contour>
    <contour>
      <point x="625" y="410" type="line" smooth="yes"/>
      <point x="632" y="572" type="line" smooth="yes"/>
      <point x="602" y="685" type="line" smooth="yes"/>
      <point x="674" y="780" type="line" smooth="yes"/>
      <point x="583" y="780" type="line" smooth="yes"/>
      <point x="556" y="744" type="line" smooth="yes"/>
      <point x="480" y="781" type="line" smooth="yes"/>
      <point x="377" y="793" type="line" smooth="yes"/>
      <point x="156" y="702" type="line" smooth="yes"/>
      <point x="48" y="408" type="line" smooth="yes"/>
      <point x="43" y="370" type="line" smooth="yes"/>
      <point x="36" y="208" type="line" smooth="yes"/>
      <point x="66" y="95" type="line" smooth="yes"/>
      <point x="-6" y="0" type="line" smooth="yes"/>
      <point x="85" y="0" type="line" smooth="yes"/>
      <point x="112" y="36" type="line" smooth="yes"/>
      <point x="188" y="-1" type="line" smooth="yes"/>
      <point x="291" y="-13" type="line" smooth="yes"/>
      <point x="512" y="78" type="line" smooth="yes"/>
      <point x="620" y="372" type="line" smooth="yes"/>
    </contour>
  </outline>
</glyph>
<glyph name="Ucircumflex" format="1">
  <advance width="655"/>
  <unicode hex="00DB"/>
  <outline>
    <contour>
      <point x="287" y="-13" type="line" smooth="yes"/>
      <point x="497" y="47" type="line" smooth="yes"/>
      <point x="581" y="237" type="line" smooth="yes"/>
      <point x="652" y="780" type="line" smooth="yes"/>
      <point x="518" y="780" type="line" smooth="yes"/>
      <point x="448" y="247" type="line" smooth="yes"/>
      <point x="400" y="138" type="line" smooth="yes"/>
      <point x="287" y="104" type="line" smooth="yes"/>
      <point x="188" y="141" type="line" smooth="yes"/>
      <point x="174" y="254" type="line" smooth="yes"/>
      <point x="243" y="780" type="line" smooth="yes"/>
      <point x="109" y="780" type="line" smooth="yes"/>
      <point x="39" y="245" type="line" smooth="yes"/>
      <point x="81" y="52" type="line" smooth="yes"/>
    </contour>
    <contour>
      <point x="327" y="840" type="line" smooth="yes"/>
      <point x="398" y="892" type="line" smooth="yes"/>
      <point x="455" y="840" type="line" smooth="yes"/>
      <point x="573" y="840" type="line" smooth="yes"/>
      <point x="469" y="950" type="line" smooth="yes"/>
      <point x="339" y="950" type="line" smooth="yes"/>
      <point x="205" y="840" type="line" smooth="yes"/>
    </contour>
  </outline>
</glyph>
<glyph name="Thorn" format="1">
  <advance width="595"/>
  <unicode hex="00DE"/>
  <outline>
    <contour>
      <point x="146" y="0" type="line" smooth="yes"/>
      <point x="165" y="146" type="line" smooth="yes"/>
      <point x="280" y="146" type="line" smooth="yes"/>
      <point x="460" y="190" type="line" smooth="yes"/>
      <point x="567" y="380" type="line" smooth="yes"/>
      <point x="570" y="402" type="line" smooth="yes"/>
      <point x="506" y="587" type="line" smooth="yes"/>
      <point x="331" y="635" type="line" smooth="yes"/>
      <point x="229" y="635" type="line" smooth="yes"/>
      <point x="248" y="780" type="line" smooth="yes"/>
      <point x="114" y="780" type="line" smooth="yes"/>
      <point x="12" y="0" type="line" smooth="yes"/>
    </contour>
    <contour>
      <point x="180" y="263" type="line" smooth="yes"/>
      <point x="214" y="518" type="line" smooth="yes"/>
      <point x="328" y="518" type="line" smooth="yes"/>
      <point x="409" y="495" type="line" smooth="yes"/>
      <point x="433" y="395" type="line" smooth="yes"/>
      <point x="432" y="387" type="line" smooth="yes"/>
      <point x="388" y="289" type="line" smooth="yes"/>
      <point x="297" y="263" type="line" smooth="yes"/>
    </contour>
  </outline>
</glyph>
<glyph name="germandbls" format="1">
  <advance width="611"/>
  <unicode hex="00DF"/>
  <outline>
    <contour>
      <point x="274" y="346" type="line" smooth="yes"/>
      <point x="353" y="286" type="line" smooth="yes"/>
      <point x="412" y="226" type="line" smooth="yes"/>
      <point x="432" y="171" type="line" smooth="yes"/>
      <point x="420" y="111" type="line" smooth="yes"/>
      <point x="375" y="88" type="line" smooth="yes"/>
      <point x="330" y="111" type="line" smooth="yes"/>
      <point x="320" y="166" type="line" smooth="yes"/>
      <point x="201" y="166" type="line" smooth="yes"/>
      <point x="200" y="157" type="line" smooth="yes"/>
      <point x="224" y="39" type="line" smooth="yes"/>
      <point x="370" y="-13" type="line" smooth="yes"/>
      <point x="508" y="40" type="line" smooth="yes"/>
      <point x="562" y="159" type="line" smooth="yes"/>
      <point x="563" y="168" type="line" smooth="yes"/>
      <point x="537" y="280" type="line" smooth="yes"/>
      <point x="446" y="375" type="line" smooth="yes"/>
      <point x="417" y="397" type="line" smooth="yes"/>
      <point x="509" y="473" type="line" smooth="yes"/>
      <point x="552" y="588" type="line" smooth="yes"/>
      <point x="553" y="597" type="line" smooth="yes"/>
      <point x="509" y="748" type="line" smooth="yes"/>
      <point x="330" y="813" type="line" smooth="yes"/>
      <point x="153" y="751" type="line" smooth="yes"/>
      <point x="83" y="598" type="line" smooth="yes"/>
      <point x="5" y="0" type="line" smooth="yes"/>
      <point x="135" y="0" type="line" smooth="yes"/>
      <point x="212" y="591" type="line" smooth="yes"/>
      <point x="246" y="667" type="line" smooth="yes"/>
      <point x="330" y="699" type="line" smooth="yes"/>
      <point x="399" y="673" type="line" smooth="yes"/>
      <point x="423" y="608" type="line" smooth="yes"/>
      <point x="387" y="505" type="line" smooth="yes"/>
      <point x="285" y="428" type="line" smooth="yes"/>
    </contour>
  </outline>
</glyph>
<glyph name="agrave" format="1">
  <advance width="535"/>
  <unicode hex="00E0"/>
  <outline>
    <contour>
      <point x="201" y="94" type="line" smooth="yes"/>
      <point x="149" y="114" type="line" smooth="yes"/>
      <point x="136" y="159" type="line" smooth="yes"/>
      <point x="137" y="168" type="line" smooth="yes"/>
      <point x="163" y="215" type="line" smooth="yes"/>
      <point x="221" y="237" type="line" smooth="yes"/>
      <point x="338" y="255" type="line" smooth="yes"/>
      <point x="324" y="152" type="line" smooth="yes"/>
      <point x="279" y="114" type="line" smooth="yes"/>
    </contour>
    <contour>
      <point x="329" y="0" type="line" smooth="yes"/>
      <point x="444" y="0" type="line" smooth="yes"/>
      <point x="454" y="150" type="line" smooth="yes"/>
      <point x="479" y="342" type="line" smooth="yes"/>
      <point x="445" y="488" type="line" smooth="yes"/>
      <point x="275" y="543" type="line" smooth="yes"/>
      <point x="107" y="490" type="line" smooth="yes"/>
      <point x="52" y="364" type="line" smooth="yes"/>
      <point x="51" y="355" type="line" smooth="yes"/>
      <point x="175" y="355" type="line" smooth="yes"/>
      <point x="200" y="416" type="line" smooth="yes"/>
      <point x="273" y="442" type="line" smooth="yes"/>
      <point x="341" y="421" type="line" smooth="yes"/>
      <point x="351" y="353" type="line" smooth="yes"/>
      <point x="350" y="345" type="line" smooth="yes"/>
      <point x="207" y="323" type="line" smooth="yes"/>
      <point x="69" y="276" type="line" smooth="yes"/>
      <point x="6" y="156" type="line" smooth="yes"/>
      <point x="5" y="147" type="line" smooth="yes"/>
      <point x="35" y="35" type="line" smooth="yes"/>
      <point x="156" y="-13" type="line" smooth="yes"/>
      <point x="262" y="8" type="line" smooth="yes"/>
      <point x="329" y="61" type="line" smooth="yes"/>
    </contour>
    <contour>
      <point x="154" y="780" type="line" smooth="yes"/>
      <point x="234" y="601" type="line" smooth="yes"/>
      <point x="364" y="601" type="line" smooth="yes"/>
      <point x="296" y="780" type="line" smooth="yes"/>
    </contour>
  </outline>
</glyph>
<glyph name="atilde" format="1">
  <advance width="538"/>
  <unicode hex="00E3"/>
  <outline>
    <contour>
      <point x="201" y="94" type="line" smooth="yes"/>
      <point x="149" y="114" type="line" smooth="yes"/>
      <point x="136" y="159" type="line" smooth="yes"/>
      <point x="137" y="168" type="line" smooth="yes"/>
      <point x="163" y="215" type="line" smooth="yes"/>
      <point x="221" y="237" type="line" smooth="yes"/>
      <point x="338" y="255" type="line" smooth="yes"/>
      <point x="324" y="152" type="line" smooth="yes"/>
      <point x="279" y="114" type="line" smooth="yes"/>
    </contour>
    <contour>
      <point x="329" y="0" type="line" smooth="yes"/>
      <point x="444" y="0" type="line" smooth="yes"/>
      <point x="454" y="150" type="line" smooth="yes"/>
      <point x="479" y="342" type="line" smooth="yes"/>
      <point x="445" y="488" type="line" smooth="yes"/>
      <point x="275" y="543" type="line" smooth="yes"/>
      <point x="107" y="490" type="line" smooth="yes"/>
      <point x="52" y="364" type="line" smooth="yes"/>
      <point x="51" y="355" type="line" smooth="yes"/>
      <point x="175" y="355" type="line" smooth="yes"/>
      <point x="200" y="416" type="line" smooth="yes"/>
      <point x="273" y="442" type="line" smooth="yes"/>
      <point x="341" y="421" type="line" smooth="yes"/>
      <point x="351" y="353" type="line" smooth="yes"/>
      <point x="350" y="345" type="line" smooth="yes"/>
      <point x="207" y="323" type="line" smooth="yes"/>
      <point x="69" y="276" type="line" smooth="yes"/>
      <point x="6" y="156" type="line" smooth="yes"/>
      <point x="5" y="147" type="line" smooth="yes"/>
      <point x="35" y="35" type="line" smooth="yes"/>
      <point x="156" y="-13" type="line" smooth="yes"/>
      <point x="262" y="8" type="line" smooth="yes"/>
      <point x="329" y="61" type="line" smooth="yes"/>
    </contour>
    <contour>
      <point x="380" y="725" type="line" smooth="yes"/>
      <point x="317" y="752" type="line" smooth="yes"/>
      <point x="239" y="778" type="line" smooth="yes"/>
      <point x="157" y="744" type="line" smooth="yes"/>
      <point x="116" y="636" type="line" smooth="yes"/>
      <point x="205" y="636" type="line" smooth="yes"/>
      <point x="218" y="666" type="line" smooth="yes"/>
      <point x="243" y="675" type="line" smooth="yes"/>
      <point x="306" y="649" type="line" smooth="yes"/>
      <point x="384" y="622" type="line" smooth="yes"/>
      <point x="466" y="656" type="line" smooth="yes"/>
      <point x="507" y="764" type="line" smooth="yes"/>
      <point x="418" y="764" type="line" smooth="yes"/>
      <point x="405" y="734" type="line" smooth="yes"/>
    </contour>
  </outline>
</glyph>
<glyph name="ae" format="1">
  <advance width="859"/>
  <unicode hex="00E6"/>
  <outline>
    <contour>
      <point x="598" y="442" type="line" smooth="yes"/>
      <point x="677" y="407" type="line" smooth="yes"/>
      <point x="695" y="313" type="line" smooth="yes"/>
      <point x="473" y="313" type="line" smooth="yes"/>
      <point x="516" y="408" type="line" smooth="yes"/>
    </contour>
    <contour>
      <point x="201" y="94" type="line" smooth="yes"/>
      <point x="149" y="114" type="line" smooth="yes"/>
      <point x="136" y="159" type="line" smooth="yes"/>
      <point x="137" y="168" type="line" smooth="yes"/>
      <point x="163" y="215" type="line" smooth="yes"/>
      <point x="221" y="237" type="line" smooth="yes"/>
      <point x="338" y="255" type="line" smooth="yes"/>
      <point x="334" y="206" type="line" smooth="yes"/>
      <point x="338" y="160" type="line" smooth="yes"/>
      <point x="283" y="117" type="line" smooth="yes"/>
    </contour>
    <contour>
      <point x="812" y="217" type="line" smooth="yes"/>
      <point x="819" y="267" type="line" smooth="yes"/>
      <point x="783" y="465" type="line" smooth="yes"/>
      <point x="603" y="543" type="line" smooth="yes"/>
      <point x="508" y="525" type="line" smooth="yes"/>
      <point x="442" y="476" type="line" smooth="yes"/>
      <point x="383" y="526" type="line" smooth="yes"/>
      <point x="275" y="543" type="line" smooth="yes"/>
      <point x="107" y="490" type="line" smooth="yes"/>
      <point x="52" y="364" type="line" smooth="yes"/>
      <point x="51" y="355" type="line" smooth="yes"/>
      <point x="175" y="355" type="line" smooth="yes"/>
      <point x="200" y="416" type="line" smooth="yes"/>
      <point x="273" y="442" type="line" smooth="yes"/>
      <point x="341" y="421" type="line" smooth="yes"/>
      <point x="351" y="353" type="line" smooth="yes"/>
      <point x="350" y="345" type="line" smooth="yes"/>
      <point x="207" y="323" type="line" smooth="yes"/>
      <point x="69" y="276" type="line" smooth="yes"/>
      <point x="6" y="156" type="line" smooth="yes"/>
      <point x="5" y="147" type="line" smooth="yes"/>
      <point x="35" y="35" type="line" smooth="yes"/>
      <point x="156" y="-13" type="line" smooth="yes"/>
      <point x="282" y="14" type="line" smooth="yes"/>
      <point x="372" y="72" type="line" smooth="yes"/>
      <point x="447" y="10" type="line" smooth="yes"/>
      <point x="567" y="-13" type="line" smooth="yes"/>
      <point x="737" y="38" type="line" smooth="yes"/>
      <point x="805" y="161" type="line" smooth="yes"/>
      <point x="806" y="170" type="line" smooth="yes"/>
      <point x="683" y="170" type="line" smooth="yes"/>
      <point x="652" y="114" type="line" smooth="yes"/>
      <point x="570" y="88" type="line" smooth="yes"/>
      <point x="485" y="120" type="line" smooth="yes"/>
      <point x="461" y="217" type="line" smooth="yes"/>
    </contour>
  </outline>
</glyph>
<glyph name="ccedilla" format="1">
  <advance width="523"/>
  <unicode hex="00E7"/>
  <outline>
    <contour>
      <point x="153" y="278" type="line" smooth="yes"/>
      <point x="195" y="392" type="line" smooth="yes"/>
      <point x="275" y="430" type="line" smooth="yes"/>
      <point x="346" y="401" type="line" smooth="yes"/>
      <point x="361" y="328" type="line" smooth="yes"/>
      <point x="484" y="328" type="line" smooth="yes"/>
      <point x="487" y="350" type="line" smooth="yes"/>
      <point x="445" y="488" type="line" smooth="yes"/>
      <point x="278" y="543" type="line" smooth="yes"/>
      <point x="98" y="467" type="line" smooth="yes"/>
      <point x="24" y="277" type="line" smooth="yes"/>
      <point x="21" y="255" type="line" smooth="yes"/>
      <point x="49" y="80" type="line" smooth="yes"/>
      <point x="186" y="-9" type="line" smooth="yes"/>
      <point x="152" y="-75" type="line" smooth="yes"/>
      <point x="165" y="-101" type="line" smooth="yes"/>
      <point x="177" y="-99" type="line" smooth="yes"/>
      <point x="203" y="-97" type="line" smooth="yes"/>
      <point x="237" y="-103" type="line" smooth="yes"/>
      <point x="249" y="-121" type="line" smooth="yes"/>
      <point x="237" y="-140" type="line" smooth="yes"/>
      <point x="198" y="-147" type="line" smooth="yes"/>
      <point x="157" y="-143" type="line" smooth="yes"/>
      <point x="126" y="-131" type="line" smooth="yes"/>
      <point x="98" y="-190" type="line" smooth="yes"/>
      <point x="137" y="-207" type="line" smooth="yes"/>
      <point x="197" y="-214" type="line" smooth="yes"/>
      <point x="289" y="-189" type="line" smooth="yes"/>
      <point x="324" y="-120" type="line" smooth="yes"/>
      <point x="297" y="-65" type="line" smooth="yes"/>
      <point x="234" y="-45" type="line" smooth="yes"/>
      <point x="250" y="-12" type="line" smooth="yes"/>
      <point x="405" y="49" type="line" smooth="yes"/>
      <point x="465" y="184" type="line" smooth="yes"/>
      <point x="466" y="193" type="line" smooth="yes"/>
      <point x="343" y="193" type="line" smooth="yes"/>
      <point x="312" y="126" type="line" smooth="yes"/>
      <point x="236" y="100" type="line" smooth="yes"/>
      <point x="162" y="142" type="line" smooth="yes"/>
      <point x="150" y="256" type="line" smooth="yes"/>
    </contour>
  </outline>
</glyph>
<glyph name="ecircumflex" format="1">
  <advance width="551"/>
  <unicode hex="00EA"/>
  <outline>
    <contour>
      <point x="281" y="442" type="line" smooth="yes"/>
      <point x="360" y="407" type="line" smooth="yes"/>
      <point x="378" y="313" type="line" smooth="yes"/>
      <point x="156" y="313" type="line" smooth="yes"/>
      <point x="199" y="408" type="line" smooth="yes"/>
    </contour>
    <contour>
      <point x="495" y="217" type="line" smooth="yes"/>
      <point x="502" y="267" type="line" smooth="yes"/>
      <point x="466" y="465" type="line" smooth="yes"/>
      <point x="286" y="543" type="line" smooth="yes"/>
      <point x="102" y="466" type="line" smooth="yes"/>
      <point x="24" y="277" type="line" smooth="yes"/>
      <point x="21" y="255" type="line" smooth="yes"/>
      <point x="60" y="65" type="line" smooth="yes"/>
      <point x="250" y="-13" type="line" smooth="yes"/>
      <point x="420" y="38" type="line" smooth="yes"/>
      <point x="488" y="161" type="line" smooth="yes"/>
      <point x="489" y="170" type="line" smooth="yes"/>
      <point x="366" y="170" type="line" smooth="yes"/>
      <point x="335" y="114" type="line" smooth="yes"/>
      <point x="253" y="88" type="line" smooth="yes"/>
      <point x="168" y="120" type="line" smooth="yes"/>
      <point x="144" y="217" type="line" smooth="yes"/>
    </contour>
    <contour>
      <point x="504" y="601" type="line" smooth="yes"/>
      <point x="394" y="780" type="line" smooth="yes"/>
      <point x="270" y="780" type="line" smooth="yes"/>
      <point x="114" y="601" type="line" smooth="yes"/>
      <point x="234" y="601" type="line" smooth="yes"/>
      <point x="324" y="693" type="line" smooth="yes"/>
      <point x="390" y="601" type="line" smooth="yes"/>
    </contour>
  </outline>
</glyph>
<glyph name="eth" format="1">
  <advance width="544"/>
  <unicode hex="00F0"/>
  <outline>
    <contour>
      <point x="243" y="100" type="line" smooth="yes"/>
      <point x="163" y="142" type="line" smooth="yes"/>
      <point x="150" y="256" type="line" smooth="yes"/>
      <point x="153" y="278" type="line" smooth="yes"/>
      <point x="196" y="392" type="line" smooth="yes"/>
      <point x="282" y="430" type="line" smooth="yes"/>
      <point x="362" y="388" type="line" smooth="yes"/>
      <point x="375" y="274" type="line" smooth="yes"/>
      <point x="372" y="252" type="line" smooth="yes"/>
      <point x="329" y="138" type="line" smooth="yes"/>
    </contour>
    <contour>
      <point x="79" y="697" type="line" smooth="yes"/>
      <point x="145" y="687" type="line" smooth="yes"/>
      <point x="205" y="670" type="line" smooth="yes"/>
      <point x="100" y="615" type="line" smooth="yes"/>
      <point x="89" y="536" type="line" smooth="yes"/>
      <point x="276" y="634" type="line" smooth="yes"/>
      <point x="330" y="586" type="line" smooth="yes"/>
      <point x="366" y="526" type="line" smooth="yes"/>
      <point x="328" y="539" type="line" smooth="yes"/>
      <point x="285" y="543" type="line" smooth="yes"/>
      <point x="99" y="467" type="line" smooth="yes"/>
      <point x="24" y="277" type="line" smooth="yes"/>
      <point x="21" y="255" type="line" smooth="yes"/>
      <point x="60" y="65" type="line" smooth="yes"/>
      <point x="240" y="-13" type="line" smooth="yes"/>
      <point x="426" y="63" type="line" smooth="yes"/>
      <point x="501" y="253" type="line" smooth="yes"/>
      <point x="504" y="275" type="line" smooth="yes"/>
      <point x="504" y="506" type="line" smooth="yes"/>
      <point x="406" y="702" type="line" smooth="yes"/>
      <point x="467" y="734" type="line" smooth="yes"/>
      <point x="478" y="813" type="line" smooth="yes"/>
      <point x="350" y="746" type="line" smooth="yes"/>
      <point x="231" y="793" type="line" smooth="yes"/>
      <point x="94" y="813" type="line" smooth="yes"/>
    </contour>
  </outline>
</glyph>
<glyph name="ntilde" format="1">
  <advance width="563"/>
  <unicode hex="00F1"/>
  <outline>
    <contour>
      <point x="462" y="0" type="line" smooth="yes"/>
      <point x="509" y="359" type="line" smooth="yes"/>
      <point x="484" y="491" type="line" smooth="yes"/>
      <point x="358" y="543" type="line" smooth="yes"/>
      <point x="255" y="520" type="line" smooth="yes"/>
      <point x="184" y="461" type="line" smooth="yes"/>
      <point x="184" y="530" type="line" smooth="yes"/>
      <point x="69" y="530" type="line" smooth="yes"/>
      <point x="59" y="380" type="line" smooth="yes"/>
      <point x="9" y="0" type="line" smooth="yes"/>
      <point x="139" y="0" type="line" smooth="yes"/>
      <point x="187" y="367" type="line" smooth="yes"/>
      <point x="227" y="408" type="line" smooth="yes"/>
      <point x="300" y="430" type="line" smooth="yes"/>
      <point x="363" y="406" type="line" smooth="yes"/>
      <point x="377" y="342" type="line" smooth="yes"/>
      <point x="332" y="0" type="line" smooth="yes"/>
    </contour>
    <contour>
      <point x="396" y="725" type="line" smooth="yes"/>
      <point x="333" y="752" type="line" smooth="yes"/>
      <point x="255" y="778" type="line" smooth="yes"/>
      <point x="173" y="744" type="line" smooth="yes"/>
      <point x="132" y="636" type="line" smooth="yes"/>
      <point x="221" y="636" type="line" smooth="yes"/>
      <point x="234" y="666" type="line" smooth="yes"/>
      <point x="259" y="675" type="line" smooth="yes"/>
      <point x="322" y="649" type="line" smooth="yes"/>
      <point x="400" y="622" type="line" smooth="yes"/>
      <point x="482" y="656" type="line" smooth="yes"/>
      <point x="523" y="764" type="line" smooth="yes"/>
      <point x="434" y="764" type="line" smooth="yes"/>
      <point x="421" y="734" type="line" smooth="yes"/>
    </contour>
  </outline>
</glyph>
<glyph name="ograve" format="1">
  <advance width="549"/>
  <unicode hex="00F2"/>
  <outline>
    <contour>
      <point x="240" y="-13" type="line" smooth="yes"/>
      <point x="426" y="63" type="line" smooth="yes"/>
      <point x="501" y="253" type="line" smooth="yes"/>
      <point x="504" y="275" type="line" smooth="yes"/>
      <point x="465" y="465" type="line" smooth="yes"/>
      <point x="285" y="543" type="line" smooth="yes"/>
      <point x="99" y="467" type="line" smooth="yes"/>
      <point x="24" y="277" type="line" smooth="yes"/>
      <point x="21" y="255" type="line" smooth="yes"/>
      <point x="60" y="65" type="line" smooth="yes"/>
    </contour>
    <contour>
      <point x="243" y="100" type="line" smooth="yes"/>
      <point x="163" y="142" type="line" smooth="yes"/>
      <point x="150" y="256" type="line" smooth="yes"/>
      <point x="153" y="278" type="line" smooth="yes"/>
      <point x="196" y="392" type="line" smooth="yes"/>
      <point x="282" y="430" type="line" smooth="yes"/>
      <point x="362" y="388" type="line" smooth="yes"/>
      <point x="375" y="274" type="line" smooth="yes"/>
      <point x="372" y="252" type="line" smooth="yes"/>
      <point x="329" y="138" type="line" smooth="yes"/>
    </contour>
    <contour>
      <point x="161" y="780" type="line" smooth="yes"/>
      <point x="241" y="601" type="line" smooth="yes"/>
      <point x="371" y="601" type="line" smooth="yes"/>
      <point x="303" y="780" type="line" smooth="yes"/>
    </contour>
  </outline>
</glyph>
<glyph name="otilde" format="1">
  <advance width="553"/>
  <unicode hex="00F5"/>
  <outline>
    <contour>
      <point x="240" y="-13" type="line" smooth="yes"/>
      <point x="426" y="63" type="line" smooth="yes"/>
      <point x="501" y="253" type="line" smooth="yes"/>
      <point x="504" y="275" type="line" smooth="yes"/>
      <point x="465" y="465" type="line" smooth="yes"/>
      <point x="285" y="543" type="line" smooth="yes"/>
      <point x="99" y="467" type="line" smooth="yes"/>
      <point x="24" y="277" type="line" smooth="yes"/>
      <point x="21" y="255" type="line" smooth="yes"/>
      <point x="60" y="65" type="line" smooth="yes"/>
    </contour>
    <contour>
      <point x="243" y="100" type="line" smooth="yes"/>
      <point x="163" y="142" type="line" smooth="yes"/>
      <point x="150" y="256" type="line" smooth="yes"/>
      <point x="153" y="278" type="line" smooth="yes"/>
      <point x="196" y="392" type="line" smooth="yes"/>
      <point x="282" y="430" type="line" smooth="yes"/>
      <point x="362" y="388" type="line" smooth="yes"/>
      <point x="375" y="274" type="line" smooth="yes"/>
      <point x="372" y="252" type="line" smooth="yes"/>
      <point x="329" y="138" type="line" smooth="yes"/>
    </contour>
    <contour>
      <point x="387" y="725" type="line" smooth="yes"/>
      <point x="324" y="752" type="line" smooth="yes"/>
      <point x="246" y="778" type="line" smooth="yes"/>
      <point x="164" y="744" type="line" smooth="yes"/>
      <point x="123" y="636" type="line" smooth="yes"/>
      <point x="212" y="636" type="line" smooth="yes"/>
      <point x="225" y="666" type="line" smooth="yes"/>
      <point x="250" y="675" type="line" smooth="yes"/>
      <point x="313" y="649" type="line" smooth="yes"/>
      <point x="391" y="622" type="line" smooth="yes"/>
      <point x="473" y="656" type="line" smooth="yes"/>
      <point x="514" y="764" type="line" smooth="yes"/>
      <point x="425" y="764" type="line" smooth="yes"/>
      <point x="412" y="734" type="line" smooth="yes"/>
    </contour>
  </outline>
</glyph>
<glyph name="oslash" format="1">
  <advance width="553"/>
  <unicode hex="00F8"/>
  <outline>
    <contour>
      <point x="150" y="256" type="line" smooth="yes"/>
      <point x="153" y="278" type="line" smooth="yes"/>
      <point x="196" y="392" type="line" smooth="yes"/>
      <point x="282" y="430" type="line" smooth="yes"/>
      <point x="319" y="424" type="line" smooth="yes"/>
      <point x="346" y="407" type="line" smooth="yes"/>
      <point x="149" y="184" type="line" smooth="yes"/>
      <point x="147" y="218" type="line" smooth="yes"/>
    </contour>
    <contour>
      <point x="243" y="100" type="line" smooth="yes"/>
      <point x="206" y="106" type="line" smooth="yes"/>
      <point x="178" y="122" type="line" smooth="yes"/>
      <point x="375" y="346" type="line" smooth="yes"/>
      <point x="377" y="312" type="line" smooth="yes"/>
      <point x="375" y="274" type="line" smooth="yes"/>
      <point x="372" y="252" type="line" smooth="yes"/>
      <point x="329" y="138" type="line" smooth="yes"/>
    </contour>
    <contour>
      <point x="71" y="0" type="line" smooth="yes"/>
      <point x="96" y="28" type="line" smooth="yes"/>
      <point x="158" y="-2" type="line" smooth="yes"/>
      <point x="240" y="-13" type="line" smooth="yes"/>
      <point x="426" y="63" type="line" smooth="yes"/>
      <point x="501" y="253" type="line" smooth="yes"/>
      <point x="504" y="275" type="line" smooth="yes"/>
      <point x="503" y="374" type="line" smooth="yes"/>
      <point x="472" y="455" type="line" smooth="yes"/>
      <point x="538" y="530" type="line" smooth="yes"/>
      <point x="454" y="530" type="line" smooth="yes"/>
      <point x="429" y="501" type="line" smooth="yes"/>
      <point x="366" y="532" type="line" smooth="yes"/>
      <point x="285" y="543" type="line" smooth="yes"/>
      <point x="99" y="467" type="line" smooth="yes"/>
      <point x="24" y="277" type="line" smooth="yes"/>
      <point x="21" y="255" type="line" smooth="yes"/>
      <point x="22" y="156" type="line" smooth="yes"/>
      <point x="53" y="75" type="line" smooth="yes"/>
      <point x="-13" y="0" type="line" smooth="yes"/>
    </contour>
  </outline>
</glyph>
<glyph name="ugrave" format="1">
  <advance width="563"/>
  <unicode hex="00F9"/>
  <outline>
    <contour>
      <point x="73" y="530" type="line" smooth="yes"/>
      <point x="26" y="171" type="line" smooth="yes"/>
      <point x="51" y="39" type="line" smooth="yes"/>
      <point x="177" y="-13" type="line" smooth="yes"/>
      <point x="280" y="10" type="line" smooth="yes"/>
      <point x="351" y="69" type="line" smooth="yes"/>
      <point x="351" y="0" type="line" smooth="yes"/>
      <point x="466" y="0" type="line" smooth="yes"/>
      <point x="476" y="150" type="line" smooth="yes"/>
      <point x="526" y="530" type="line" smooth="yes"/>
      <point x="396" y="530" type="line" smooth="yes"/>
      <point x="348" y="163" type="line" smooth="yes"/>
      <point x="308" y="123" type="line" smooth="yes"/>
      <point x="235" y="100" type="line" smooth="yes"/>
      <point x="172" y="124" type="line" smooth="yes"/>
      <point x="158" y="188" type="line" smooth="yes"/>
      <point x="203" y="530" type="line" smooth="yes"/>
    </contour>
    <contour>
      <point x="163" y="780" type="line" smooth="yes"/>
      <point x="243" y="601" type="line" smooth="yes"/>
      <point x="373" y="601" type="line" smooth="yes"/>
      <point x="305" y="780" type="line" smooth="yes"/>
    </contour>
  </outline>
</glyph>
<glyph name="ydieresis" format="1">
  <advance width="530"/>
  <unicode hex="00FF"/>
  <outline>
    <contour>
      <point x="238" y="162" type="line" smooth="yes"/>
      <point x="169" y="530" type="line" smooth="yes"/>
      <point x="31" y="530" type="line" smooth="yes"/>
      <point x="157" y="20" type="line" smooth="yes"/>
      <point x="38" y="-200" type="line" smooth="yes"/>
      <point x="192" y="-200" type="line" smooth="yes"/>
      <point x="290" y="20" type="line" smooth="yes"/>
      <point x="545" y="530" type="line" smooth="yes"/>
      <point x="402" y="530" type="line" smooth="yes"/>
    </contour>
    <contour>
      <point x="490" y="763" type="line" smooth="yes"/>
      <point x="348" y="763" type="line" smooth="yes"/>
      <point x="329" y="622" type="line" smooth="yes"/>
      <point x="471" y="622" type="line" smooth="yes"/>
    </contour>
    <contour>
      <point x="290" y="763" type="line" smooth="yes"/>
      <point x="148" y="763" type="line" smooth="yes"/>
      <point x="129" y="622" type="line" smooth="yes"/>
      <point x="271" y="622" type="line" smooth="yes"/>
    </contour>
  </outline>
</glyph>
<glyph name="Abreve" format="1">
  <advance width="631"/>
  <unicode hex="0102"/>
  <outline>
    <contour>
      <point x="352" y="631" type="line" smooth="yes"/>
      <point x="393" y="295" type="line" smooth="yes"/>
      <point x="222" y="295" type="line" smooth="yes"/>
    </contour>
    <contour>
      <point x="277" y="784" type="line" smooth="yes"/>
      <point x="-31" y="0" type="line" smooth="yes"/>
      <point x="116" y="0" type="line" smooth="yes"/>
      <point x="182" y="178" type="line" smooth="yes"/>
      <point x="402" y="178" type="line" smooth="yes"/>
      <point x="423" y="0" type="line" smooth="yes"/>
      <point x="564" y="0" type="line" smooth="yes"/>
      <point x="462" y="784" type="line" smooth="yes"/>
    </contour>
    <contour>
      <point x="375" y="826" type="line" smooth="yes"/>
      <point x="516" y="863" type="line" smooth="yes"/>
      <point x="563" y="950" type="line" smooth="yes"/>
      <point x="469" y="950" type="line" smooth="yes"/>
      <point x="445" y="914" type="line" smooth="yes"/>
      <point x="383" y="901" type="line" smooth="yes"/>
      <point x="324" y="914" type="line" smooth="yes"/>
      <point x="311" y="950" type="line" smooth="yes"/>
      <point x="221" y="950" type="line" smooth="yes"/>
      <point x="244" y="863" type="line" smooth="yes"/>
    </contour>
  </outline>
</glyph>
<glyph name="Aogonek" format="1">
  <advance width="631"/>
  <unicode hex="0104"/>
  <outline>
    <contour>
      <point x="352" y="631" type="line" smooth="yes"/>
      <point x="393" y="295" type="line" smooth="yes"/>
      <point x="222" y="295" type="line" smooth="yes"/>
    </contour>
    <contour>
      <point x="277" y="784" type="line" smooth="yes"/>
      <point x="-31" y="0" type="line" smooth="yes"/>
      <point x="116" y="0" type="line" smooth="yes"/>
      <point x="182" y="178" type="line" smooth="yes"/>
      <point x="402" y="178" type="line" smooth="yes"/>
      <point x="425" y="-16" type="line" smooth="yes"/>
      <point x="392" y="-64" type="line" smooth="yes"/>
      <point x="380" y="-120" type="line" smooth="yes"/>
      <point x="411" y="-191" type="line" smooth="yes"/>
      <point x="499" y="-214" type="line" smooth="yes"/>
      <point x="554" y="-207" type="line" smooth="yes"/>
      <point x="596" y="-190" type="line" smooth="yes"/>
      <point x="576" y="-108" type="line" smooth="yes"/>
      <point x="555" y="-116" type="line" smooth="yes"/>
      <point x="524" y="-120" type="line" smooth="yes"/>
      <point x="494" y="-110" type="line" smooth="yes"/>
      <point x="484" y="-85" type="line" smooth="yes"/>
      <point x="513" y="-31" type="line" smooth="yes"/>
      <point x="564" y="0" type="line" smooth="yes"/>
      <point x="462" y="784" type="line" smooth="yes"/>
    </contour>
  </outline>
</glyph>
<glyph name="aogonek" format="1">
  <advance width="535"/>
  <unicode hex="0105"/>
  <outline>
    <contour>
      <point x="201" y="94" type="line" smooth="yes"/>
      <point x="149" y="114" type="line" smooth="yes"/>
      <point x="136" y="159" type="line" smooth="yes"/>
      <point x="137" y="168" type="line" smooth="yes"/>
      <point x="163" y="215" type="line" smooth="yes"/>
      <point x="221" y="237" type="line" smooth="yes"/>
      <point x="338" y="255" type="line" smooth="yes"/>
      <point x="324" y="152" type="line" smooth="yes"/>
      <point x="279" y="114" type="line" smooth="yes"/>
    </contour>
    <contour>
      <point x="444" y="0" type="line" smooth="yes"/>
      <point x="454" y="150" type="line" smooth="yes"/>
      <point x="479" y="342" type="line" smooth="yes"/>
      <point x="445" y="488" type="line" smooth="yes"/>
      <point x="275" y="543" type="line" smooth="yes"/>
      <point x="107" y="490" type="line" smooth="yes"/>
      <point x="52" y="364" type="line" smooth="yes"/>
      <point x="51" y="355" type="line" smooth="yes"/>
      <point x="175" y="355" type="line" smooth="yes"/>
      <point x="200" y="416" type="line" smooth="yes"/>
      <point x="273" y="442" type="line" smooth="yes"/>
      <point x="341" y="421" type="line" smooth="yes"/>
      <point x="351" y="353" type="line" smooth="yes"/>
      <point x="350" y="345" type="line" smooth="yes"/>
      <point x="207" y="323" type="line" smooth="yes"/>
      <point x="69" y="276" type="line" smooth="yes"/>
      <point x="6" y="156" type="line" smooth="yes"/>
      <point x="5" y="147" type="line" smooth="yes"/>
      <point x="35" y="35" type="line" smooth="yes"/>
      <point x="156" y="-13" type="line" smooth="yes"/>
      <point x="262" y="8" type="line" smooth="yes"/>
      <point x="329" y="61" type="line" smooth="yes"/>
      <point x="329" y="5" type="line" smooth="yes"/>
      <point x="280" y="-50" type="line" smooth="yes"/>
      <point x="260" y="-120" type="line" smooth="yes"/>
      <point x="291" y="-191" type="line" smooth="yes"/>
      <point x="379" y="-214" type="line" smooth="yes"/>
      <point x="434" y="-207" type="line" smooth="yes"/>
      <point x="476" y="-190" type="line" smooth="yes"/>
      <point x="456" y="-108" type="line" smooth="yes"/>
      <point x="435" y="-116" type="line" smooth="yes"/>
      <point x="404" y="-120" type="line" smooth="yes"/>
      <point x="374" y="-110" type="line" smooth="yes"/>
      <point x="364" y="-85" type="line" smooth="yes"/>
      <point x="393" y="-31" type="line" smooth="yes"/>
    </contour>
  </outline>
</glyph>
<glyph name="Ccircumflex" format="1">
  <advance width="635"/>
  <unicode hex="0108"/>
  <outline>
    <contour>
      <point x="184" y="408" type="line" smooth="yes"/>
      <point x="241" y="608" type="line" smooth="yes"/>
      <point x="363" y="676" type="line" smooth="yes"/>
      <point x="373" y="676" type="line" smooth="yes"/>
      <point x="468" y="629" type="line" smooth="yes"/>
      <point x="478" y="487" type="line" smooth="yes"/>
      <point x="612" y="487" type="line" smooth="yes"/>
      <point x="615" y="509" type="line" smooth="yes"/>
      <point x="576" y="722" type="line" smooth="yes"/>
      <point x="372" y="793" type="line" smooth="yes"/>
      <point x="154" y="702" type="line" smooth="yes"/>
      <point x="48" y="408" type="line" smooth="yes"/>
      <point x="43" y="370" type="line" smooth="yes"/>
      <point x="75" y="76" type="line" smooth="yes"/>
      <point x="290" y="-13" type="line" smooth="yes"/>
      <point x="498" y="52" type="line" smooth="yes"/>
      <point x="582" y="254" type="line" smooth="yes"/>
      <point x="583" y="263" type="line" smooth="yes"/>
      <point x="448" y="263" type="line" smooth="yes"/>
      <point x="410" y="147" type="line" smooth="yes"/>
      <point x="299" y="104" type="line" smooth="yes"/>
      <point x="289" y="104" type="line" smooth="yes"/>
      <point x="184" y="170" type="line" smooth="yes"/>
      <point x="179" y="370" type="line" smooth="yes"/>
    </contour>
    <contour>
      <point x="328" y="840" type="line" smooth="yes"/>
      <point x="399" y="892" type="line" smooth="yes"/>
      <point x="456" y="840" type="line" smooth="yes"/>
      <point x="574" y="840" type="line" smooth="yes"/>
      <point x="470" y="950" type="line" smooth="yes"/>
      <point x="340" y="950" type="line" smooth="yes"/>
      <point x="206" y="840" type="line" smooth="yes"/>
    </contour>
  </outline>
</glyph>
<glyph name="Ccaron" format="1">
  <advance width="635"/>
  <unicode hex="010C"/>
  <outline>
    <contour>
      <point x="184" y="408" type="line" smooth="yes"/>
      <point x="241" y="608" type="line" smooth="yes"/>
      <point x="363" y="676" type="line" smooth="yes"/>
      <point x="373" y="676" type="line" smooth="yes"/>
      <point x="468" y="629" type="line" smooth="yes"/>
      <point x="478" y="487" type="line" smooth="yes"/>
      <point x="612" y="487" type="line" smooth="yes"/>
      <point x="615" y="509" type="line" smooth="yes"/>
      <point x="576" y="722" type="line" smooth="yes"/>
      <point x="372" y="793" type="line" smooth="yes"/>
      <point x="154" y="702" type="line" smooth="yes"/>
      <point x="48" y="408" type="line" smooth="yes"/>
      <point x="43" y="370" type="line" smooth="yes"/>
      <point x="75" y="76" type="line" smooth="yes"/>
      <point x="290" y="-13" type="line" smooth="yes"/>
      <point x="498" y="52" type="line" smooth="yes"/>
      <point x="582" y="254" type="line" smooth="yes"/>
      <point x="583" y="263" type="line" smooth="yes"/>
      <point x="448" y="263" type="line" smooth="yes"/>
      <point x="410" y="147" type="line" smooth="yes"/>
      <point x="299" y="104" type="line" smooth="yes"/>
      <point x="289" y="104" type="line" smooth="yes"/>
      <point x="184" y="170" type="line" smooth="yes"/>
      <point x="179" y="370" type="line" smooth="yes"/>
    </contour>
    <contour>
      <point x="467" y="950" type="line" smooth="yes"/>
      <point x="396" y="898" type="line" smooth="yes"/>
      <point x="339" y="950" type="line" smooth="yes"/>
      <point x="221" y="950" type="line" smooth="yes"/>
      <point x="325" y="840" type="line" smooth="yes"/>
      <point x="455" y="840" type="line" smooth="yes"/>
      <point x="589" y="950" type="line" smooth="yes"/>
    </contour>
  </outline>
</glyph>
<glyph name="Dcaron" format="1">
  <advance width="647"/>
  <unicode hex="010E"/>
  <outline>
    <contour>
      <point x="161" y="117" type="line" smooth="yes"/>
      <point x="233" y="663" type="line" smooth="yes"/>
      <point x="328" y="663" type="line" smooth="yes"/>
      <point x="462" y="603" type="line" smooth="yes"/>
      <point x="479" y="410" type="line" smooth="yes"/>
      <point x="474" y="372" type="line" smooth="yes"/>
      <point x="405" y="175" type="line" smooth="yes"/>
      <point x="250" y="117" type="line" smooth="yes"/>
    </contour>
    <contour>
      <point x="615" y="410" type="line" smooth="yes"/>
      <point x="571" y="696" type="line" smooth="yes"/>
      <point x="333" y="780" type="line" smooth="yes"/>
      <point x="114" y="780" type="line" smooth="yes"/>
      <point x="12" y="0" type="line" smooth="yes"/>
      <point x="250" y="0" type="line" smooth="yes"/>
      <point x="499" y="85" type="line" smooth="yes"/>
      <point x="610" y="372" type="line" smooth="yes"/>
    </contour>
    <contour>
      <point x="445" y="950" type="line" smooth="yes"/>
      <point x="374" y="898" type="line" smooth="yes"/>
      <point x="317" y="950" type="line" smooth="yes"/>
      <point x="199" y="950" type="line" smooth="yes"/>
      <point x="303" y="840" type="line" smooth="yes"/>
      <point x="433" y="840" type="line" smooth="yes"/>
      <point x="567" y="950" type="line" smooth="yes"/>
    </contour>
  </outline>
</glyph>
<glyph name="Ebreve" format="1">
  <advance width="565"/>
  <unicode hex="0114"/>
  <outline>
    <contour>
      <point x="114" y="780" type="line" smooth="yes"/>
      <point x="12" y="0" type="line" smooth="yes"/>
      <point x="476" y="0" type="line" smooth="yes"/>
      <point x="491" y="117" type="line" smooth="yes"/>
      <point x="161" y="117" type="line" smooth="yes"/>
      <point x="190" y="340" type="line" smooth="yes"/>
      <point x="470" y="340" type="line" smooth="yes"/>
      <point x="485" y="456" type="line" smooth="yes"/>
      <point x="206" y="456" type="line" smooth="yes"/>
      <point x="233" y="663" type="line" smooth="yes"/>
      <point x="563" y="663" type="line" smooth="yes"/>
      <point x="578" y="780" type="line" smooth="yes"/>
    </contour>
    <contour>
      <point x="356" y="826" type="line" smooth="yes"/>
      <point x="497" y="863" type="line" smooth="yes"/>
      <point x="544" y="950" type="line" smooth="yes"/>
      <point x="450" y="950" type="line" smooth="yes"/>
      <point x="426" y="914" type="line" smooth="yes"/>
      <point x="364" y="901" type="line" smooth="yes"/>
      <point x="305" y="914" type="line" smooth="yes"/>
      <point x="292" y="950" type="line" smooth="yes"/>
      <point x="202" y="950" type="line" smooth="yes"/>
      <point x="225" y="863" type="line" smooth="yes"/>
    </contour>
  </outline>
</glyph>
<glyph name="ebreve" format="1">
  <advance width="553"/>
  <unicode hex="0115"/>
  <outline>
    <contour>
      <point x="281" y="442" type="line" smooth="yes"/>
      <point x="360" y="407" type="line" smooth="yes"/>
      <point x="378" y="313" type="line" smooth="yes"/>
      <point x="156" y="313" type="line" smooth="yes"/>
      <point x="199" y="408" type="line" smooth="yes"/>
    </contour>
    <contour>
      <point x="495" y="217" type="line" smooth="yes"/>
      <point x="502" y="267" type="line" smooth="yes"/>
      <point x="466" y="465" type="line" smooth="yes"/>
      <point x="286" y="543" type="line" smooth="yes"/>
      <point x="102" y="466" type="line" smooth="yes"/>
      <point x="24" y="277" type="line" smooth="yes"/>
      <point x="21" y="255" type="line" smooth="yes"/>
      <point x="60" y="65" type="line" smooth="yes"/>
      <point x="250" y="-13" type="line" smooth="yes"/>
      <point x="420" y="38" type="line" smooth="yes"/>
      <point x="488" y="161" type="line" smooth="yes"/>
      <point x="489" y="170" type="line" smooth="yes"/>
      <point x="366" y="170" type="line" smooth="yes"/>
      <point x="335" y="114" type="line" smooth="yes"/>
      <point x="253" y="88" type="line" smooth="yes"/>
      <point x="168" y="120" type="line" smooth="yes"/>
      <point x="144" y="217" type="line" smooth="yes"/>
    </contour>
    <contour>
      <point x="307" y="589" type="line" smooth="yes"/>
      <point x="454" y="643" type="line" smooth="yes"/>
      <point x="511" y="780" type="line" smooth="yes"/>
      <point x="412" y="780" type="line" smooth="yes"/>
      <point x="381" y="711" type="line" smooth="yes"/>
      <point x="317" y="689" type="line" smooth="yes"/>
      <point x="259" y="711" type="line" smooth="yes"/>
      <point x="246" y="780" type="line" smooth="yes"/>
      <point x="153" y="780" type="line" smooth="yes"/>
      <point x="175" y="643" type="line" smooth="yes"/>
    </contour>
  </outline>
</glyph>
<glyph name="Eogonek" format="1">
  <advance width="565"/>
  <unicode hex="0118"/>
  <outline>
    <contour>
      <point x="114" y="780" type="line" smooth="yes"/>
      <point x="12" y="0" type="line" smooth="yes"/>
      <point x="354" y="0" type="line" smooth="yes"/>
      <point x="310" y="-54" type="line" smooth="yes"/>
      <point x="292" y="-120" type="line" smooth="yes"/>
      <point x="323" y="-191" type="line" smooth="yes"/>
      <point x="411" y="-214" type="line" smooth="yes"/>
      <point x="466" y="-207" type="line" smooth="yes"/>
      <point x="508" y="-190" type="line" smooth="yes"/>
      <point x="488" y="-108" type="line" smooth="yes"/>
      <point x="467" y="-116" type="line" smooth="yes"/>
      <point x="436" y="-120" type="line" smooth="yes"/>
      <point x="406" y="-110" type="line" smooth="yes"/>
      <point x="396" y="-85" type="line" smooth="yes"/>
      <point x="425" y="-31" type="line" smooth="yes"/>
      <point x="476" y="0" type="line" smooth="yes"/>
      <point x="491" y="117" type="line" smooth="yes"/>
      <point x="161" y="117" type="line" smooth="yes"/>
      <point x="190" y="340" type="line" smooth="yes"/>
      <point x="470" y="340" type="line" smooth="yes"/>
      <point x="485" y="456" type="line" smooth="yes"/>
      <point x="206" y="456" type="line" smooth="yes"/>
      <point x="233" y="663" type="line" smooth="yes"/>
      <point x="563" y="663" type="line" smooth="yes"/>
      <point x="578" y="780" type="line" smooth="yes"/>
    </contour>
  </outline>
</glyph>
<glyph name="eogonek" format="1">
  <advance width="549"/>
  <unicode hex="0119"/>
  <outline>
    <contour>
      <point x="281" y="442" type="line" smooth="yes"/>
      <point x="360" y="407" type="line" smooth="yes"/>
      <point x="378" y="313" type="line" smooth="yes"/>
      <point x="156" y="313" type="line" smooth="yes"/>
      <point x="199" y="408" type="line" smooth="yes"/>
    </contour>
    <contour>
      <point x="495" y="217" type="line" smooth="yes"/>
      <point x="502" y="267" type="line" smooth="yes"/>
      <point x="466" y="465" type="line" smooth="yes"/>
      <point x="286" y="543" type="line" smooth="yes"/>
      <point x="102" y="466" type="line" smooth="yes"/>
      <point x="24" y="277" type="line" smooth="yes"/>
      <point x="21" y="255" type="line" smooth="yes"/>
      <point x="52" y="76" type="line" smooth="yes"/>
      <point x="212" y="-11" type="line" smooth="yes"/>
      <point x="176" y="-60" type="line" smooth="yes"/>
      <point x="162" y="-120" type="line" smooth="yes"/>
      <point x="193" y="-191" type="line" smooth="yes"/>
      <point x="281" y="-214" type="line" smooth="yes"/>
      <point x="336" y="-207" type="line" smooth="yes"/>
      <point x="378" y="-190" type="line" smooth="yes"/>
      <point x="358" y="-108" type="line" smooth="yes"/>
      <point x="337" y="-116" type="line" smooth="yes"/>
      <point x="306" y="-120" type="line" smooth="yes"/>
      <point x="276" y="-110" type="line" smooth="yes"/>
      <point x="266" y="-85" type="line" smooth="yes"/>
      <point x="295" y="-31" type="line" smooth="yes"/>
      <point x="346" y="0" type="line" smooth="yes"/>
      <point x="446" y="63" type="line" smooth="yes"/>
      <point x="488" y="161" type="line" smooth="yes"/>
      <point x="489" y="170" type="line" smooth="yes"/>
      <point x="366" y="170" type="line" smooth="yes"/>
      <point x="335" y="114" type="line" smooth="yes"/>
      <point x="253" y="88" type="line" smooth="yes"/>
      <point x="168" y="120" type="line" smooth="yes"/>
      <point x="144" y="217" type="line" smooth="yes"/>
    </contour>
  </outline>
</glyph>
<glyph name="Gdotaccent" format="1">
  <advance width="659"/>
  <unicode hex="0120"/>
  <outline>
    <contour>
      <point x="310" y="-13" type="line" smooth="yes"/>
      <point x="479" y="22" type="line" smooth="yes"/>
      <point x="569" y="88" type="line" smooth="yes"/>
      <point x="611" y="410" type="line" smooth="yes"/>
      <point x="364" y="410" type="line" smooth="yes"/>
      <point x="349" y="294" type="line" smooth="yes"/>
      <point x="462" y="294" type="line" smooth="yes"/>
      <point x="443" y="149" type="line" smooth="yes"/>
      <point x="401" y="121" type="line" smooth="yes"/>
      <point x="319" y="104" type="line" smooth="yes"/>
      <point x="309" y="104" type="line" smooth="yes"/>
      <point x="194" y="170" type="line" smooth="yes"/>
      <point x="179" y="370" type="line" smooth="yes"/>
      <point x="184" y="408" type="line" smooth="yes"/>
      <point x="243" y="608" type="line" smooth="yes"/>
      <point x="368" y="676" type="line" smooth="yes"/>
      <point x="378" y="676" type="line" smooth="yes"/>
      <point x="476" y="629" type="line" smooth="yes"/>
      <point x="488" y="487" type="line" smooth="yes"/>
      <point x="622" y="487" type="line" smooth="yes"/>
      <point x="625" y="509" type="line" smooth="yes"/>
      <point x="583" y="722" type="line" smooth="yes"/>
      <point x="377" y="793" type="line" smooth="yes"/>
      <point x="156" y="702" type="line" smooth="yes"/>
      <point x="48" y="408" type="line" smooth="yes"/>
      <point x="43" y="370" type="line" smooth="yes"/>
      <point x="85" y="76" type="line" smooth="yes"/>
    </contour>
    <contour>
      <point x="468" y="941" type="line" smooth="yes"/>
      <point x="352" y="941" type="line" smooth="yes"/>
      <point x="340" y="849" type="line" smooth="yes"/>
      <point x="456" y="849" type="line" smooth="yes"/>
    </contour>
  </outline>
</glyph>
<glyph name="Hcircumflex" format="1">
  <advance width="655"/>
  <unicode hex="0124"/>
  <outline>
    <contour>
      <point x="513" y="780" type="line" smooth="yes"/>
      <point x="471" y="456" type="line" smooth="yes"/>
      <point x="206" y="456" type="line" smooth="yes"/>
      <point x="248" y="780" type="line" smooth="yes"/>
      <point x="114" y="780" type="line" smooth="yes"/>
      <point x="12" y="0" type="line" smooth="yes"/>
      <point x="146" y="0" type="line" smooth="yes"/>
      <point x="190" y="340" type="line" smooth="yes"/>
      <point x="455" y="340" type="line" smooth="yes"/>
      <point x="411" y="0" type="line" smooth="yes"/>
      <point x="545" y="0" type="line" smooth="yes"/>
      <point x="647" y="780" type="line" smooth="yes"/>
    </contour>
    <contour>
      <point x="327" y="840" type="line" smooth="yes"/>
      <point x="398" y="892" type="line" smooth="yes"/>
      <point x="455" y="840" type="line" smooth="yes"/>
      <point x="573" y="840" type="line" smooth="yes"/>
      <point x="469" y="950" type="line" smooth="yes"/>
      <point x="339" y="950" type="line" smooth="yes"/>
      <point x="205" y="840" type="line" smooth="yes"/>
    </contour>
  </outline>
</glyph>
<glyph name="hbar" format="1">
  <advance width="560"/>
  <unicode hex="0127"/>
  <outline>
    <contour>
      <point x="14" y="617" type="line" smooth="yes"/>
      <point x="90" y="617" type="line" smooth="yes"/>
      <point x="9" y="0" type="line" smooth="yes"/>
      <point x="139" y="0" type="line" smooth="yes"/>
      <point x="187" y="367" type="line" smooth="yes"/>
      <point x="227" y="408" type="line" smooth="yes"/>
      <point x="300" y="430" type="line" smooth="yes"/>
      <point x="363" y="406" type="line" smooth="yes"/>
      <point x="377" y="342" type="line" smooth="yes"/>
      <point x="332" y="0" type="line" smooth="yes"/>
      <point x="462" y="0" type="line" smooth="yes"/>
      <point x="509" y="359" type="line" smooth="yes"/>
      <point x="484" y="491" type="line" smooth="yes"/>
      <point x="358" y="543" type="line" smooth="yes"/>
      <point x="269" y="526" type="line" smooth="yes"/>
      <point x="202" y="482" type="line" smooth="yes"/>
      <point x="220" y="617" type="line" smooth="yes"/>
      <point x="338" y="617" type="line" smooth="yes"/>
      <point x="351" y="713" type="line" smooth="yes"/>
      <point x="232" y="713" type="line" smooth="yes"/>
      <point x="244" y="800" type="line" smooth="yes"/>
      <point x="114" y="800" type="line" smooth="yes"/>
      <point x="102" y="713" type="line" smooth="yes"/>
      <point x="27" y="713" type="line" smooth="yes"/>
    </contour>
  </outline>
</glyph>
<glyph name="Itilde" format="1">
  <advance width="266"/>
  <unicode hex="0128"/>
  <outline>
    <contour>
      <point x="253" y="780" type="line" smooth="yes"/>
      <point x="119" y="780" type="line" smooth="yes"/>
      <point x="17" y="0" type="line" smooth="yes"/>
      <point x="151" y="0" type="line" smooth="yes"/>
    </contour>
    <contour>
      <point x="309" y="943" type="line" smooth="yes"/>
      <point x="298" y="916" type="line" smooth="yes"/>
      <point x="271" y="907" type="line" smooth="yes"/>
      <point x="211" y="932" type="line" smooth="yes"/>
      <point x="133" y="957" type="line" smooth="yes"/>
      <point x="59" y="932" type="line" smooth="yes"/>
      <point x="21" y="847" type="line" smooth="yes"/>
      <point x="94" y="847" type="line" smooth="yes"/>
      <point x="105" y="874" type="line" smooth="yes"/>
      <point x="132" y="883" type="line" smooth="yes"/>
      <point x="192" y="858" type="line" smooth="yes"/>
      <point x="270" y="833" type="line" smooth="yes"/>
      <point x="344" y="858" type="line" smooth="yes"/>
      <point x="382" y="943" type="line" smooth="yes"/>
    </contour>
  </outline>
</glyph>
<glyph name="itilde" format="1">
  <advance width="250"/>
  <unicode hex="0129"/>
  <outline>
    <contour>
      <point x="11" y="0" type="line" smooth="yes"/>
      <point x="141" y="0" type="line" smooth="yes"/>
      <point x="210" y="530" type="line" smooth="yes"/>
      <point x="80" y="530" type="line" smooth="yes"/>
    </contour>
    <contour>
      <point x="236" y="725" type="line" smooth="yes"/>
      <point x="173" y="752" type="line" smooth="yes"/>
      <point x="95" y="778" type="line" smooth="yes"/>
      <point x="13" y="744" type="line" smooth="yes"/>
      <point x="-28" y="636" type="line" smooth="yes"/>
      <point x="61" y="636" type="line" smooth="yes"/>
      <point x="74" y="666" type="line" smooth="yes"/>
      <point x="99" y="675" type="line" smooth="yes"/>
      <point x="162" y="649" type="line" smooth="yes"/>
      <point x="240" y="622" type="line" smooth="yes"/>
      <point x="322" y="656" type="line" smooth="yes"/>
      <point x="363" y="764" type="line" smooth="yes"/>
      <point x="274" y="764" type="line" smooth="yes"/>
      <point x="261" y="734" type="line" smooth="yes"/>
    </contour>
  </outline>
</glyph>
<glyph name="Imacron" format="1">
  <advance width="266"/>
  <unicode hex="012A"/>
  <outline>
    <contour>
      <point x="253" y="780" type="line" smooth="yes"/>
      <point x="119" y="780" type="line" smooth="yes"/>
      <point x="17" y="0" type="line" smooth="yes"/>
      <point x="151" y="0" type="line" smooth="yes"/>
    </contour>
    <contour>
      <point x="58" y="853" type="line" smooth="yes"/>
      <point x="334" y="853" type="line" smooth="yes"/>
      <point x="345" y="937" type="line" smooth="yes"/>
      <point x="69" y="937" type="line" smooth="yes"/>
    </contour>
  </outline>
</glyph>
<glyph name="imacron" format="1">
  <advance width="250"/>
  <unicode hex="012B"/>
  <outline>
    <contour>
      <point x="11" y="0" type="line" smooth="yes"/>
      <point x="141" y="0" type="line" smooth="yes"/>
      <point x="210" y="530" type="line" smooth="yes"/>
      <point x="80" y="530" type="line" smooth="yes"/>
    </contour>
    <contour>
      <point x="20" y="633" type="line" smooth="yes"/>
      <point x="298" y="633" type="line" smooth="yes"/>
      <point x="313" y="748" type="line" smooth="yes"/>
      <point x="35" y="748" type="line" smooth="yes"/>
    </contour>
  </outline>
</glyph>
<glyph name="Iogonek" format="1">
  <advance width="266"/>
  <unicode hex="012E"/>
  <outline>
    <contour>
      <point x="253" y="780" type="line" smooth="yes"/>
      <point x="119" y="780" type="line" smooth="yes"/>
      <point x="15" y="-13" type="line" smooth="yes"/>
      <point x="-20" y="-62" type="line" smooth="yes"/>
      <point x="-33" y="-120" type="line" smooth="yes"/>
      <point x="-2" y="-191" type="line" smooth="yes"/>
      <point x="86" y="-214" type="line" smooth="yes"/>
      <point x="141" y="-207" type="line" smooth="yes"/>
      <point x="183" y="-190" type="line" smooth="yes"/>
      <point x="163" y="-108" type="line" smooth="yes"/>
      <point x="142" y="-116" type="line" smooth="yes"/>
      <point x="111" y="-120" type="line" smooth="yes"/>
      <point x="81" y="-110" type="line" smooth="yes"/>
      <point x="71" y="-85" type="line" smooth="yes"/>
      <point x="100" y="-31" type="line" smooth="yes"/>
      <point x="151" y="0" type="line" smooth="yes"/>
    </contour>
  </outline>
</glyph>
<glyph name="iogonek" format="1">
  <advance width="250"/>
  <unicode hex="012F"/>
  <outline>
    <contour>
      <point x="247" y="763" type="line" smooth="yes"/>
      <point x="105" y="763" type="line" smooth="yes"/>
      <point x="86" y="622" type="line" smooth="yes"/>
      <point x="228" y="622" type="line" smooth="yes"/>
    </contour>
    <contour>
      <point x="141" y="0" type="line" smooth="yes"/>
      <point x="210" y="530" type="line" smooth="yes"/>
      <point x="80" y="530" type="line" smooth="yes"/>
      <point x="9" y="-9" type="line" smooth="yes"/>
      <point x="-28" y="-59" type="line" smooth="yes"/>
      <point x="-43" y="-120" type="line" smooth="yes"/>
      <point x="-12" y="-191" type="line" smooth="yes"/>
      <point x="76" y="-214" type="line" smooth="yes"/>
      <point x="131" y="-207" type="line" smooth="yes"/>
      <point x="173" y="-190" type="line" smooth="yes"/>
      <point x="153" y="-108" type="line" smooth="yes"/>
      <point x="132" y="-116" type="line" smooth="yes"/>
      <point x="101" y="-120" type="line" smooth="yes"/>
      <point x="71" y="-110" type="line" smooth="yes"/>
      <point x="61" y="-85" type="line" smooth="yes"/>
      <point x="90" y="-31" type="line" smooth="yes"/>
    </contour>
  </outline>
</glyph>
<glyph name="lcaron" format="1">
  <advance width="250"/>
  <unicode hex="013E"/>
  <outline>
    <contour>
      <point x="11" y="0" type="line" smooth="yes"/>
      <point x="141" y="0" type="line" smooth="yes"/>
      <point x="246" y="800" type="line" smooth="yes"/>
      <point x="116" y="800" type="line" smooth="yes"/>
    </contour>
    <contour>
      <point x="307" y="800" type="line" smooth="yes"/>
      <point x="281" y="601" type="line" smooth="yes"/>
      <point x="343" y="601" type="line" smooth="yes"/>
      <point x="392" y="800" type="line" smooth="yes"/>
    </contour>
  </outline>
</glyph>
<glyph name="Ldot" format="1">
  <advance width="511"/>
  <unicode hex="013F"/>
  <outline>
    <contour>
      <point x="464" y="469" type="line" smooth="yes"/>
      <point x="322" y="469" type="line" smooth="yes"/>
      <point x="303" y="328" type="line" smooth="yes"/>
      <point x="445" y="328" type="line" smooth="yes"/>
    </contour>
    <contour>
      <point x="447" y="0" type="line" smooth="yes"/>
      <point x="462" y="117" type="line" smooth="yes"/>
      <point x="161" y="117" type="line" smooth="yes"/>
      <point x="248" y="780" type="line" smooth="yes"/>
      <point x="114" y="780" type="line" smooth="yes"/>
      <point x="12" y="0" type="line" smooth="yes"/>
    </contour>
  </outline>
</glyph>
<glyph name="ldot" format="1">
  <advance width="406"/>
  <unicode hex="0140"/>
  <outline>
    <contour>
      <point x="405" y="421" type="line" smooth="yes"/>
      <point x="263" y="421" type="line" smooth="yes"/>
      <point x="244" y="279" type="line" smooth="yes"/>
      <point x="386" y="279" type="line" smooth="yes"/>
    </contour>
    <contour>
      <point x="11" y="0" type="line" smooth="yes"/>
      <point x="141" y="0" type="line" smooth="yes"/>
      <point x="246" y="800" type="line" smooth="yes"/>
      <point x="116" y="800" type="line" smooth="yes"/>
    </contour>
  </outline>
</glyph>
<glyph name="lslash" format="1">
  <advance width="366"/>
  <unicode hex="0142"/>
  <outline>
    <contour>
      <point x="5" y="213" type="line" smooth="yes"/>
      <point x="103" y="273" type="line" smooth="yes"/>
      <point x="67" y="0" type="line" smooth="yes"/>
      <point x="197" y="0" type="line" smooth="yes"/>
      <point x="244" y="360" type="line" smooth="yes"/>
      <point x="358" y="430" type="line" smooth="yes"/>
      <point x="373" y="543" type="line" smooth="yes"/>
      <point x="259" y="473" type="line" smooth="yes"/>
      <point x="302" y="800" type="line" smooth="yes"/>
      <point x="172" y="800" type="line" smooth="yes"/>
      <point x="118" y="386" type="line" smooth="yes"/>
      <point x="20" y="326" type="line" smooth="yes"/>
    </contour>
  </outline>
</glyph>
<glyph name="nacute" format="1">
  <advance width="560"/>
  <unicode hex="0144"/>
  <outline>
    <contour>
      <point x="462" y="0" type="line" smooth="yes"/>
      <point x="509" y="359" type="line" smooth="yes"/>
      <point x="484" y="491" type="line" smooth="yes"/>
      <point x="358" y="543" type="line" smooth="yes"/>
      <point x="255" y="520" type="line" smooth="yes"/>
      <point x="184" y="461" type="line" smooth="yes"/>
      <point x="184" y="530" type="line" smooth="yes"/>
      <point x="69" y="530" type="line" smooth="yes"/>
      <point x="59" y="380" type="line" smooth="yes"/>
      <point x="9" y="0" type="line" smooth="yes"/>
      <point x="139" y="0" type="line" smooth="yes"/>
      <point x="187" y="367" type="line" smooth="yes"/>
      <point x="227" y="408" type="line" smooth="yes"/>
      <point x="300" y="430" type="line" smooth="yes"/>
      <point x="363" y="406" type="line" smooth="yes"/>
      <point x="377" y="342" type="line" smooth="yes"/>
      <point x="332" y="0" type="line" smooth="yes"/>
    </contour>
    <contour>
      <point x="364" y="780" type="line" smooth="yes"/>
      <point x="250" y="601" type="line" smooth="yes"/>
      <point x="380" y="601" type="line" smooth="yes"/>
      <point x="506" y="780" type="line" smooth="yes"/>
    </contour>
  </outline>
</glyph>
<glyph name="Ncommaaccent" format="1">
  <advance width="675"/>
  <unicode hex="0145"/>
  <outline>
    <contour>
      <point x="114" y="780" type="line" smooth="yes"/>
      <point x="12" y="0" type="line" smooth="yes"/>
      <point x="143" y="0" type="line" smooth="yes"/>
      <point x="191" y="373" type="line" smooth="yes"/>
      <point x="208" y="538" type="line" smooth="yes"/>
      <point x="426" y="0" type="line" smooth="yes"/>
      <point x="565" y="0" type="line" smooth="yes"/>
      <point x="667" y="780" type="line" smooth="yes"/>
      <point x="536" y="780" type="line" smooth="yes"/>
      <point x="488" y="407" type="line" smooth="yes"/>
      <point x="471" y="242" type="line" smooth="yes"/>
      <point x="253" y="780" type="line" smooth="yes"/>
    </contour>
    <contour>
      <point x="343" y="-47" type="line" smooth="yes"/>
      <point x="221" y="-47" type="line" smooth="yes"/>
      <point x="210" y="-133" type="line" smooth="yes"/>
      <point x="279" y="-133" type="line" smooth="yes"/>
      <point x="247" y="-162" type="line" smooth="yes"/>
      <point x="193" y="-170" type="line" smooth="yes"/>
      <point x="186" y="-223" type="line" smooth="yes"/>
      <point x="290" y="-195" type="line" smooth="yes"/>
      <point x="336" y="-103" type="line" smooth="yes"/>
    </contour>
  </outline>
</glyph>
<glyph name="ncommaaccent" format="1">
  <advance width="560"/>
  <unicode hex="0146"/>
  <outline>
    <contour>
      <point x="462" y="0" type="line" smooth="yes"/>
      <point x="509" y="359" type="line" smooth="yes"/>
      <point x="484" y="491" type="line" smooth="yes"/>
      <point x="358" y="543" type="line" smooth="yes"/>
      <point x="255" y="520" type="line" smooth="yes"/>
      <point x="184" y="461" type="line" smooth="yes"/>
      <point x="184" y="530" type="line" smooth="yes"/>
      <point x="69" y="530" type="line" smooth="yes"/>
      <point x="59" y="380" type="line" smooth="yes"/>
      <point x="9" y="0" type="line" smooth="yes"/>
      <point x="139" y="0" type="line" smooth="yes"/>
      <point x="187" y="367" type="line" smooth="yes"/>
      <point x="227" y="408" type="line" smooth="yes"/>
      <point x="300" y="430" type="line" smooth="yes"/>
      <point x="363" y="406" type="line" smooth="yes"/>
      <point x="377" y="342" type="line" smooth="yes"/>
      <point x="332" y="0" type="line" smooth="yes"/>
    </contour>
    <contour>
      <point x="290" y="-47" type="line" smooth="yes"/>
      <point x="168" y="-47" type="line" smooth="yes"/>
      <point x="157" y="-133" type="line" smooth="yes"/>
      <point x="226" y="-133" type="line" smooth="yes"/>
      <point x="194" y="-162" type="line" smooth="yes"/>
      <point x="140" y="-170" type="line" smooth="yes"/>
      <point x="133" y="-223" type="line" smooth="yes"/>
      <point x="237" y="-195" type="line" smooth="yes"/>
      <point x="283" y="-103" type="line" smooth="yes"/>
    </contour>
  </outline>
</glyph>
<glyph name="eng" format="1">
  <advance width="560"/>
  <unicode hex="014B"/>
  <outline>
    <contour>
      <point x="509" y="359" type="line" smooth="yes"/>
      <point x="484" y="491" type="line" smooth="yes"/>
      <point x="358" y="543" type="line" smooth="yes"/>
      <point x="255" y="520" type="line" smooth="yes"/>
      <point x="184" y="461" type="line" smooth="yes"/>
      <point x="184" y="530" type="line" smooth="yes"/>
      <point x="69" y="530" type="line" smooth="yes"/>
      <point x="59" y="380" type="line" smooth="yes"/>
      <point x="9" y="0" type="line" smooth="yes"/>
      <point x="139" y="0" type="line" smooth="yes"/>
      <point x="187" y="367" type="line" smooth="yes"/>
      <point x="227" y="408" type="line" smooth="yes"/>
      <point x="300" y="430" type="line" smooth="yes"/>
      <point x="363" y="406" type="line" smooth="yes"/>
      <point x="377" y="342" type="line" smooth="yes"/>
      <point x="329" y="-21" type="line" smooth="yes"/>
      <point x="299" y="-85" type="line" smooth="yes"/>
      <point x="241" y="-100" type="line" smooth="yes"/>
      <point x="206" y="-97" type="line" smooth="yes"/>
      <point x="183" y="-92" type="line" smooth="yes"/>
      <point x="169" y="-200" type="line" smooth="yes"/>
      <point x="198" y="-208" type="line" smooth="yes"/>
      <point x="249" y="-213" type="line" smooth="yes"/>
      <point x="388" y="-175" type="line" smooth="yes"/>
      <point x="457" y="-38" type="line" smooth="yes"/>
    </contour>
  </outline>
</glyph>
<glyph name="Omacron" format="1">
  <advance width="656"/>
  <unicode hex="014C"/>
  <outline>
    <contour>
      <point x="484" y="372" type="line" smooth="yes"/>
      <point x="425" y="172" type="line" smooth="yes"/>
      <point x="300" y="104" type="line" smooth="yes"/>
      <point x="290" y="104" type="line" smooth="yes"/>
      <point x="185" y="170" type="line" smooth="yes"/>
      <point x="179" y="370" type="line" smooth="yes"/>
      <point x="184" y="408" type="line" smooth="yes"/>
      <point x="243" y="608" type="line" smooth="yes"/>
      <point x="368" y="676" type="line" smooth="yes"/>
      <point x="378" y="676" type="line" smooth="yes"/>
      <point x="483" y="611" type="line" smooth="yes"/>
      <point x="489" y="410" type="line" smooth="yes"/>
    </contour>
    <contour>
      <point x="625" y="410" type="line" smooth="yes"/>
      <point x="592" y="704" type="line" smooth="yes"/>
      <point x="377" y="793" type="line" smooth="yes"/>
      <point x="156" y="702" type="line" smooth="yes"/>
      <point x="48" y="408" type="line" smooth="yes"/>
      <point x="43" y="370" type="line" smooth="yes"/>
      <point x="76" y="76" type="line" smooth="yes"/>
      <point x="291" y="-13" type="line" smooth="yes"/>
      <point x="512" y="78" type="line" smooth="yes"/>
      <point x="620" y="372" type="line" smooth="yes"/>
    </contour>
    <contour>
      <point x="258" y="853" type="line" smooth="yes"/>
      <point x="534" y="853" type="line" smooth="yes"/>
      <point x="545" y="937" type="line" smooth="yes"/>
      <point x="269" y="937" type="line" smooth="yes"/>
    </contour>
  </outline>
</glyph>
<glyph name="Obreve" format="1">
  <advance width="656"/>
  <unicode hex="014E"/>
  <outline>
    <contour>
      <point x="484" y="372" type="line" smooth="yes"/>
      <point x="425" y="172" type="line" smooth="yes"/>
      <point x="300" y="104" type="line" smooth="yes"/>
      <point x="290" y="104" type="line" smooth="yes"/>
      <point x="185" y="170" type="line" smooth="yes"/>
      <point x="179" y="370" type="line" smooth="yes"/>
      <point x="184" y="408" type="line" smooth="yes"/>
      <point x="243" y="608" type="line" smooth="yes"/>
      <point x="368" y="676" type="line" smooth="yes"/>
      <point x="378" y="676" type="line" smooth="yes"/>
      <point x="483" y="611" type="line" smooth="yes"/>
      <point x="489" y="410" type="line" smooth="yes"/>
    </contour>
    <contour>
      <point x="625" y="410" type="line" smooth="yes"/>
      <point x="592" y="704" type="line" smooth="yes"/>
      <point x="377" y="793" type="line" smooth="yes"/>
      <point x="156" y="702" type="line" smooth="yes"/>
      <point x="48" y="408" type="line" smooth="yes"/>
      <point x="43" y="370" type="line" smooth="yes"/>
      <point x="76" y="76" type="line" smooth="yes"/>
      <point x="291" y="-13" type="line" smooth="yes"/>
      <point x="512" y="78" type="line" smooth="yes"/>
      <point x="620" y="372" type="line" smooth="yes"/>
    </contour>
    <contour>
      <point x="392" y="826" type="line" smooth="yes"/>
      <point x="533" y="863" type="line" smooth="yes"/>
      <point x="580" y="950" type="line" smooth="yes"/>
      <point x="486" y="950" type="line" smooth="yes"/>
      <point x="462" y="914" type="line" smooth="yes"/>
      <point x="400" y="901" type="line" smooth="yes"/>
      <point x="341" y="914" type="line" smooth="yes"/>
      <point x="328" y="950" type="line" smooth="yes"/>
      <point x="238" y="950" type="line" smooth="yes"/>
      <point x="261" y="863" type="line" smooth="yes"/>
    </contour>
  </outline>
</glyph>
<glyph name="oe" format="1">
  <advance width="898"/>
  <unicode hex="0153"/>
  <outline>
    <contour>
      <point x="631" y="442" type="line" smooth="yes"/>
      <point x="710" y="407" type="line" smooth="yes"/>
      <point x="728" y="313" type="line" smooth="yes"/>
      <point x="506" y="313" type="line" smooth="yes"/>
      <point x="549" y="408" type="line" smooth="yes"/>
    </contour>
    <contour>
      <point x="243" y="100" type="line" smooth="yes"/>
      <point x="163" y="142" type="line" smooth="yes"/>
      <point x="150" y="256" type="line" smooth="yes"/>
      <point x="153" y="278" type="line" smooth="yes"/>
      <point x="196" y="392" type="line" smooth="yes"/>
      <point x="282" y="430" type="line" smooth="yes"/>
      <point x="362" y="388" type="line" smooth="yes"/>
      <point x="375" y="274" type="line" smooth="yes"/>
      <point x="372" y="252" type="line" smooth="yes"/>
      <point x="329" y="138" type="line" smooth="yes"/>
    </contour>
    <contour>
      <point x="845" y="217" type="line" smooth="yes"/>
      <point x="852" y="267" type="line" smooth="yes"/>
      <point x="816" y="465" type="line" smooth="yes"/>
      <point x="636" y="543" type="line" smooth="yes"/>
      <point x="526" y="518" type="line" smooth="yes"/>
      <point x="457" y="451" type="line" smooth="yes"/>
      <point x="395" y="518" type="line" smooth="yes"/>
      <point x="285" y="543" type="line" smooth="yes"/>
      <point x="99" y="467" type="line" smooth="yes"/>
      <point x="24" y="277" type="line" smooth="yes"/>
      <point x="21" y="255" type="line" smooth="yes"/>
      <point x="60" y="65" type="line" smooth="yes"/>
      <point x="240" y="-13" type="line" smooth="yes"/>
      <point x="352" y="10" type="line" smooth="yes"/>
      <point x="419" y="75" type="line" smooth="yes"/>
      <point x="484" y="11" type="line" smooth="yes"/>
      <point x="600" y="-13" type="line" smooth="yes"/>
      <point x="770" y="38" type="line" smooth="yes"/>
      <point x="838" y="161" type="line" smooth="yes"/>
      <point x="839" y="170" type="line" smooth="yes"/>
      <point x="716" y="170" type="line" smooth="yes"/>
      <point x="685" y="114" type="line" smooth="yes"/>
      <point x="603" y="88" type="line" smooth="yes"/>
      <point x="518" y="120" type="line" smooth="yes"/>
      <point x="494" y="217" type="line" smooth="yes"/>
    </contour>
  </outline>
</glyph>
<glyph name="Racute" format="1">
  <advance width="608"/>
  <unicode hex="0154"/>
  <outline>
    <contour>
      <point x="199" y="408" type="line" smooth="yes"/>
      <point x="233" y="663" type="line" smooth="yes"/>
      <point x="347" y="663" type="line" smooth="yes"/>
      <point x="428" y="640" type="line" smooth="yes"/>
      <point x="452" y="540" type="line" smooth="yes"/>
      <point x="451" y="532" type="line" smooth="yes"/>
      <point x="407" y="434" type="line" smooth="yes"/>
      <point x="316" y="408" type="line" smooth="yes"/>
    </contour>
    <contour>
      <point x="184" y="291" type="line" smooth="yes"/>
      <point x="299" y="291" type="line" smooth="yes"/>
      <point x="372" y="0" type="line" smooth="yes"/>
      <point x="517" y="0" type="line" smooth="yes"/>
      <point x="432" y="312" type="line" smooth="yes"/>
      <point x="530" y="383" type="line" smooth="yes"/>
      <point x="586" y="525" type="line" smooth="yes"/>
      <point x="589" y="547" type="line" smooth="yes"/>
      <point x="525" y="732" type="line" smooth="yes"/>
      <point x="350" y="780" type="line" smooth="yes"/>
      <point x="114" y="780" type="line" smooth="yes"/>
      <point x="12" y="0" type="line" smooth="yes"/>
      <point x="146" y="0" type="line" smooth="yes"/>
    </contour>
    <contour>
      <point x="357" y="950" type="line" smooth="yes"/>
      <point x="286" y="840" type="line" smooth="yes"/>
      <point x="416" y="840" type="line" smooth="yes"/>
      <point x="494" y="950" type="line" smooth="yes"/>
    </contour>
  </outline>
</glyph>
<glyph name="Rcommaaccent" format="1">
  <advance width="608"/>
  <unicode hex="0156"/>
  <outline>
    <contour>
      <point x="199" y="408" type="line" smooth="yes"/>
      <point x="233" y="663" type="line" smooth="yes"/>
      <point x="347" y="663" type="line" smooth="yes"/>
      <point x="428" y="640" type="line" smooth="yes"/>
      <point x="452" y="540" type="line" smooth="yes"/>
      <point x="451" y="532" type="line" smooth="yes"/>
      <point x="407" y="434" type="line" smooth="yes"/>
      <point x="316" y="408" type="line" smooth="yes"/>
    </contour>
    <contour>
      <point x="184" y="291" type="line" smooth="yes"/>
      <point x="299" y="291" type="line" smooth="yes"/>
      <point x="372" y="0" type="line" smooth="yes"/>
      <point x="517" y="0" type="line" smooth="yes"/>
      <point x="432" y="312" type="line" smooth="yes"/>
      <point x="530" y="383" type="line" smooth="yes"/>
      <point x="586" y="525" type="line" smooth="yes"/>
      <point x="589" y="547" type="line" smooth="yes"/>
      <point x="525" y="732" type="line" smooth="yes"/>
      <point x="350" y="780" type="line" smooth="yes"/>
      <point x="114" y="780" type="line" smooth="yes"/>
      <point x="12" y="0" type="line" smooth="yes"/>
      <point x="146" y="0" type="line" smooth="yes"/>
    </contour>
    <contour>
      <point x="310" y="-47" type="line" smooth="yes"/>
      <point x="188" y="-47" type="line" smooth="yes"/>
      <point x="177" y="-133" type="line" smooth="yes"/>
      <point x="246" y="-133" type="line" smooth="yes"/>
      <point x="214" y="-162" type="line" smooth="yes"/>
      <point x="160" y="-170" type="line" smooth="yes"/>
      <point x="153" y="-223" type="line" smooth="yes"/>
      <point x="257" y="-195" type="line" smooth="yes"/>
      <point x="303" y="-103" type="line" smooth="yes"/>
    </contour>
  </outline>
</glyph>
<glyph name="Scircumflex" format="1">
  <advance width="616"/>
  <unicode hex="015C"/>
  <outline>
    <contour>
      <point x="281" y="341" type="line" smooth="yes"/>
      <point x="404" y="292" type="line" smooth="yes"/>
      <point x="427" y="211" type="line" smooth="yes"/>
      <point x="426" y="203" type="line" smooth="yes"/>
      <point x="382" y="129" type="line" smooth="yes"/>
      <point x="281" y="104" type="line" smooth="yes"/>
      <point x="271" y="104" type="line" smooth="yes"/>
      <point x="175" y="141" type="line" smooth="yes"/>
      <point x="157" y="263" type="line" smooth="yes"/>
      <point x="23" y="263" type="line" smooth="yes"/>
      <point x="20" y="241" type="line" smooth="yes"/>
      <point x="71" y="51" type="line" smooth="yes"/>
      <point x="272" y="-13" type="line" smooth="yes"/>
      <point x="474" y="40" type="line" smooth="yes"/>
      <point x="561" y="194" type="line" smooth="yes"/>
      <point x="564" y="216" type="line" smooth="yes"/>
      <point x="524" y="369" type="line" smooth="yes"/>
      <point x="346" y="449" type="line" smooth="yes"/>
      <point x="225" y="496" type="line" smooth="yes"/>
      <point x="205" y="571" type="line" smooth="yes"/>
      <point x="206" y="579" type="line" smooth="yes"/>
      <point x="248" y="650" type="line" smooth="yes"/>
      <point x="340" y="676" type="line" smooth="yes"/>
      <point x="350" y="676" type="line" smooth="yes"/>
      <point x="446" y="635" type="line" smooth="yes"/>
      <point x="460" y="507" type="line" smooth="yes"/>
      <point x="594" y="507" type="line" smooth="yes"/>
      <point x="597" y="529" type="line" smooth="yes"/>
      <point x="555" y="724" type="line" smooth="yes"/>
      <point x="349" y="793" type="line" smooth="yes"/>
      <point x="159" y="741" type="line" smooth="yes"/>
      <point x="71" y="588" type="line" smooth="yes"/>
      <point x="68" y="566" type="line" smooth="yes"/>
      <point x="106" y="422" type="line" smooth="yes"/>
    </contour>
    <contour>
      <point x="310" y="840" type="line" smooth="yes"/>
      <point x="381" y="892" type="line" smooth="yes"/>
      <point x="438" y="840" type="line" smooth="yes"/>
      <point x="556" y="840" type="line" smooth="yes"/>
      <point x="452" y="950" type="line" smooth="yes"/>
      <point x="322" y="950" type="line" smooth="yes"/>
      <point x="188" y="840" type="line" smooth="yes"/>
    </contour>
  </outline>
</glyph>
<glyph name="scircumflex" format="1">
  <advance width="526"/>
  <unicode hex="015D"/>
  <outline>
    <contour>
      <point x="229" y="88" type="line" smooth="yes"/>
      <point x="158" y="110" type="line" smooth="yes"/>
      <point x="144" y="166" type="line" smooth="yes"/>
      <point x="15" y="166" type="line" smooth="yes"/>
      <point x="14" y="157" type="line" smooth="yes"/>
      <point x="52" y="35" type="line" smooth="yes"/>
      <point x="221" y="-13" type="line" smooth="yes"/>
      <point x="384" y="32" type="line" smooth="yes"/>
      <point x="453" y="145" type="line" smooth="yes"/>
      <point x="454" y="154" type="line" smooth="yes"/>
      <point x="411" y="273" type="line" smooth="yes"/>
      <point x="268" y="317" type="line" smooth="yes"/>
      <point x="195" y="335" type="line" smooth="yes"/>
      <point x="176" y="373" type="line" smooth="yes"/>
      <point x="206" y="427" type="line" smooth="yes"/>
      <point x="267" y="442" type="line" smooth="yes"/>
      <point x="336" y="419" type="line" smooth="yes"/>
      <point x="348" y="357" type="line" smooth="yes"/>
      <point x="475" y="357" type="line" smooth="yes"/>
      <point x="476" y="366" type="line" smooth="yes"/>
      <point x="440" y="496" type="line" smooth="yes"/>
      <point x="275" y="543" type="line" smooth="yes"/>
      <point x="122" y="504" type="line" smooth="yes"/>
      <point x="50" y="390" type="line" smooth="yes"/>
      <point x="49" y="381" type="line" smooth="yes"/>
      <point x="83" y="273" type="line" smooth="yes"/>
      <point x="231" y="223" type="line" smooth="yes"/>
      <point x="302" y="204" type="line" smooth="yes"/>
      <point x="325" y="160" type="line" smooth="yes"/>
      <point x="294" y="104" type="line" smooth="yes"/>
    </contour>
    <contour>
      <point x="488" y="601" type="line" smooth="yes"/>
      <point x="378" y="780" type="line" smooth="yes"/>
      <point x="254" y="780" type="line" smooth="yes"/>
      <point x="98" y="601" type="line" smooth="yes"/>
      <point x="218" y="601" type="line" smooth="yes"/>
      <point x="308" y="693" type="line" smooth="yes"/>
      <point x="374" y="601" type="line" smooth="yes"/>
    </contour>
  </outline>
</glyph>
<glyph name="Scedilla" format="1">
  <advance width="616"/>
  <unicode hex="015E"/>
  <outline>
    <contour>
      <point x="281" y="341" type="line" smooth="yes"/>
      <point x="404" y="292" type="line" smooth="yes"/>
      <point x="427" y="211" type="line" smooth="yes"/>
      <point x="426" y="203" type="line" smooth="yes"/>
      <point x="382" y="129" type="line" smooth="yes"/>
      <point x="281" y="104" type="line" smooth="yes"/>
      <point x="271" y="104" type="line" smooth="yes"/>
      <point x="175" y="141" type="line" smooth="yes"/>
      <point x="157" y="263" type="line" smooth="yes"/>
      <point x="23" y="263" type="line" smooth="yes"/>
      <point x="20" y="241" type="line" smooth="yes"/>
      <point x="59" y="63" type="line" smooth="yes"/>
      <point x="225" y="-11" type="line" smooth="yes"/>
      <point x="192" y="-75" type="line" smooth="yes"/>
      <point x="205" y="-101" type="line" smooth="yes"/>
      <point x="217" y="-99" type="line" smooth="yes"/>
      <point x="243" y="-97" type="line" smooth="yes"/>
      <point x="277" y="-103" type="line" smooth="yes"/>
      <point x="289" y="-121" type="line" smooth="yes"/>
      <point x="277" y="-140" type="line" smooth="yes"/>
      <point x="238" y="-147" type="line" smooth="yes"/>
      <point x="197" y="-143" type="line" smooth="yes"/>
      <point x="166" y="-131" type="line" smooth="yes"/>
      <point x="138" y="-190" type="line" smooth="yes"/>
      <point x="177" y="-207" type="line" smooth="yes"/>
      <point x="237" y="-214" type="line" smooth="yes"/>
      <point x="329" y="-189" type="line" smooth="yes"/>
      <point x="364" y="-120" type="line" smooth="yes"/>
      <point x="337" y="-65" type="line" smooth="yes"/>
      <point x="274" y="-45" type="line" smooth="yes"/>
      <point x="290" y="-13" type="line" smooth="yes"/>
      <point x="478" y="44" type="line" smooth="yes"/>
      <point x="561" y="194" type="line" smooth="yes"/>
      <point x="564" y="216" type="line" smooth="yes"/>
      <point x="524" y="369" type="line" smooth="yes"/>
      <point x="346" y="449" type="line" smooth="yes"/>
      <point x="225" y="496" type="line" smooth="yes"/>
      <point x="205" y="571" type="line" smooth="yes"/>
      <point x="206" y="579" type="line" smooth="yes"/>
      <point x="248" y="650" type="line" smooth="yes"/>
      <point x="340" y="676" type="line" smooth="yes"/>
      <point x="350" y="676" type="line" smooth="yes"/>
      <point x="446" y="635" type="line" smooth="yes"/>
      <point x="460" y="507" type="line" smooth="yes"/>
      <point x="594" y="507" type="line" smooth="yes"/>
      <point x="597" y="529" type="line" smooth="yes"/>
      <point x="555" y="724" type="line" smooth="yes"/>
      <point x="349" y="793" type="line" smooth="yes"/>
      <point x="159" y="741" type="line" smooth="yes"/>
      <point x="71" y="588" type="line" smooth="yes"/>
      <point x="68" y="566" type="line" smooth="yes"/>
      <point x="106" y="422" type="line" smooth="yes"/>
    </contour>
  </outline>
</glyph>
<glyph name="scedilla" format="1">
  <advance width="524"/>
  <unicode hex="015F"/>
  <outline>
    <contour>
      <point x="229" y="88" type="line" smooth="yes"/>
      <point x="158" y="110" type="line" smooth="yes"/>
      <point x="144" y="166" type="line" smooth="yes"/>
      <point x="15" y="166" type="line" smooth="yes"/>
      <point x="14" y="157" type="line" smooth="yes"/>
      <point x="43" y="44" type="line" smooth="yes"/>
      <point x="175" y="-11" type="line" smooth="yes"/>
      <point x="142" y="-75" type="line" smooth="yes"/>
      <point x="155" y="-101" type="line" smooth="yes"/>
      <point x="167" y="-99" type="line" smooth="yes"/>
      <point x="193" y="-97" type="line" smooth="yes"/>
      <point x="227" y="-103" type="line" smooth="yes"/>
      <point x="239" y="-121" type="line" smooth="yes"/>
      <point x="227" y="-140" type="line" smooth="yes"/>
      <point x="188" y="-147" type="line" smooth="yes"/>
      <point x="147" y="-143" type="line" smooth="yes"/>
      <point x="116" y="-131" type="line" smooth="yes"/>
      <point x="88" y="-190" type="line" smooth="yes"/>
      <point x="127" y="-207" type="line" smooth="yes"/>
      <point x="187" y="-214" type="line" smooth="yes"/>
      <point x="279" y="-189" type="line" smooth="yes"/>
      <point x="314" y="-120" type="line" smooth="yes"/>
      <point x="287" y="-65" type="line" smooth="yes"/>
      <point x="224" y="-45" type="line" smooth="yes"/>
      <point x="240" y="-12" type="line" smooth="yes"/>
      <point x="390" y="36" type="line" smooth="yes"/>
      <point x="453" y="145" type="line" smooth="yes"/>
      <point x="454" y="154" type="line" smooth="yes"/>
      <point x="411" y="273" type="line" smooth="yes"/>
      <point x="268" y="317" type="line" smooth="yes"/>
      <point x="195" y="335" type="line" smooth="yes"/>
      <point x="176" y="373" type="line" smooth="yes"/>
      <point x="206" y="427" type="line" smooth="yes"/>
      <point x="267" y="442" type="line" smooth="yes"/>
      <point x="336" y="419" type="line" smooth="yes"/>
      <point x="348" y="357" type="line" smooth="yes"/>
      <point x="475" y="357" type="line" smooth="yes"/>
      <point x="476" y="366" type="line" smooth="yes"/>
      <point x="440" y="496" type="line" smooth="yes"/>
      <point x="275" y="543" type="line" smooth="yes"/>
      <point x="122" y="504" type="line" smooth="yes"/>
      <point x="50" y="390" type="line" smooth="yes"/>
      <point x="49" y="381" type="line" smooth="yes"/>
      <point x="83" y="273" type="line" smooth="yes"/>
      <point x="231" y="223" type="line" smooth="yes"/>
      <point x="302" y="204" type="line" smooth="yes"/>
      <point x="325" y="160" type="line" smooth="yes"/>
      <point x="294" y="104" type="line" smooth="yes"/>
    </contour>
  </outline>
</glyph>
<glyph name="Tcommaaccent" format="1">
  <advance width="544"/>
  <unicode hex="0162"/>
  <outline>
    <contour>
      <point x="377" y="663" type="line" smooth="yes"/>
      <point x="563" y="663" type="line" smooth="yes"/>
      <point x="578" y="780" type="line" smooth="yes"/>
      <point x="72" y="780" type="line" smooth="yes"/>
      <point x="57" y="663" type="line" smooth="yes"/>
      <point x="243" y="663" type="line" smooth="yes"/>
      <point x="156" y="0" type="line" smooth="yes"/>
      <point x="290" y="0" type="line" smooth="yes"/>
    </contour>
    <contour>
      <point x="277" y="-47" type="line" smooth="yes"/>
      <point x="155" y="-47" type="line" smooth="yes"/>
      <point x="144" y="-133" type="line" smooth="yes"/>
      <point x="213" y="-133" type="line" smooth="yes"/>
      <point x="181" y="-162" type="line" smooth="yes"/>
      <point x="127" y="-170" type="line" smooth="yes"/>
      <point x="120" y="-223" type="line" smooth="yes"/>
      <point x="224" y="-195" type="line" smooth="yes"/>
      <point x="270" y="-103" type="line" smooth="yes"/>
    </contour>
  </outline>
</glyph>
<glyph name="tcommaaccent" format="1">
  <advance width="421"/>
  <unicode hex="0163"/>
  <outline>
    <contour>
      <point x="248" y="-47" type="line" smooth="yes"/>
      <point x="126" y="-47" type="line" smooth="yes"/>
      <point x="115" y="-133" type="line" smooth="yes"/>
      <point x="184" y="-133" type="line" smooth="yes"/>
      <point x="152" y="-162" type="line" smooth="yes"/>
      <point x="98" y="-170" type="line" smooth="yes"/>
      <point x="91" y="-223" type="line" smooth="yes"/>
      <point x="195" y="-195" type="line" smooth="yes"/>
      <point x="241" y="-103" type="line" smooth="yes"/>
    </contour>
    <contour>
      <point x="254" y="530" type="line" smooth="yes"/>
      <point x="274" y="680" type="line" smooth="yes"/>
      <point x="144" y="680" type="line" smooth="yes"/>
      <point x="124" y="530" type="line" smooth="yes"/>
      <point x="43" y="530" type="line" smooth="yes"/>
      <point x="28" y="416" type="line" smooth="yes"/>
      <point x="109" y="416" type="line" smooth="yes"/>
      <point x="77" y="171" type="line" smooth="yes"/>
      <point x="113" y="28" type="line" smooth="yes"/>
      <point x="245" y="-13" type="line" smooth="yes"/>
      <point x="297" y="-8" type="line" smooth="yes"/>
      <point x="322" y="0" type="line" smooth="yes"/>
      <point x="336" y="108" type="line" smooth="yes"/>
      <point x="315" y="103" type="line" smooth="yes"/>
      <point x="284" y="100" type="line" smooth="yes"/>
      <point x="226" y="117" type="line" smooth="yes"/>
      <point x="209" y="188" type="line" smooth="yes"/>
      <point x="239" y="416" type="line" smooth="yes"/>
      <point x="386" y="416" type="line" smooth="yes"/>
      <point x="401" y="530" type="line" smooth="yes"/>
    </contour>
  </outline>
</glyph>
<glyph name="Utilde" format="1">
  <advance width="655"/>
  <unicode hex="0168"/>
  <outline>
    <contour>
      <point x="287" y="-13" type="line" smooth="yes"/>
      <point x="497" y="47" type="line" smooth="yes"/>
      <point x="581" y="237" type="line" smooth="yes"/>
      <point x="652" y="780" type="line" smooth="yes"/>
      <point x="518" y="780" type="line" smooth="yes"/>
      <point x="448" y="247" type="line" smooth="yes"/>
      <point x="400" y="138" type="line" smooth="yes"/>
      <point x="287" y="104" type="line" smooth="yes"/>
      <point x="188" y="141" type="line" smooth="yes"/>
      <point x="174" y="254" type="line" smooth="yes"/>
      <point x="243" y="780" type="line" smooth="yes"/>
      <point x="109" y="780" type="line" smooth="yes"/>
      <point x="39" y="245" type="line" smooth="yes"/>
      <point x="81" y="52" type="line" smooth="yes"/>
    </contour>
    <contour>
      <point x="504" y="943" type="line" smooth="yes"/>
      <point x="493" y="916" type="line" smooth="yes"/>
      <point x="466" y="907" type="line" smooth="yes"/>
      <point x="406" y="932" type="line" smooth="yes"/>
      <point x="328" y="957" type="line" smooth="yes"/>
      <point x="254" y="932" type="line" smooth="yes"/>
      <point x="216" y="847" type="line" smooth="yes"/>
      <point x="289" y="847" type="line" smooth="yes"/>
      <point x="300" y="874" type="line" smooth="yes"/>
      <point x="327" y="883" type="line" smooth="yes"/>
      <point x="387" y="858" type="line" smooth="yes"/>
      <point x="465" y="833" type="line" smooth="yes"/>
      <point x="539" y="858" type="line" smooth="yes"/>
      <point x="577" y="943" type="line" smooth="yes"/>
    </contour>
  </outline>
</glyph>
<glyph name="utilde" format="1">
  <advance width="563"/>
  <unicode hex="0169"/>
  <outline>
    <contour>
      <point x="389" y="725" type="line" smooth="yes"/>
      <point x="326" y="752" type="line" smooth="yes"/>
      <point x="248" y="778" type="line" smooth="yes"/>
      <point x="166" y="744" type="line" smooth="yes"/>
      <point x="125" y="636" type="line" smooth="yes"/>
      <point x="214" y="636" type="line" smooth="yes"/>
      <point x="227" y="666" type="line" smooth="yes"/>
      <point x="252" y="675" type="line" smooth="yes"/>
      <point x="315" y="649" type="line" smooth="yes"/>
      <point x="393" y="622" type="line" smooth="yes"/>
      <point x="475" y="656" type="line" smooth="yes"/>
      <point x="516" y="764" type="line" smooth="yes"/>
      <point x="427" y="764" type="line" smooth="yes"/>
      <point x="414" y="734" type="line" smooth="yes"/>
    </contour>
    <contour>
      <point x="73" y="530" type="line" smooth="yes"/>
      <point x="26" y="171" type="line" smooth="yes"/>
      <point x="51" y="39" type="line" smooth="yes"/>
      <point x="177" y="-13" type="line" smooth="yes"/>
      <point x="280" y="10" type="line" smooth="yes"/>
      <point x="351" y="69" type="line" smooth="yes"/>
      <point x="351" y="0" type="line" smooth="yes"/>
      <point x="466" y="0" type="line" smooth="yes"/>
      <point x="476" y="150" type="line" smooth="yes"/>
      <point x="526" y="530" type="line" smooth="yes"/>
      <point x="396" y="530" type="line" smooth="yes"/>
      <point x="348" y="163" type="line" smooth="yes"/>
      <point x="308" y="123" type="line" smooth="yes"/>
      <point x="235" y="100" type="line" smooth="yes"/>
      <point x="172" y="124" type="line" smooth="yes"/>
      <point x="158" y="188" type="line" smooth="yes"/>
      <point x="203" y="530" type="line" smooth="yes"/>
    </contour>
  </outline>
</glyph>
<glyph name="Umacron" format="1">
  <advance width="655"/>
  <unicode hex="016A"/>
  <outline>
    <contour>
      <point x="287" y="-13" type="line" smooth="yes"/>
      <point x="497" y="47" type="line" smooth="yes"/>
      <point x="581" y="237" type="line" smooth="yes"/>
      <point x="652" y="780" type="line" smooth="yes"/>
      <point x="518" y="780" type="line" smooth="yes"/>
      <point x="448" y="247" type="line" smooth="yes"/>
      <point x="400" y="138" type="line" smooth="yes"/>
      <point x="287" y="104" type="line" smooth="yes"/>
      <point x="188" y="141" type="line" smooth="yes"/>
      <point x="174" y="254" type="line" smooth="yes"/>
      <point x="243" y="780" type="line" smooth="yes"/>
      <point x="109" y="780" type="line" smooth="yes"/>
      <point x="39" y="245" type="line" smooth="yes"/>
      <point x="81" y="52" type="line" smooth="yes"/>
    </contour>
    <contour>
      <point x="253" y="853" type="line" smooth="yes"/>
      <point x="529" y="853" type="line" smooth="yes"/>
      <point x="540" y="937" type="line" smooth="yes"/>
      <point x="264" y="937" type="line" smooth="yes"/>
    </contour>
  </outline>
</glyph>
<glyph name="Ubreve" format="1">
  <advance width="655"/>
  <unicode hex="016C"/>
  <outline>
    <contour>
      <point x="287" y="-13" type="line" smooth="yes"/>
      <point x="497" y="47" type="line" smooth="yes"/>
      <point x="581" y="237" type="line" smooth="yes"/>
      <point x="652" y="780" type="line" smooth="yes"/>
      <point x="518" y="780" type="line" smooth="yes"/>
      <point x="448" y="247" type="line" smooth="yes"/>
      <point x="400" y="138" type="line" smooth="yes"/>
      <point x="287" y="104" type="line" smooth="yes"/>
      <point x="188" y="141" type="line" smooth="yes"/>
      <point x="174" y="254" type="line" smooth="yes"/>
      <point x="243" y="780" type="line" smooth="yes"/>
      <point x="109" y="780" type="line" smooth="yes"/>
      <point x="39" y="245" type="line" smooth="yes"/>
      <point x="81" y="52" type="line" smooth="yes"/>
    </contour>
    <contour>
      <point x="387" y="826" type="line" smooth="yes"/>
      <point x="528" y="863" type="line" smooth="yes"/>
      <point x="575" y="950" type="line" smooth="yes"/>
      <point x="481" y="950" type="line" smooth="yes"/>
      <point x="457" y="914" type="line" smooth="yes"/>
      <point x="395" y="901" type="line" smooth="yes"/>
      <point x="336" y="914" type="line" smooth="yes"/>
      <point x="323" y="950" type="line" smooth="yes"/>
      <point x="233" y="950" type="line" smooth="yes"/>
      <point x="256" y="863" type="line" smooth="yes"/>
    </contour>
  </outline>
</glyph>
<glyph name="ubreve" format="1">
  <advance width="563"/>
  <unicode hex="016D"/>
  <outline>
    <contour>
      <point x="73" y="530" type="line" smooth="yes"/>
      <point x="26" y="171" type="line" smooth="yes"/>
      <point x="51" y="39" type="line" smooth="yes"/>
      <point x="177" y="-13" type="line" smooth="yes"/>
      <point x="280" y="10" type="line" smooth="yes"/>
      <point x="351" y="69" type="line" smooth="yes"/>
      <point x="351" y="0" type="line" smooth="yes"/>
      <point x="466" y="0" type="line" smooth="yes"/>
      <point x="476" y="150" type="line" smooth="yes"/>
      <point x="526" y="530" type="line" smooth="yes"/>
      <point x="396" y="530" type="line" smooth="yes"/>
      <point x="348" y="163" type="line" smooth="yes"/>
      <point x="308" y="123" type="line" smooth="yes"/>
      <point x="235" y="100" type="line" smooth="yes"/>
      <point x="172" y="124" type="line" smooth="yes"/>
      <point x="158" y="188" type="line" smooth="yes"/>
      <point x="203" y="530" type="line" smooth="yes"/>
    </contour>
    <contour>
      <point x="306" y="589" type="line" smooth="yes"/>
      <point x="453" y="643" type="line" smooth="yes"/>
      <point x="510" y="780" type="line" smooth="yes"/>
      <point x="411" y="780" type="line" smooth="yes"/>
      <point x="380" y="711" type="line" smooth="yes"/>
      <point x="316" y="689" type="line" smooth="yes"/>
      <point x="258" y="711" type="line" smooth="yes"/>
      <point x="245" y="780" type="line" smooth="yes"/>
      <point x="152" y="780" type="line" smooth="yes"/>
      <point x="174" y="643" type="line" smooth="yes"/>
    </contour>
  </outline>
</glyph>
<glyph name="Uring" format="1">
  <advance width="655"/>
  <unicode hex="016E"/>
  <outline>
    <contour>
      <point x="287" y="-13" type="line" smooth="yes"/>
      <point x="497" y="47" type="line" smooth="yes"/>
      <point x="581" y="237" type="line" smooth="yes"/>
      <point x="652" y="780" type="line" smooth="yes"/>
      <point x="518" y="780" type="line" smooth="yes"/>
      <point x="448" y="247" type="line" smooth="yes"/>
      <point x="400" y="138" type="line" smooth="yes"/>
      <point x="287" y="104" type="line" smooth="yes"/>
      <point x="188" y="141" type="line" smooth="yes"/>
      <point x="174" y="254" type="line" smooth="yes"/>
      <point x="243" y="780" type="line" smooth="yes"/>
      <point x="109" y="780" type="line" smooth="yes"/>
      <point x="39" y="245" type="line" smooth="yes"/>
      <point x="81" y="52" type="line" smooth="yes"/>
    </contour>
    <contour>
      <point x="444" y="868" type="line" smooth="yes"/>
      <point x="426" y="824" type="line" smooth="yes"/>
      <point x="385" y="809" type="line" smooth="yes"/>
      <point x="352" y="822" type="line" smooth="yes"/>
      <point x="340" y="855" type="line" smooth="yes"/>
      <point x="358" y="899" type="line" smooth="yes"/>
      <point x="399" y="914" type="line" smooth="yes"/>
      <point x="432" y="902" type="line" smooth="yes"/>
    </contour>
    <contour>
      <point x="289" y="855" type="line" smooth="yes"/>
      <point x="316" y="786" type="line" smooth="yes"/>
      <point x="385" y="759" type="line" smooth="yes"/>
      <point x="462" y="790" type="line" smooth="yes"/>
      <point x="495" y="868" type="line" smooth="yes"/>
      <point x="468" y="937" type="line" smooth="yes"/>
      <point x="399" y="964" type="line" smooth="yes"/>
      <point x="322" y="933" type="line" smooth="yes"/>
    </contour>
  </outline>
</glyph>
<glyph name="uring" format="1">
  <advance width="563"/>
  <unicode hex="016F"/>
  <outline>
    <contour>
      <point x="371" y="698" type="line" smooth="yes"/>
      <point x="353" y="654" type="line" smooth="yes"/>
      <point x="312" y="639" type="line" smooth="yes"/>
      <point x="279" y="652" type="line" smooth="yes"/>
      <point x="267" y="685" type="line" smooth="yes"/>
      <point x="285" y="729" type="line" smooth="yes"/>
      <point x="326" y="744" type="line" smooth="yes"/>
      <point x="359" y="732" type="line" smooth="yes"/>
    </contour>
    <contour>
      <point x="216" y="685" type="line" smooth="yes"/>
      <point x="243" y="616" type="line" smooth="yes"/>
      <point x="312" y="589" type="line" smooth="yes"/>
      <point x="389" y="620" type="line" smooth="yes"/>
      <point x="422" y="698" type="line" smooth="yes"/>
      <point x="395" y="767" type="line" smooth="yes"/>
      <point x="326" y="794" type="line" smooth="yes"/>
      <point x="249" y="763" type="line" smooth="yes"/>
    </contour>
    <contour>
      <point x="73" y="530" type="line" smooth="yes"/>
      <point x="26" y="171" type="line" smooth="yes"/>
      <point x="51" y="39" type="line" smooth="yes"/>
      <point x="177" y="-13" type="line" smooth="yes"/>
      <point x="280" y="10" type="line" smooth="yes"/>
      <point x="351" y="69" type="line" smooth="yes"/>
      <point x="351" y="0" type="line" smooth="yes"/>
      <point x="466" y="0" type="line" smooth="yes"/>
      <point x="476" y="150" type="line" smooth="yes"/>
      <point x="526" y="530" type="line" smooth="yes"/>
      <point x="396" y="530" type="line" smooth="yes"/>
      <point x="348" y="163" type="line" smooth="yes"/>
      <point x="308" y="123" type="line" smooth="yes"/>
      <point x="235" y="100" type="line" smooth="yes"/>
      <point x="172" y="124" type="line" smooth="yes"/>
      <point x="158" y="188" type="line" smooth="yes"/>
      <point x="203" y="530" type="line" smooth="yes"/>
    </contour>
  </outline>
</glyph>
<glyph name="Uhungarumlaut" format="1">
  <advance width="655"/>
  <unicode hex="0170"/>
  <outline>
    <contour>
      <point x="287" y="-13" type="line" smooth="yes"/>
      <point x="497" y="47" type="line" smooth="yes"/>
      <point x="581" y="237" type="line" smooth="yes"/>
      <point x="652" y="780" type="line" smooth="yes"/>
      <point x="518" y="780" type="line" smooth="yes"/>
      <point x="448" y="247" type="line" smooth="yes"/>
      <point x="400" y="138" type="line" smooth="yes"/>
      <point x="287" y="104" type="line" smooth="yes"/>
      <point x="188" y="141" type="line" smooth="yes"/>
      <point x="174" y="254" type="line" smooth="yes"/>
      <point x="243" y="780" type="line" smooth="yes"/>
      <point x="109" y="780" type="line" smooth="yes"/>
      <point x="39" y="245" type="line" smooth="yes"/>
      <point x="81" y="52" type="line" smooth="yes"/>
    </contour>
    <contour>
      <point x="479" y="950" type="line" smooth="yes"/>
      <point x="407" y="840" type="line" smooth="yes"/>
      <point x="525" y="840" type="line" smooth="yes"/>
      <point x="603" y="950" type="line" smooth="yes"/>
    </contour>
    <contour>
      <point x="319" y="950" type="line" smooth="yes"/>
      <point x="253" y="840" type="line" smooth="yes"/>
      <point x="371" y="840" type="line" smooth="yes"/>
      <point x="443" y="950" type="line" smooth="yes"/>
    </contour>
  </outline>
</glyph>
<glyph name="Uogonek" format="1">
  <advance width="655"/>
  <unicode hex="0172"/>
  <outline>
    <contour>
      <point x="403" y="0" type="line" smooth="yes"/>
      <point x="526" y="79" type="line" smooth="yes"/>
      <point x="581" y="237" type="line" smooth="yes"/>
      <point x="652" y="780" type="line" smooth="yes"/>
      <point x="518" y="780" type="line" smooth="yes"/>
      <point x="448" y="247" type="line" smooth="yes"/>
      <point x="400" y="138" type="line" smooth="yes"/>
      <point x="287" y="104" type="line" smooth="yes"/>
      <point x="188" y="141" type="line" smooth="yes"/>
      <point x="174" y="254" type="line" smooth="yes"/>
      <point x="243" y="780" type="line" smooth="yes"/>
      <point x="109" y="780" type="line" smooth="yes"/>
      <point x="39" y="245" type="line" smooth="yes"/>
      <point x="76" y="56" type="line" smooth="yes"/>
      <point x="267" y="-13" type="line" smooth="yes"/>
      <point x="233" y="-62" type="line" smooth="yes"/>
      <point x="219" y="-120" type="line" smooth="yes"/>
      <point x="250" y="-191" type="line" smooth="yes"/>
      <point x="338" y="-214" type="line" smooth="yes"/>
      <point x="393" y="-207" type="line" smooth="yes"/>
      <point x="435" y="-190" type="line" smooth="yes"/>
      <point x="415" y="-108" type="line" smooth="yes"/>
      <point x="394" y="-116" type="line" smooth="yes"/>
      <point x="363" y="-120" type="line" smooth="yes"/>
      <point x="333" y="-110" type="line" smooth="yes"/>
      <point x="323" y="-85" type="line" smooth="yes"/>
      <point x="352" y="-30" type="line" smooth="yes"/>
    </contour>
  </outline>
</glyph>
<glyph name="uogonek" format="1">
  <advance width="563"/>
  <unicode hex="0173"/>
  <outline>
    <contour>
      <point x="73" y="530" type="line" smooth="yes"/>
      <point x="26" y="171" type="line" smooth="yes"/>
      <point x="51" y="39" type="line" smooth="yes"/>
      <point x="177" y="-13" type="line" smooth="yes"/>
      <point x="280" y="10" type="line" smooth="yes"/>
      <point x="351" y="69" type="line" smooth="yes"/>
      <point x="351" y="5" type="line" smooth="yes"/>
      <point x="302" y="-50" type="line" smooth="yes"/>
      <point x="282" y="-120" type="line" smooth="yes"/>
      <point x="313" y="-191" type="line" smooth="yes"/>
      <point x="401" y="-214" type="line" smooth="yes"/>
      <point x="456" y="-207" type="line" smooth="yes"/>
      <point x="498" y="-190" type="line" smooth="yes"/>
      <point x="478" y="-108" type="line" smooth="yes"/>
      <point x="457" y="-116" type="line" smooth="yes"/>
      <point x="426" y="-120" type="line" smooth="yes"/>
      <point x="396" y="-110" type="line" smooth="yes"/>
      <point x="386" y="-85" type="line" smooth="yes"/>
      <point x="415" y="-31" type="line" smooth="yes"/>
      <point x="466" y="0" type="line" smooth="yes"/>
      <point x="476" y="150" type="line" smooth="yes"/>
      <point x="526" y="530" type="line" smooth="yes"/>
      <point x="396" y="530" type="line" smooth="yes"/>
      <point x="348" y="163" type="line" smooth="yes"/>
      <point x="308" y="123" type="line" smooth="yes"/>
      <point x="235" y="100" type="line" smooth="yes"/>
      <point x="172" y="124" type="line" smooth="yes"/>
      <point x="158" y="188" type="line" smooth="yes"/>
      <point x="203" y="530" type="line" smooth="yes"/>
    </contour>
  </outline>
</glyph>
<glyph name="Ycircumflex" format="1">
  <advance width="610"/>
  <unicode hex="0176"/>
  <outline>
    <contour>
      <point x="354" y="238" type="line" smooth="yes"/>
      <point x="651" y="780" type="line" smooth="yes"/>
      <point x="502" y="780" type="line" smooth="yes"/>
      <point x="305" y="403" type="line" smooth="yes"/>
      <point x="208" y="780" type="line" smooth="yes"/>
      <point x="65" y="780" type="line" smooth="yes"/>
      <point x="220" y="238" type="line" smooth="yes"/>
      <point x="189" y="0" type="line" smooth="yes"/>
      <point x="323" y="0" type="line" smooth="yes"/>
    </contour>
    <contour>
      <point x="304" y="840" type="line" smooth="yes"/>
      <point x="375" y="892" type="line" smooth="yes"/>
      <point x="432" y="840" type="line" smooth="yes"/>
      <point x="550" y="840" type="line" smooth="yes"/>
      <point x="446" y="950" type="line" smooth="yes"/>
      <point x="316" y="950" type="line" smooth="yes"/>
      <point x="182" y="840" type="line" smooth="yes"/>
    </contour>
  </outline>
</glyph>
<glyph name="Zacute" format="1">
  <advance width="587"/>
  <unicode hex="0179"/>
  <outline>
    <contour>
      <point x="2" y="92" type="line" smooth="yes"/>
      <point x="-10" y="0" type="line" smooth="yes"/>
      <point x="497" y="0" type="line" smooth="yes"/>
      <point x="512" y="117" type="line" smooth="yes"/>
      <point x="302" y="117" type="line" smooth="yes"/>
      <point x="164" y="114" type="line" smooth="yes"/>
      <point x="577" y="688" type="line" smooth="yes"/>
      <point x="589" y="780" type="line" smooth="yes"/>
      <point x="102" y="780" type="line" smooth="yes"/>
      <point x="87" y="663" type="line" smooth="yes"/>
      <point x="277" y="663" type="line" smooth="yes"/>
      <point x="415" y="666" type="line" smooth="yes"/>
    </contour>
    <contour>
      <point x="357" y="950" type="line" smooth="yes"/>
      <point x="286" y="840" type="line" smooth="yes"/>
      <point x="416" y="840" type="line" smooth="yes"/>
      <point x="494" y="950" type="line" smooth="yes"/>
    </contour>
  </outline>
</glyph>
<glyph name="Zdotaccent" format="1">
  <advance width="587"/>
  <unicode hex="017B"/>
  <outline>
    <contour>
      <point x="2" y="92" type="line" smooth="yes"/>
      <point x="-10" y="0" type="line" smooth="yes"/>
      <point x="497" y="0" type="line" smooth="yes"/>
      <point x="512" y="117" type="line" smooth="yes"/>
      <point x="302" y="117" type="line" smooth="yes"/>
      <point x="164" y="114" type="line" smooth="yes"/>
      <point x="577" y="688" type="line" smooth="yes"/>
      <point x="589" y="780" type="line" smooth="yes"/>
      <point x="102" y="780" type="line" smooth="yes"/>
      <point x="87" y="663" type="line" smooth="yes"/>
      <point x="277" y="663" type="line" smooth="yes"/>
      <point x="415" y="666" type="line" smooth="yes"/>
    </contour>
    <contour>
      <point x="422" y="941" type="line" smooth="yes"/>
      <point x="306" y="941" type="line" smooth="yes"/>
      <point x="294" y="849" type="line" smooth="yes"/>
      <point x="410" y="849" type="line" smooth="yes"/>
    </contour>
  </outline>
</glyph>
